<?xml version="1.0" encoding="UTF-8"?>
<svg width="16px" height="16px" viewBox="0 0 16 16" version="1.1" xmlns="http://www.w3.org/2000/svg" xmlns:xlink="http://www.w3.org/1999/xlink">
    <!-- Generator: Sketch 60.1 (88133) - https://sketch.com -->
    <title>lei</title>
    <desc>Created with Sketch.</desc>
    <g id="页面-1" stroke="none" stroke-width="1" fill="none" fill-rule="evenodd">
        <g id="icon" transform="translate(-1143.000000, -108.000000)">
            <g id="lei" transform="translate(1142.000000, 108.000000)">
                <circle id="椭圆形" fill="#4C383F" cx="11" cy="9.88291121" r="6"></circle>
                <path d="M9.5249076,4.93639635 C8.76746568,5.13391973 6.97019755,5.85448726 6.29761297,8.0353074 C5.76091082,9.77553595 6.4079253,12.1790874 6.97019755,12.7957059 C7.23894414,13.090428 7.42269691,12.8718518 7.31698625,12.5988229 C6.69925527,11.0033513 6.85770757,9.49189899 7.1891607,8.35911463 C7.79729201,6.28074646 9.55128563,5.72265261 9.8630646,5.29006075 C10.1179587,4.93639635 9.89760364,4.83920582 9.5249076,4.93639635 Z" id="路径-4" fill="#614E52"></path>
                <circle id="椭圆形" fill="#FFFFFF" cx="9" cy="6.88291121" r="1"></circle>
                <circle id="椭圆形备份-7" fill="#FFFFFF" cx="7.5" cy="9.38291121" r="1"></circle>
                <g id="编组-2" transform="translate(14.398004, 5.241456) rotate(36.000000) translate(-14.398004, -5.241456) translate(12.398004, 3.741456)">
                    <ellipse id="椭圆形备份-8" fill="#281D21" cx="2" cy="2" rx="2" ry="1"></ellipse>
                    <polygon id="矩形" fill="#281D21" points="0 1 4 1 4 2 0 2"></polygon>
                    <ellipse id="椭圆形" stroke="#423136" stroke-width="0.4" fill="#302027" cx="2" cy="1" rx="1.8" ry="1"></ellipse>
                </g>
                <path d="M4.30738892,3.08140893 C6.09670648,1.04768422 11.2731318,-0.849645785 13.7428237,0.399822621 C15.0830763,1.07788424 15.7379631,2.00788281 15.7646045,3.08140893 C15.7811598,3.74850798 15.5618371,4.38073666 15.2230025,4.93548112 L15.1057909,5.1174677 L14.2780027,4.55642704 C14.5761513,4.11652328 14.7772152,3.60196818 14.7649123,3.10621806 C14.7478847,2.42008477 14.3223542,1.81099132 13.2932692,1.29307553 C11.2181574,0.2487175 5.92257233,1.44252258 4.67317437,3.3309106 C3.84024239,4.58983595 3.71831391,4.50666873 4.30738892,3.08140893 Z" id="路径-5" fill="#FBCD52" fill-rule="nonzero"></path>
                <polygon id="路径-7" fill="#FBCD52" points="4.35949608 9.60331938 3.43999352 7.07855787 1.87044936 8.0712865 2.33247174 5.98423778 1 5.98423778 2.18794034 4.7780948 1 3.17346426 2.33247174 3.17346426 2.00601148 1.12121221 3.55217951 2.67992193 4.52097718 0.514696587 4.52097718 3.17346426 7.36521539 2.40428262 5.79420861 4.60001591 8.30547035 7.07855787 5 6.27612257"></polygon>
                <polygon id="路径-6" fill="#FF3C3C" transform="translate(4.010844, 4.765957) rotate(151.000000) translate(-4.010844, -4.765957) " points="3.89960697 3.69813828 5.46881675 1.69547953 5.19227523 3.49325256 6.66981445 3.35832654 5.55538482 4.61595093 6.46205962 5.11852898 5.2374096 5.42648515 5.45012584 6.94410585 4.54345103 6.4415278 4.04046954 7.83643527 3.7414196 6.1106654 2.76179824 6.80062032 3.28866652 5.62857465 1.35187313 5.06713282 2.95092163 4.22583361 2.27775211 2.18206649"></polygon>
            </g>
        </g>
    </g>
</svg>