<?xml version="1.0" encoding="UTF-8"?>
<svg width="44px" height="44px" viewBox="0 0 44 44" version="1.1" xmlns="http://www.w3.org/2000/svg" xmlns:xlink="http://www.w3.org/1999/xlink">
    <!-- Generator: Sketch 60.1 (88133) - https://sketch.com -->
    <title>qunzu</title>
    <desc>Created with Sketch.</desc>
    <defs>
        <linearGradient x1="50%" y1="2.28401791%" x2="50%" y2="100%" id="linearGradient-1">
            <stop stop-color="#7CA5FF" offset="0.0923775338%"></stop>
            <stop stop-color="#4A77FF" offset="100%"></stop>
        </linearGradient>
    </defs>
    <g id="页面-1" stroke="none" stroke-width="1" fill="none" fill-rule="evenodd">
        <g id="icon" transform="translate(-822.000000, -189.000000)">
            <g id="qunzu" transform="translate(822.000000, 189.000000)">
                <path d="M21.9996004,0 C9.84882559,0 0,9.85060311 0,22 L0,22 C0,34.1509955 9.84882559,44 21.9996004,44 L21.9996004,44 C34.1487765,44 44,34.1509955 44,22 L44,22 C44,9.85060311 34.1487765,0 21.9996004,0 Z" id="Fill-1" fill="url(#linearGradient-1)"></path>
                <path d="M27.9678788,24.0913687 C26.113283,23.2795669 24.1013658,22.8333333 21.9977525,22.8333333 C19.8986342,22.8333333 17.8948078,23.2795669 16.04201,24.0862198 C14.9587391,24.6328559 14.2,25.8685795 14.2,27.3128316 L14.2,28.9261374 C14.2,29.9953816 14.8202962,30.8904231 15.6653374,31.1796168 C17.706022,31.7099482 19.821322,32 22.0013485,32 C24.178678,32 26.29218,31.715097 28.3283697,31.1839075 C29.1797038,30.8964301 29.8,29.9979561 29.8,28.9304281 L29.8,27.3171223 C29.8,25.8754447 29.0448568,24.6405792 27.9678788,24.0913687 M33.7853282,24.4770979 C32.5560548,23.9545247 31.220007,23.6666667 29.8209898,23.6666667 L29.8,23.6666667 C30.7354159,24.5807268 31.3432081,26.0200172 31.3432081,27.6577083 L31.3432081,29.5 C32.2567217,29.4176283 33.1538084,29.271485 34.0216918,29.0500557 C34.583854,28.8622836 35,28.284796 35,27.5930509 L35,26.5620761 C35,25.6285302 34.4989821,24.8358133 33.7853282,24.4770979 M10.2212744,24.467904 C9.50201861,24.8241743 9,25.620908 9,26.5558959 L9,27.5972332 C9,28.2858451 9.41165526,28.8601315 9.97117781,29.0506741 C10.8456029,29.2731214 11.7410216,29.4184655 12.6574337,29.5 L12.6574337,27.661929 C12.6574337,26.019718 13.2689837,24.5786845 14.2,23.666739 L14.1762682,23.666739 C12.782482,23.6614215 11.448938,23.949451 10.2212744,24.467904 M14.1991364,22 C15.6354988,22 16.8,20.879986 16.8,19.5022465 L16.8,18.6661674 C16.8,17.2831861 15.6354988,16.1666667 14.1991364,16.1666667 C12.7627739,16.1666667 11.6,17.2884279 11.6,18.6661674 L11.6,19.4987519 C11.5974069,20.879986 12.7601765,22 14.1991364,22 M29.7991339,22 C31.235976,22 32.4,20.879986 32.4,19.5022465 L32.4,18.6661674 C32.4,17.2831861 31.235976,16.1666667 29.7991339,16.1666667 C28.3631579,16.1666667 27.2,17.2884279 27.2,18.6661674 L27.2,19.4987519 C27.2,20.879986 28.3631579,22 29.7991339,22 M22.1439506,21.1666667 L22.245966,21.1666667 C24.6136492,21.1400493 26.5278279,19.3918915 26.5278279,17.2393218 L26.5278279,15.9290621 C26.5278279,13.75932 24.5858268,12 22.1940309,12 C19.8031623,12 17.8611612,13.75932 17.8611612,15.9290621 L17.8611612,17.2393218 C17.8611612,19.3918915 19.77534,21.1400493 22.1439506,21.1666667" id="Fill-3" fill="#FFFFFF"></path>
            </g>
        </g>
    </g>
</svg>