<?xml version="1.0" encoding="UTF-8"?>
<svg width="26px" height="32px" viewBox="0 0 26 32" version="1.1" xmlns="http://www.w3.org/2000/svg" xmlns:xlink="http://www.w3.org/1999/xlink">
    <!-- Generator: Sketch 60.1 (88133) - https://sketch.com -->
    <title>weichaihongbao_mini</title>
    <desc>Created with Sketch.</desc>
    <g id="页面-1" stroke="none" stroke-width="1" fill="none" fill-rule="evenodd">
        <g id="icon" transform="translate(-1100.000000, -140.000000)">
            <g id="weichaihongbao_mini" transform="translate(1100.000000, 140.000000)">
                <path d="M26.0003,30.2181574 C26.0003,31.2020572 25.1992819,32 24.2115901,32 L1.78802223,32 C0.800330391,32 0.0003,31.2020572 0.0003,30.2181574 L0.0003,1.78282648 C0.0003,0.798926655 0.800330391,0 1.78802223,0 L24.2115901,0 C25.1992819,0 26.0003,0.798926655 26.0003,1.78282648 L26.0003,30.2181574 Z" id="Fill-1" fill="#C43C36"></path>
                <path d="M13.0888923,16.0005 C21.5267437,16.0005 24.769336,13.1288177 26,10.6921783 L26,2.80752455 C26,1.80872191 25.1999696,1.0005 24.2122778,1.0005 L1.78870992,1.0005 C0.801018082,1.0005 0,1.80872191 0,2.80752455 L0,10.5564769 C1.23066403,13.0210548 4.49498556,16.0005 13.0888923,16.0005" id="Fill-3" fill="#991E23"></path>
                <path d="M13.0888923,15.0002 C21.5267437,15.0002 24.769336,12.127711 26,9.69123366 L26,1.80810209 C26,0.810363629 25.1999696,0.0002 24.2122778,0.0002 L1.78870992,0.0002 C0.801018082,0.0002 0,0.810363629 0,1.80810209 L0,9.55653897 C1.23066403,12.0199552 4.49498556,15.0002 13.0888923,15.0002" id="Fill-5" fill="#EA5453"></path>
                <path d="M19,14.9994433 C19,18.3143429 16.3130228,21.0005 12.9984151,21.0005 C9.68697719,21.0005 7,18.3143429 7,14.9994433 C7,11.6866571 9.68697719,9.0005 12.9984151,9.0005 C16.3130228,9.0005 19,11.6866571 19,14.9994433" id="Fill-9" fill="#FDE168"></path>
                <path d="M12.9971407,18 C13.1892076,18 13.3137915,17.9651883 13.3708924,17.8955649 C13.4279934,17.8259414 13.4565439,17.6866946 13.4565439,17.4778243 L13.4565439,17.4778243 L13.4565439,16.5459414 L14.5544395,16.5459414 C14.8451353,16.5459414 14.9904832,16.3986611 14.9904832,16.1041004 C14.9904832,15.8041841 14.8451353,15.6542259 14.5544395,15.6542259 L14.5544395,15.6542259 L13.4565439,15.6542259 L13.4565439,15.2445188 L14.5544395,15.2445188 C14.8451353,15.2445188 14.9904832,15.0972385 14.9904832,14.8026778 C14.9904832,14.5027615 14.8451353,14.3528033 14.5544395,14.3528033 L14.5544395,14.3528033 L13.9548795,14.3528033 L14.8892588,12.7541423 C14.9723147,12.6041841 15.0086517,12.4823431 14.9982697,12.3886192 C14.9878877,12.2948954 14.9178092,12.2051883 14.7880343,12.1194979 C14.7309334,12.0820084 14.6764279,12.0512134 14.624518,12.027113 C14.572608,12.0030126 14.520698,11.9949791 14.4687881,12.0030126 C14.4168781,12.011046 14.3662659,12.0378243 14.3169515,12.0833473 C14.267637,12.1288703 14.2144293,12.1998326 14.1573283,12.2962343 C13.9652615,12.6336402 13.7731946,12.9697071 13.5811278,13.3044351 C13.3890609,13.6391632 13.1969941,13.9752301 13.0049272,14.312636 L13.0049272,14.312636 L11.8213802,12.2721339 C11.7279422,12.1114644 11.630611,12.0230962 11.5293866,12.0070293 C11.4281622,11.9909623 11.3178535,12.0257741 11.1984606,12.1114644 C11.0946407,12.1864435 11.031051,12.2774895 11.0076915,12.3846025 C10.9843321,12.4917155 11.0141803,12.6148954 11.0972362,12.7541423 C11.2529661,13.016569 11.4112915,13.2830126 11.5722123,13.5534728 C11.7331332,13.8239331 11.8914586,14.0903766 12.0471885,14.3528033 L12.0471885,14.3528033 L11.4320555,14.3528033 C11.1517417,14.3528033 11.0115848,14.5027615 11.0115848,14.8026778 C11.0115848,15.0972385 11.1569327,15.2445188 11.4476284,15.2445188 L11.4476284,15.2445188 L12.5299511,15.2445188 L12.5299511,15.6542259 L11.4320555,15.6542259 C11.1517417,15.6542259 11.0115848,15.8041841 11.0115848,16.1041004 C11.0115848,16.3986611 11.1569327,16.5459414 11.4476284,16.5459414 L11.4476284,16.5459414 L12.5299511,16.5459414 L12.5299511,17.4778243 C12.5299511,17.6866946 12.5662881,17.8259414 12.638962,17.8955649 C12.711636,17.9651883 12.8310289,18 12.9971407,18 Z" id="¥" fill="#E7933B" fill-rule="nonzero"></path>
            </g>
        </g>
    </g>
</svg>