<?xml version="1.0" encoding="UTF-8"?>
<svg width="28px" height="32px" viewBox="0 0 28 32" version="1.1" xmlns="http://www.w3.org/2000/svg" xmlns:xlink="http://www.w3.org/1999/xlink">
    <!-- Generator: Sketch 60.1 (88133) - https://sketch.com -->
    <title>anquanzhongxin</title>
    <desc>Created with Sketch.</desc>
    <g id="页面-1" stroke="none" stroke-width="1" fill="none" fill-rule="evenodd">
        <g id="icon" transform="translate(-168.000000, -365.000000)" fill="#000000" fill-rule="nonzero">
            <path d="M183.529905,365.149147 L183.797359,365.204007 C184.729526,365.40807 185.656345,365.755658 187.707329,366.780951 L192.945687,369.399622 C194.134909,369.994118 194.525513,370.28237 194.906094,370.671965 C195.286674,371.06156 195.56015,371.503969 195.738482,372.018536 L195.80092,372.211528 C195.92664,372.633496 195.990536,373.104696 195.999022,374.101154 L196,382.041089 C196,384.408054 195.883063,385.247109 195.617939,386.164742 C195.352814,387.082374 194.939501,387.885364 194.346748,388.634427 L194.190766,388.826694 C193.663497,389.45922 193.034682,390.029116 191.456556,391.167057 L185.134161,395.682996 L184.720694,395.972035 C183.824568,396.582859 183.383843,396.766106 182.873045,396.892049 C182.289275,397.035984 181.710725,397.035984 181.126955,396.892049 L180.9108,396.833485 C180.409299,396.683613 179.902803,396.423541 178.865839,395.682996 L172.787388,391.342087 C170.860936,389.966316 170.246005,389.383489 169.653252,388.634427 C169.060499,387.885364 168.647186,387.082374 168.382061,386.164742 C168.128464,385.287006 168.010449,384.481164 168.000666,382.34129 L168,374.340647 C168,373.011314 168.083186,372.533104 168.261518,372.018536 C168.43985,371.503969 168.713326,371.06156 169.093906,370.671965 L169.238634,370.529821 C169.559903,370.228686 169.952864,369.960819 170.8405,369.507601 L176.292671,366.780951 C178.538987,365.658011 179.436815,365.34801 180.470095,365.149147 C181.503376,364.950284 182.496624,364.950284 183.529905,365.149147 Z M180.848145,367.112711 L180.589896,367.166788 C179.817955,367.342375 179.041578,367.650844 177.458544,368.434407 L171.948741,371.18813 C171.030021,371.6474 170.764495,371.823656 170.524711,372.069119 C170.349938,372.248032 170.233183,372.436909 170.151289,372.673212 C170.046422,372.975801 170.005517,373.271481 170.000529,374.144382 L170.000529,382.332151 L170.010749,383.154372 C170.038084,384.387164 170.120863,384.977673 170.303501,385.60981 C170.496592,386.278122 170.790018,386.848195 171.22172,387.393737 L171.3777,387.58387 C171.803222,388.08311 172.327608,388.53808 173.485089,389.380165 L173.949865,389.714936 L180.028315,394.055844 C180.931793,394.70106 181.238207,394.85996 181.605827,394.950601 C181.87506,395.016983 182.12494,395.016983 182.394173,394.950601 C182.737285,394.866003 183.02708,394.721944 183.798755,394.178527 L190.050135,389.714936 C191.705264,388.53293 192.266838,388.040047 192.77828,387.393737 C193.209982,386.848195 193.503408,386.278122 193.696499,385.60981 L193.760585,385.372396 C193.929519,384.696251 193.992908,383.958353 193.99943,382.336619 L194,374.340647 C194,373.313686 193.961069,372.997414 193.848711,372.673212 C193.766817,372.436909 193.650062,372.248032 193.475289,372.069119 L193.369119,371.967131 C193.164878,371.784156 192.889408,371.612842 192.238359,371.282341 L186.812902,368.569458 C185.0447,367.685529 184.224931,367.35213 183.410104,367.166788 L183.151855,367.112711 C182.368315,366.961913 181.631685,366.961913 180.848145,367.112711 Z M184.982313,373.949765 C185.150276,373.829514 185.380269,373.840048 185.539299,373.982381 C185.695688,374.12218 185.733458,374.350097 185.630209,374.528929 L185.630209,374.528929 L183.223992,378.696619 L185.918324,380.252193 C186.048422,380.327305 186.132865,380.461938 186.141126,380.611187 C186.150594,380.760123 186.082727,380.900783 185.962569,380.988013 L185.962569,380.988013 L178.945885,386.030072 C178.802262,386.133055 178.61349,386.138237 178.464147,386.052014 C178.437973,386.036902 178.41278,386.018316 178.388899,385.997455 C178.23251,385.857657 178.194741,385.62974 178.297989,385.450908 L178.297989,385.450908 L180.704206,381.283217 L178.009874,379.727644 C177.879776,379.652532 177.795771,379.517141 177.787073,379.36865 C177.777937,379.220916 177.845139,379.077852 177.96563,378.991824 L177.96563,378.991824 Z" id="anquanzhongxin"></path>
        </g>
    </g>
</svg>