<?xml version="1.0" encoding="UTF-8"?>
<svg width="28px" height="33px" viewBox="0 0 28 33" version="1.1" xmlns="http://www.w3.org/2000/svg" xmlns:xlink="http://www.w3.org/1999/xlink">
    <!-- Generator: Sketch 60.1 (88133) - https://sketch.com -->
    <title>hongbaosaolei_1</title>
    <desc>Created with Sketch.</desc>
    <g id="页面-1" stroke="none" stroke-width="1" fill="none" fill-rule="evenodd">
        <g id="icon" transform="translate(-214.000000, -280.000000)" fill="#000000" fill-rule="nonzero">
            <path d="M241.2924,296.854185 C241.694971,298.468934 241.379642,299.93703 240.372027,301.164448 L240.968722,301.761752 C241.714269,302.507298 241.748357,303.694812 241.070842,304.480301 L240.969213,304.589688 L240.796892,304.762009 C241.192171,306.943883 240.535649,309.265892 238.849365,310.952177 C236.116644,313.684898 231.685258,313.684129 228.951588,310.950459 C226.217918,308.216789 226.217149,303.785403 228.94987,301.052682 C230.567081,299.435471 232.772551,298.768937 234.875116,299.065725 L235.137351,299.107842 L235.312359,298.932834 C236.057647,298.187546 237.245148,298.15387 238.030873,298.831658 L238.140295,298.933325 L238.946941,299.740345 C239.454848,299.041924 239.583099,298.265587 239.351761,297.337667 C238.991065,295.890884 236.936197,295.47362 235.622612,296.789806 L235.497887,296.922614 C233.537415,299.139979 231.093235,299.113269 229.22958,297.701308 C228.789425,297.367833 228.703038,296.740807 229.036628,296.300805 C229.370218,295.860803 229.997462,295.774446 230.437617,296.10792 C231.48927,296.904685 232.701602,296.949344 233.85541,295.754435 L233.999316,295.59858 C236.326611,292.966325 240.513145,293.728515 241.2924,296.854185 Z M236.996877,280.994447 C239.684698,280.994447 241.877001,283.116754 241.990524,285.777558 L241.995142,285.994447 L241.995142,290.994447 C241.995142,291.546732 241.547582,291.994447 240.995489,291.994447 C240.482831,291.994447 240.060306,291.608407 240.002561,291.111069 L239.995836,290.994447 L239.995836,285.994447 C239.995836,284.396767 238.747349,283.090787 237.173088,282.99954 L236.996877,282.994447 L219.003123,282.994447 C217.405997,282.994447 216.10047,284.243367 216.009255,285.818175 L216.004164,285.994447 L216.004164,307.994447 C216.004164,309.592128 217.252651,310.898108 218.826912,310.989355 L219.003123,310.994447 L225.045492,310.994447 C225.597585,310.994447 226.045145,311.442163 226.045145,311.994447 C226.045145,312.507283 225.659239,312.929955 225.162073,312.98772 L225.045492,312.994447 L219.003123,312.994447 C216.315302,312.994447 214.122999,310.872141 214.009476,308.211337 L214.004858,307.994447 L214.004858,285.994447 C214.004858,283.305693 216.126429,281.112629 218.786309,280.999067 L219.003123,280.994447 L236.996877,280.994447 Z M236.726572,300.347047 L235.812411,301.261209 L234.783417,301.0758 C233.185068,300.787803 231.541441,301.289538 230.364084,302.466895 C228.41214,304.418839 228.412689,307.584115 230.365311,309.536736 C232.317932,311.489358 235.483208,311.489907 237.435152,309.537963 C238.556829,308.416285 239.066533,306.877398 238.86673,305.357564 L238.829271,305.117812 L238.64267,304.087804 L239.555,303.175474 L236.726572,300.347047 Z M224.000347,297.9941 C224.55244,297.9941 225,298.44166 225,298.993753 C225,299.545847 224.55244,299.993406 224.000347,299.993406 L220.999653,299.993406 C220.44756,299.993406 220,299.545847 220,298.993753 C220,298.44166 220.44756,297.9941 220.999653,297.9941 L224.000347,297.9941 Z M226.000347,292.995836 C226.55244,292.995836 227,293.443395 227,293.995489 C227,294.547582 226.55244,294.995142 226.000347,294.995142 L220.999653,294.995142 C220.44756,294.995142 220,294.547582 220,293.995489 C220,293.443395 220.44756,292.995836 220.999653,292.995836 L226.000347,292.995836 Z M235.000347,287.997571 C235.55244,287.997571 236,288.445131 236,288.997224 C236,289.549317 235.55244,289.996877 235.000347,289.996877 L220.999653,289.996877 C220.44756,289.996877 220,289.549317 220,288.997224 C220,288.445131 220.44756,287.997571 220.999653,287.997571 L235.000347,287.997571 Z" id="hongbaosaolei_1"></path>
        </g>
    </g>
</svg>