<?xml version="1.0" encoding="UTF-8"?>
<svg width="10px" height="10px" viewBox="0 0 10 10" version="1.1" xmlns="http://www.w3.org/2000/svg" xmlns:xlink="http://www.w3.org/1999/xlink">
    <!-- Generator: Sketch 60.1 (88133) - https://sketch.com -->
    <title>jiaguanzhu</title>
    <desc>Created with Sketch.</desc>
    <g id="页面-1" stroke="none" stroke-width="1" fill="none" fill-rule="evenodd">
        <g id="icon" transform="translate(-141.000000, -33.000000)" fill="#000000">
            <path d="M146,33 C146.552285,33 147,33.4477153 147,34 L147,37 L150,37 C150.552285,37 151,37.4477153 151,38 C151,38.5522847 150.552285,39 150,39 L147,39 L147,42 C147,42.5522847 146.552285,43 146,43 C145.447715,43 145,42.5522847 145,42 L145,39 L142,39 C141.447715,39 141,38.5522847 141,38 C141,37.4477153 141.447715,37 142,37 L145,37 L145,34 C145,33.4477153 145.447715,33 146,33 Z" id="jiaguanzhu"></path>
        </g>
    </g>
</svg>