<?xml version="1.0" encoding="UTF-8"?>
<svg width="28px" height="22px" viewBox="0 0 28 22" version="1.1" xmlns="http://www.w3.org/2000/svg" xmlns:xlink="http://www.w3.org/1999/xlink">
    <!-- Generator: Sketch 60.1 (88133) - https://sketch.com -->
    <title>paizhao</title>
    <desc>Created with Sketch.</desc>
    <g id="页面-1" stroke="none" stroke-width="1" fill="none" fill-rule="evenodd">
        <g id="icon" transform="translate(-26.000000, -214.000000)" fill="#000000">
            <path d="M45.4444444,214 C46.3035541,214 47,214.703553 47,215.571429 L47,216.357143 L50.8888889,216.357143 C52.6071081,216.357143 54,217.764248 54,219.5 L54,232.857143 C54,234.592895 52.6071081,236 50.8888889,236 L29.1111111,236 C27.3928919,236 26,234.592895 26,232.857143 L26,219.5 C26,217.764248 27.3928919,216.357143 29.1111111,216.357143 L33,216.357143 L33,215.571429 C33,214.703553 33.6964459,214 34.5555556,214 L45.4444444,214 Z M39.9995401,221 L39.7822037,221.004625 C37.1161997,221.118315 35,223.313789 35,226.000454 C35,228.758824 37.2413317,231 39.9995401,231 L39.9995401,231 L40.21619,230.995392 C42.874209,230.882104 45,228.694187 45,226.000454 L45,226.000454 L44.995373,225.783724 C44.8816295,223.124771 42.6851641,221 39.9995401,221 L39.9995401,221 Z M50,218 L49,218 C48.4477153,218 48,218.447715 48,219 C48,219.552285 48.4477153,220 49,220 L49,220 L50,220 C50.5522847,220 51,219.552285 51,219 C51,218.447715 50.5522847,218 50,218 L50,218 Z" id="paizhao"></path>
        </g>
    </g>
</svg>