<?xml version="1.0" encoding="UTF-8"?>
<svg width="16px" height="14px" viewBox="0 0 16 14" version="1.1" xmlns="http://www.w3.org/2000/svg" xmlns:xlink="http://www.w3.org/1999/xlink">
    <!-- Generator: Sketch 60.1 (88133) - https://sketch.com -->
    <title>pinglun</title>
    <desc>Created with Sketch.</desc>
    <g id="页面-1" stroke="none" stroke-width="1" fill="none" fill-rule="evenodd">
        <g id="icon" transform="translate(-103.000000, -31.000000)" fill="#000000" fill-rule="nonzero">
            <path d="M117.222222,31 C118.204062,31 119,31.7837905 119,32.7506451 L119,41.5038705 C119,42.4707251 118.204062,43.2545156 117.222222,43.2545156 L110.317747,43.2545156 C110.181802,43.2545156 110.047669,43.2852211 109.925664,43.3442702 L106.646875,44.931169 C106.309739,45.0943391 105.902111,44.9574832 105.736412,44.6254929 C105.690527,44.5335588 105.666667,44.4324855 105.666667,44.3300474 L105.666667,43.4295801 C105.666667,43.3328947 105.587073,43.2545156 105.488889,43.2545156 L104.333333,43.2545156 C103.596954,43.2545156 103,42.6666727 103,41.9415318 L103,32.7506451 C103,31.7837905 103.795938,31 104.777778,31 L117.222222,31 Z M117.222222,32 L104.777778,32 C104.38089,32 104.05808,32.2853139 104.007035,32.6495163 L104,32.7506451 L104,41.9415318 C104,42.0897431 104.111647,42.2182129 104.265175,42.2480145 L104.333333,42.2545156 L105.488889,42.2545156 C106.095503,42.2545156 106.599872,42.7138517 106.660548,43.3088645 L106.666667,43.4295801 L106.666,43.811 L109.490016,42.4441527 C109.69636,42.3442846 109.9188,42.2828377 110.146323,42.2622537 L110.317747,42.2545156 L117.222222,42.2545156 C117.61911,42.2545156 117.94192,41.9692017 117.992965,41.6049993 L118,41.5038705 L118,32.7506451 C118,32.3738053 117.710264,32.0570881 117.328479,32.0069188 L117.222222,32 Z" id="pinglun"></path>
        </g>
    </g>
</svg>