<?xml version="1.0" encoding="UTF-8"?>
<svg width="14px" height="14px" viewBox="0 0 14 14" version="1.1" xmlns="http://www.w3.org/2000/svg" xmlns:xlink="http://www.w3.org/1999/xlink">
    <!-- Generator: Sketch 60.1 (88133) - https://sketch.com -->
    <title>qingkong</title>
    <desc>Created with Sketch.</desc>
    <g id="页面-1" stroke="none" stroke-width="1" fill="none" fill-rule="evenodd">
        <g id="icon" transform="translate(-84.000000, -180.000000)" fill="#000000">
            <path d="M91,180 C94.8659932,180 98,183.134007 98,187 C98,190.865993 94.8659932,194 91,194 C87.1340068,194 84,190.865993 84,187 C84,183.134007 87.1340068,180 91,180 Z M89.5857864,184.171573 C89.1952621,183.781049 88.5620972,183.781049 88.1715729,184.171573 C87.7810486,184.562097 87.7810486,185.195262 88.1715729,185.585786 L88.1715729,185.585786 L89.5857864,187 L88.1715729,188.414214 C87.7810486,188.804738 87.7810486,189.437903 88.1715729,189.828427 C88.5620972,190.218951 89.1952621,190.218951 89.5857864,189.828427 L89.5857864,189.828427 L91,188.414214 L92.4142136,189.828427 C92.8047379,190.218951 93.4379028,190.218951 93.8284271,189.828427 C94.2189514,189.437903 94.2189514,188.804738 93.8284271,188.414214 L93.8284271,188.414214 L92.4142136,187 L93.8284271,185.585786 C94.2189514,185.195262 94.2189514,184.562097 93.8284271,184.171573 C93.4379028,183.781049 92.8047379,183.781049 92.4142136,184.171573 L92.4142136,184.171573 L91,185.585786 Z" id="qingkong"></path>
        </g>
    </g>
</svg>