<?xml version="1.0" encoding="UTF-8"?>
<svg width="32px" height="28px" viewBox="0 0 32 28" version="1.1" xmlns="http://www.w3.org/2000/svg" xmlns:xlink="http://www.w3.org/1999/xlink">
    <!-- Generator: Sketch 60.1 (88133) - https://sketch.com -->
    <title>qukuan</title>
    <desc>Created with Sketch.</desc>
    <g id="页面-1" stroke="none" stroke-width="1" fill="none" fill-rule="evenodd">
        <g id="icon" transform="translate(-76.000000, -283.000000)" fill="#000000" fill-rule="nonzero">
            <path d="M101,297 C104.865993,297 108,300.134007 108,304 C108,307.865993 104.865993,311 101,311 C97.1340068,311 94,307.865993 94,304 C94,300.134007 97.1340068,297 101,297 Z M87.8,306.4 C87.9298221,306.573096 88,306.78363 88,307 L88,307 L92.5122698,307.000432 C92.764095,307.712795 93.1030609,308.38399 93.5163591,309.00121 L88,309 L88,309 C88,309.552285 87.5522847,310 87,310 C86.7836298,310 86.5730962,309.929822 86.4,309.8 L85.0666667,308.8 C84.6248389,308.468629 84.5352958,307.841828 84.8666667,307.4 C84.9235209,307.324194 84.990861,307.256854 85.0666667,307.2 L86.4,306.2 C86.8418278,305.868629 87.4686292,305.958172 87.8,306.4 Z M90,283 C90.2163702,283 90.4269038,283.070178 90.6,283.2 L91.9333333,284.2 C92.3751611,284.531371 92.4647042,285.158172 92.1333333,285.6 C92.0764791,285.675806 92.009139,285.743146 91.9333333,285.8 L90.6,286.8 C90.1581722,287.131371 89.5313708,287.041828 89.2,286.6 C89.0961423,286.461523 89.0304569,286.299086 89.0083371,286.128869 L89,286 L79.3944435,286.000989 L79.0890744,286.010828 C78.7835937,286.028904 78.6402171,286.071151 78.4947532,286.148946 C78.3430957,286.230053 78.2300532,286.343096 78.1489459,286.494753 C78.0489238,286.681778 78.0076643,286.865353 78.0009892,287.394444 L78.0009892,305.605556 L78.0108282,305.910926 C78.0289037,306.216406 78.0711509,306.359783 78.1489459,306.505247 C78.2300532,306.656904 78.3430957,306.769947 78.4947532,306.851054 C78.6817782,306.951076 78.8653529,306.992336 79.3944435,306.999011 L82,306.999726 C82.5523291,306.999877 83,307.447671 83,308 C83,308.552285 82.5522847,309 82,309 L79.5638852,309 C78.6001039,309 78.0866362,308.900845 77.5515554,308.61468 C77.051361,308.347174 76.6528264,307.948639 76.3853195,307.448445 C76.1230022,306.957954 76.0178245,306.485624 76.0021166,305.667952 L76,305.436115 L76,287.563885 C76,286.600104 76.0991552,286.086636 76.3853195,285.551555 C76.6528264,285.051361 77.051361,284.652826 77.5515554,284.38532 C78.0420461,284.123002 78.5143758,284.017825 79.3320483,284.002117 L79.5638852,284 L89,284 L89,284 C89,283.447715 89.4477153,283 90,283 Z M101,299 C98.2385763,299 96,301.238576 96,304 C96,306.761424 98.2385763,309 101,309 C103.761424,309 106,306.761424 106,304 C106,301.238576 103.761424,299 101,299 Z M103,303 C103.552285,303 104,303.447715 104,304 C104,304.552285 103.552285,305 103,305 L99,305 C98.4477153,305 98,304.552285 98,304 C98,303.447715 98.4477153,303 99,303 L103,303 Z M92.8047732,290.006527 C92.9215706,289.989121 93.038368,290.006527 93.1551654,290.058745 C93.2719628,290.110962 93.3946001,290.177685 93.5230772,290.258912 C93.8150708,290.444575 93.9727473,290.63894 93.9961068,290.842008 C94.0194662,291.045077 93.937708,291.309066 93.7508322,291.633975 L93.7508322,291.633975 L91.6484788,295.097741 L92.9974889,295.097741 L93.1326402,295.102714 C93.6966048,295.145814 93.9785871,295.469066 93.9785871,296.072469 C93.9785871,296.710683 93.6515544,297.029791 92.9974889,297.029791 L92.9974889,297.029791 L90.5272237,297.029791 L90.5272237,297.91749 L92.9974889,297.91749 L93.1326402,297.922463 C93.6966048,297.965563 93.9785871,298.288815 93.9785871,298.892218 C93.9785871,299.530432 93.6515544,299.84954 92.9974889,299.84954 L92.9974889,299.84954 L90.5272237,299.84954 L90.5272237,301.868619 L90.5242125,302.031255 C90.5101603,302.39424 90.4469255,302.641729 90.334508,302.773724 C90.2060308,302.924575 89.9257171,303 89.4935666,303 C89.1198149,303 88.8511809,302.924575 88.6876645,302.773724 C88.5241482,302.622873 88.44239,302.321172 88.44239,301.868619 L88.44239,301.868619 L88.44239,299.84954 L86.007164,299.84954 L85.8720127,299.844655 C85.3080481,299.802325 85.0260658,299.484846 85.0260658,298.892218 C85.0260658,298.242399 85.3414188,297.91749 85.9721248,297.91749 L85.9721248,297.91749 L88.44239,297.91749 L88.44239,297.029791 L86.007164,297.029791 L85.8720127,297.024906 C85.3080481,296.982576 85.0260658,296.665097 85.0260658,296.072469 C85.0260658,295.42265 85.3414188,295.097741 85.9721248,295.097741 L85.9721248,295.097741 L87.3561741,295.097741 L86.8262058,294.238326 L86.8262058,294.238326 L86.2874778,293.365858 C85.9254058,292.779861 85.5691737,292.202566 85.2187815,291.633975 C85.0319056,291.332273 84.9647471,291.065384 85.017306,290.833305 C85.0698648,290.601227 85.2129416,290.403961 85.4465364,290.241506 C85.7151705,290.055844 85.963365,289.980418 86.1911199,290.01523 C86.4188749,290.050042 86.63787,290.241506 86.8481053,290.589623 L86.8481053,290.589623 L89.5110863,295.010711 L90.1593119,293.916318 L90.1593119,293.916318 L91.4557631,291.736234 L91.4557631,291.736234 L92.1039887,290.641841 C92.2324659,290.432971 92.3521832,290.279219 92.4631408,290.180586 C92.5740983,290.081953 92.6879758,290.023933 92.8047732,290.006527 Z M99.4361148,284 C100.399896,284 100.913364,284.099155 101.448445,284.38532 C101.948639,284.652826 102.347174,285.051361 102.61468,285.551555 C102.876998,286.042046 102.982175,286.514376 102.997883,287.332048 L103,287.563885 L103.000912,295.223223 C102.35741,295.077134 101.687713,295 101,295 L100.999011,287.394444 L100.989172,287.089074 C100.971096,286.783594 100.928849,286.640217 100.851054,286.494753 C100.769947,286.343096 100.656904,286.230053 100.505247,286.148946 C100.318222,286.048924 100.134647,286.007664 99.6055565,286.000989 L96,286.000215 C95.4476805,286.000096 95,285.552319 95,285 C95,284.447715 95.4477153,284 96,284 L99.4361148,284 Z" id="qukuan"></path>
        </g>
    </g>
</svg>