<?xml version="1.0" encoding="UTF-8"?>
<svg width="18px" height="10px" viewBox="0 0 18 10" version="1.1" xmlns="http://www.w3.org/2000/svg" xmlns:xlink="http://www.w3.org/1999/xlink">
    <!-- Generator: Sketch 60.1 (88133) - https://sketch.com -->
    <title>xianshi</title>
    <desc>Created with Sketch.</desc>
    <g id="页面-1" stroke="none" stroke-width="1" fill="none" fill-rule="evenodd">
        <g id="icon" transform="translate(-114.000000, -182.000000)" fill="#000000" fill-rule="nonzero">
            <path d="M122.99961,182 C117.118284,182 114,187.294256 114,187.294256 C114,187.294256 117.366952,192 122.99961,192 C128.632678,192 132,187.294256 132,187.294256 C132,187.294256 129.233653,182 122.99961,182 Z M123.005133,190.012313 C121.211797,190.012313 119.757936,188.66564 119.757936,187.004697 C119.757936,185.343773 121.211797,183.997081 123.005133,183.997081 C124.798468,183.997081 126.252329,185.343773 126.252329,187.004697 C126.252329,188.66564 124.798448,190.012313 123.005133,190.012313 Z M123,185.778288 C122.214845,185.778288 121.578373,186.377577 121.578373,187.116619 C121.578373,187.855661 122.214845,188.45495 123,188.45495 C123.785155,188.45495 124.421627,187.855661 124.421627,187.116619 C124.421627,186.377577 123.785155,185.778288 123,185.778288 Z" id="xianshi"></path>
        </g>
    </g>
</svg>