<?xml version="1.0" encoding="UTF-8"?>
<svg width="20px" height="22px" viewBox="0 0 20 22" version="1.1" xmlns="http://www.w3.org/2000/svg" xmlns:xlink="http://www.w3.org/1999/xlink">
    <!-- Generator: Sketch 60.1 (88133) - https://sketch.com -->
    <title>xiaoxi</title>
    <desc>Created with Sketch.</desc>
    <g id="页面-1" stroke="none" stroke-width="1" fill="none" fill-rule="evenodd">
        <g id="icon" transform="translate(-26.000000, -145.000000)" fill="#000000">
            <path d="M37.4899362,145.395185 L44.5100638,149.407224 C45.4320395,149.934138 46,150.907915 46,151.961742 L46,159.985819 C46,161.039647 45.4320395,162.013424 44.5100638,162.540338 L37.4899362,166.552376 C36.5679605,167.07929 35.4320395,167.07929 34.5100638,166.552376 L33.3166464,165.870332 C33.2155503,165.812555 32.1621537,166.071011 30.1564565,166.645698 L29.0742439,166.959376 C28.5443158,167.114513 27.9886605,166.811708 27.833153,166.283043 C27.7956816,166.155655 27.7840745,166.022087 27.799012,165.890166 L27.8781261,165.161578 C28.0341126,163.651133 28.0579477,162.864959 27.9496316,162.803056 L27.4899362,162.540338 C26.5679605,162.013424 26,161.039647 26,159.985819 L26,151.961742 C26,150.907915 26.5679605,149.934138 27.4899362,149.407224 L34.5100638,145.395185 C35.4320395,144.868272 36.5679605,144.868272 37.4899362,145.395185 Z M41,157 L31,157 C30.4477153,157 30,157.447715 30,158 C30,158.552285 30.4477153,159 31,159 L31,159 L41,159 C41.5522847,159 42,158.552285 42,158 C42,157.447715 41.5522847,157 41,157 L41,157 Z M36,153 L31,153 C30.4477153,153 30,153.447715 30,154 C30,154.552285 30.4477153,155 31,155 L31,155 L36,155 C36.5522847,155 37,154.552285 37,154 C37,153.447715 36.5522847,153 36,153 L36,153 Z" id="xiaoxi"></path>
        </g>
    </g>
</svg>