<?xml version="1.0" encoding="UTF-8"?>
<svg width="18px" height="10px" viewBox="0 0 18 10" version="1.1" xmlns="http://www.w3.org/2000/svg" xmlns:xlink="http://www.w3.org/1999/xlink">
    <!-- Generator: Sketch 60.1 (88133) - https://sketch.com -->
    <title>yincang</title>
    <desc>Created with Sketch.</desc>
    <g id="页面-1" stroke="none" stroke-width="1" fill="none" fill-rule="evenodd">
        <g id="icon" transform="translate(-53.000000, -34.000000)" fill="#000000" fill-rule="nonzero">
            <path d="M67.4191108,38.4009785 L69.0490538,40.9044562 C69.3245333,41.3275567 69.2241919,41.9072244 68.8249342,42.1991691 C68.4256958,42.4910933 67.8787397,42.3847546 67.6032601,41.9616541 L65.7423328,39.1033794 C64.8359345,39.3995866 63.8728971,39.5895986 62.8782819,39.6603203 L62.8782819,43.0692445 C62.8782819,43.5832934 62.4850574,44 62,44 C61.5149426,44 61.1217181,43.5832934 61.1217181,43.0692445 L61.1217181,39.6603203 C60.1271029,39.5895986 59.1640655,39.3995866 58.2576672,39.1033794 L56.3967399,41.9616541 C56.1212603,42.3847546 55.5743042,42.4910933 55.1750658,42.1991691 C54.7758081,41.9072244 54.6754667,41.3275567 54.9509462,40.9044562 L56.5808892,38.4009785 C55.2025635,37.6843758 54.0283625,36.6934321 53.1758379,35.4894832 C52.8847145,35.0783097 52.9632047,34.4948917 53.3511694,34.1863476 C53.7391535,33.877824 54.2896678,33.9610055 54.5808105,34.3721585 C56.0719888,36.4780907 58.8791494,37.8298973 62,37.8298973 C65.1208506,37.8298973 67.9280112,36.4780907 69.4191895,34.3721585 C69.7103322,33.9610055 70.2608465,33.877824 70.6488306,34.1863476 C71.0367953,34.4948917 71.1152855,35.0783097 70.8241621,35.4894832 C69.9716375,36.6934526 68.7974365,37.6843758 67.4191108,38.4009785 Z" id="yincang"></path>
        </g>
    </g>
</svg>