<?xml version="1.0" encoding="UTF-8"?>
<svg width="12px" height="14px" viewBox="0 0 12 14" version="1.1" xmlns="http://www.w3.org/2000/svg" xmlns:xlink="http://www.w3.org/1999/xlink">
    <!-- Generator: Sketch 60.1 (88133) - https://sketch.com -->
    <title>yonghuming</title>
    <desc>Created with Sketch.</desc>
    <g id="页面-1" stroke="none" stroke-width="1" fill="none" fill-rule="evenodd">
        <g id="icon" transform="translate(-30.000000, -180.000000)" fill="#000000">
            <path d="M40.8336842,189.750066 L41.6384949,190.890244 C42.2644638,191.777344 42.0569626,193.0069 41.1750281,193.636536 C40.8438354,193.872982 40.4477473,194 40.0416113,194 L31.9582316,194 C30.8767302,194 30,193.118135 30,192.030299 C30,191.621784 30.126278,191.223376 30.361348,190.890244 L31.1655468,189.75031 C31.4649029,189.32598 32.0392415,189.201398 32.4875072,189.463559 L34.4924741,190.636131 C35.366985,191.147778 36.4317438,191.179756 37.3300357,190.732065 L37.5073689,190.636131 L39.5117741,189.463582 C39.9599624,189.201398 40.5342507,189.325857 40.8336842,189.750066 Z M37.0264005,180.287732 L38.9735995,181.4639 C39.6087383,181.847544 40,182.556546 40,183.323832 L40,185.676168 C40,186.443454 39.6087383,187.152456 38.9735995,187.5361 L37.0264005,188.712268 C36.3912617,189.095911 35.6087383,189.095911 34.9735995,188.712268 L33.0264005,187.5361 C32.3912617,187.152456 32,186.443454 32,185.676168 L32,183.323832 C32,182.556546 32.3912617,181.847544 33.0264005,181.4639 L34.9735995,180.287732 C35.6087383,179.904089 36.3912617,179.904089 37.0264005,180.287732 Z M34.5,183 C34.2545401,183 34.0503916,183.176875 34.0080557,183.410124 L34,183.5 L34,185.5 C34,185.776142 34.2238576,186 34.5,186 C34.7454599,186 34.9496084,185.823125 34.9919443,185.589876 L35,185.5 L35,183.5 C35,183.223858 34.7761424,183 34.5,183 Z M37.5,183 C37.2545401,183 37.0503916,183.176875 37.0080557,183.410124 L37,183.5 L37,185.5 C37,185.776142 37.2238576,186 37.5,186 C37.7454599,186 37.9496084,185.823125 37.9919443,185.589876 L38,185.5 L38,183.5 C38,183.223858 37.7761424,183 37.5,183 Z" id="yonghuming"></path>
        </g>
    </g>
</svg>