<?xml version="1.0" encoding="UTF-8"?>
<svg width="36px" height="24px" viewBox="0 0 36 24" version="1.1" xmlns="http://www.w3.org/2000/svg" xmlns:xlink="http://www.w3.org/1999/xlink">
    <!-- Generator: Sketch 60.1 (88133) - https://sketch.com -->
    <title>yue</title>
    <desc>Created with Sketch.</desc>
    <g id="页面-1" stroke="none" stroke-width="1" fill="none" fill-rule="evenodd">
        <g id="icon" transform="translate(-26.000000, -251.000000)" fill="#000000" fill-rule="nonzero">
            <path d="M28,268 L28.000802,272.564801 L28.0067661,272.777137 C28.0096228,272.838386 28.0132812,272.890363 28.0175407,272.933838 L28.022,272.977166 L28.0663319,272.982625 C28.1532886,272.991143 28.2742561,272.997257 28.4353989,272.999362 L36,272.999 L36,275 L28.5638852,275 C27.6723665,275 27.3490802,274.907182 27.0231543,274.732889 C26.6972284,274.558596 26.4414398,274.302829 26.2671327,273.97693 C26.1062338,273.6761 26.014763,273.377519 26.0016426,272.632217 L26.001,268 L28,268 Z M62,268 L62,272.436325 C62,273.327771 61.9071744,273.65103 61.7328673,273.97693 C61.5585602,274.302829 61.3027716,274.558596 60.9768457,274.732889 C60.6509198,274.907182 60.3276335,275 59.4361148,275 L52,275 L52,273 L59.4361148,273.000164 C59.6631345,273.000164 59.8249722,272.993273 59.9336681,272.982625 L59.977,272.977166 L59.9824593,272.933838 C59.9909783,272.846888 59.9970929,272.72593 59.999198,272.564801 L59.999,268 L62,268 Z M47.6719702,256.006619 C47.8017451,255.987875 47.93152,256.006619 48.0612949,256.062848 C48.1910698,256.119078 48.3273334,256.190927 48.4700858,256.278396 C48.7945231,256.478323 48.9697192,256.687623 48.9956742,256.906294 C49.0216291,257.124965 48.9307867,257.409237 48.7231469,257.759111 L48.7231469,257.759111 L46.3871987,261.489014 L47.8860988,261.489014 L48.0266017,261.493679 C48.6596725,261.537219 48.9762079,261.885538 48.9762079,262.538635 C48.9762079,263.225887 48.6128382,263.569513 47.8860988,263.569513 L47.8860988,263.569513 L45.1413597,263.569513 L45.1413597,264.525418 L47.8860988,264.525418 L48.0266017,264.530083 C48.6596725,264.573623 48.9762079,264.921942 48.9762079,265.575039 C48.9762079,266.262291 48.6128382,266.605917 47.8860988,266.605917 L47.8860988,266.605917 L45.1413597,266.605917 L45.1413597,268.780132 L45.1380139,268.955264 C45.1224004,269.346138 45.0521394,269.612644 44.9272311,269.75478 C44.7844787,269.917221 44.473019,269.998442 43.9928518,269.998442 C43.5775722,269.998442 43.2790899,269.917221 43.097405,269.75478 C42.9157202,269.592339 42.8248777,269.267456 42.8248777,268.780132 L42.8248777,268.780132 L42.8248777,266.605917 L40.1190711,266.605917 L39.9785682,266.601335 C39.3454974,266.558573 39.028962,266.216474 39.028962,265.575039 C39.028962,264.875292 39.3793542,264.525418 40.0801386,264.525418 L40.0801386,264.525418 L42.8248777,264.525418 L42.8248777,263.569513 L40.1190711,263.569513 L39.9785682,263.564931 C39.3454974,263.522169 39.028962,263.18007 39.028962,262.538635 C39.028962,261.838888 39.3793542,261.489014 40.0801386,261.489014 L40.0801386,261.489014 L41.6179712,261.489014 L41.2264836,260.873612 C40.9640499,260.46126 40.6987323,260.044744 40.4305309,259.624063 C40.0282287,258.99304 39.6324152,258.37139 39.2430905,257.759111 C39.0354507,257.434228 38.9608301,257.146832 39.0192288,256.896922 C39.0776275,256.647013 39.2366018,256.434589 39.4961516,256.259652 C39.7946339,256.059725 40.0704055,255.978504 40.3234666,256.01599 C40.5765276,256.053477 40.8198556,256.259652 41.0534504,256.634517 L41.0534504,256.634517 L44.0123181,261.395298 L44.7325688,260.216817 L44.7325688,260.216817 L45.4528194,259.043022 C45.9329866,258.262054 46.4131537,257.477962 46.8933208,256.690747 C47.0360732,256.465828 47.1690925,256.300263 47.2923786,256.194051 C47.4156648,256.087839 47.5421953,256.025362 47.6719702,256.006619 Z M51.9831367,251.000164 L59.4361148,251.001968 C60.3276335,251.001968 60.6509198,251.094786 60.9768457,251.269079 C61.3027716,251.443372 61.5585602,251.699139 61.7328673,252.025038 C61.9071744,252.350938 62,252.674197 62,253.565643 L62,258.001 L60,258.001 L60,253.565643 C60,253.338642 59.993108,253.176817 59.9824593,253.06813 L59.977,253.023802 L59.8619772,253.01343 L59.5646011,253.002606 L52,253.002 L52,251.566017 C52,251.345519 51.9943217,251.15978 51.9831367,251.000164 Z M36.0167186,251.002234 C36.0084017,251.121597 36.0031559,251.255549 36.0010529,251.407686 L36,251.566017 L36,253.002 L28.4353989,253.002606 L28.2230456,253.00857 C28.1617913,253.011426 28.1098103,253.015084 28.0663319,253.019343 L28.022,253.023802 L28.0175407,253.06813 C28.0090217,253.15508 28.0029071,253.276038 28.000802,253.437167 L28,258.001 L26,258.001 L26,253.565643 C26,252.674197 26.0928256,252.350938 26.2671327,252.025038 C26.4414398,251.699139 26.6972284,251.443372 27.0231543,251.269079 C27.324009,251.108193 27.6226145,251.01673 28.3679772,251.00361 L36.0167186,251.002234 Z" id="yue"></path>
        </g>
    </g>
</svg>