<?xml version="1.0" encoding="UTF-8"?>
<svg width="28px" height="32px" viewBox="0 0 28 32" version="1.1" xmlns="http://www.w3.org/2000/svg" xmlns:xlink="http://www.w3.org/1999/xlink">
    <!-- Generator: Sketch 60.1 (88133) - https://sketch.com -->
    <title>zijinmingxi</title>
    <desc>Created with Sketch.</desc>
    <g id="页面-1" stroke="none" stroke-width="1" fill="none" fill-rule="evenodd">
        <g id="icon" transform="translate(-78.000000, -323.000000)" fill="#000000" fill-rule="nonzero">
            <path d="M93.000877,323 C94.5985579,323 95.9045379,324.24892 95.9957843,325.823727 L96.000877,326 L98,326 C99.3062521,326 100.417514,326.83485 100.829326,328.000089 L101,328 C103.688755,328 105.881818,330.122307 105.99538,332.78311 L106,333 L106,350 C106,352.688755 103.877693,354.881818 101.21689,354.99538 L101,355 L83,355 C80.3112453,355 78.1181819,352.877693 78.0046195,350.21689 L78,350 L78,333 C78,330.311245 80.1223067,328.118182 82.7831104,328.00462 L83,328 L83.1706743,328.000089 C83.5824856,326.83485 84.6937479,326 86,326 L87.9956307,326 C87.9956307,324.343146 89.3387764,323 90.9956307,323 L93.000877,323 Z M101,330 C101,331.656854 99.6568542,333 98,333 L86,333 C84.4023191,333 83.0963391,331.75108 83.0050927,330.176273 L83,330 C81.4023191,330 80.0963391,331.24892 80.0050927,332.823727 L80,333 L80,350 C80,351.597681 81.24892,352.903661 82.8237272,352.994907 L83,353 L101,353 C102.597681,353 103.903661,351.75108 103.994907,350.176273 L104,350 L104,333 C104,331.402319 102.75108,330.096339 101.176273,330.005093 L101,330 Z M99,347 C99.5522847,347 100,347.447715 100,348 C100,348.552285 99.5522847,349 99,349 L85,349 C84.4477153,349 84,348.552285 84,348 C84,347.447715 84.4477153,347 85,347 L99,347 Z M99,342 C99.5522847,342 100,342.447715 100,343 C100,343.552285 99.5522847,344 99,344 L85,344 C84.4477153,344 84,343.552285 84,343 C84,342.447715 84.4477153,342 85,342 L99,342 Z M99,337 C99.5522847,337 100,337.447715 100,338 C100,338.552285 99.5522847,339 99,339 L85,339 C84.4477153,339 84,338.552285 84,338 C84,337.447715 84.4477153,337 85,337 L99,337 Z M93.000877,325 L90.9956307,325 C90.4827948,325 90.0601235,325.38604 90.0023584,325.883379 L89.9956307,326 L89.9956307,328 L86,328 C85.4871642,328 85.0644928,328.38604 85.0067277,328.883379 L85,329 L85,330 C85,330.512836 85.3860402,330.935507 85.8833789,330.993272 L86,331 L98,331 C98.5128358,331 98.9355072,330.61396 98.9932723,330.116621 L99,330 L99,329 C99,328.487164 98.6139598,328.064493 98.1166211,328.006728 L98,328 L94.0578244,328 L93.9991331,325.939416 C93.9708919,325.452005 93.5914336,325.059779 93.1129415,325.006234 L93.000877,325 Z" id="zijinmingxi"></path>
        </g>
    </g>
</svg>