<?xml version="1.0" encoding="UTF-8"?>
<svg width="18px" height="18px" viewBox="0 0 18 18" version="1.1" xmlns="http://www.w3.org/2000/svg" xmlns:xlink="http://www.w3.org/1999/xlink">
    <!-- Generator: Sketch 60.1 (88133) - https://sketch.com -->
    <title>zj_xinwen</title>
    <desc>Created with Sketch.</desc>
    <g id="页面-1" stroke="none" stroke-width="1" fill="none" fill-rule="evenodd">
        <g id="icon" transform="translate(-367.000000, -186.000000)" fill="#000000">
            <path d="M381,186 C382.104569,186 383,186.895431 383,188 L383,202 L383.116621,201.993272 C383.575703,201.939951 383.939951,201.575703 383.993272,201.116621 L384,201 L384.001078,190.268188 C384.598285,190.614151 385,191.260163 385,192 L385,202 C385,203.054362 384.184122,203.918165 383.149262,203.994514 L383,204 L369,204 C367.895431,204 367,203.104569 367,202 L367,188 C367,186.895431 367.895431,186 369,186 L381,186 Z M379.5,199 L370.5,199 C370.223858,199 370,199.223858 370,199.5 C370,199.776142 370.223858,200 370.5,200 L370.5,200 L379.5,200 C379.776142,200 380,199.776142 380,199.5 C380,199.223858 379.776142,199 379.5,199 L379.5,199 Z M379.5,196 L370.5,196 C370.223858,196 370,196.223858 370,196.5 C370,196.776142 370.223858,197 370.5,197 L370.5,197 L379.5,197 C379.776142,197 380,196.776142 380,196.5 C380,196.223858 379.776142,196 379.5,196 L379.5,196 Z M373,190 L371,190 C370.447715,190 370,190.447715 370,191 L370,191 L370,193 C370,193.552285 370.447715,194 371,194 L371,194 L373,194 C373.552285,194 374,193.552285 374,193 L374,193 L374,191 C374,190.447715 373.552285,190 373,190 L373,190 Z M379.5,193 L376.5,193 C376.223858,193 376,193.223858 376,193.5 C376,193.776142 376.223858,194 376.5,194 L376.5,194 L379.5,194 C379.776142,194 380,193.776142 380,193.5 C380,193.223858 379.776142,193 379.5,193 L379.5,193 Z M379.5,190 L376.5,190 C376.223858,190 376,190.223858 376,190.5 C376,190.776142 376.223858,191 376.5,191 L376.5,191 L379.5,191 C379.776142,191 380,190.776142 380,190.5 C380,190.223858 379.776142,190 379.5,190 L379.5,190 Z" id="zj_xinwen"></path>
        </g>
    </g>
</svg>