<?xml version="1.0" encoding="UTF-8"?>
<svg width="18px" height="18px" viewBox="0 0 18 18" version="1.1" xmlns="http://www.w3.org/2000/svg" xmlns:xlink="http://www.w3.org/1999/xlink">
    <!-- Generator: Sketch 60.1 (88133) - https://sketch.com -->
    <title>bianji</title>
    <desc>Created with Sketch.</desc>
    <g id="页面-1" stroke="none" stroke-width="1" fill="none" fill-rule="evenodd">
        <g id="icon" transform="translate(-193.000000, -29.000000)" fill="#000000" fill-rule="nonzero">
            <path d="M199.999747,30.9970594 C200.552012,30.9970594 200.999711,31.444857 200.999711,31.9972432 C200.999711,32.5101733 200.613684,32.9329223 200.116364,32.990698 L199.999747,32.997427 L197.999819,32.997427 C196.402196,32.997427 195.096263,34.2465765 195.00502,35.8216732 L194.999928,35.9979784 L194.999928,41.9990811 C194.999928,43.5970556 196.248802,44.9032756 197.823553,44.9945388 L197.999819,44.9996324 L203.999602,44.9996324 C205.597225,44.9996324 206.903158,43.7504829 206.994401,42.1753863 L206.999493,41.9990811 L206.999493,39.9987135 C206.999493,39.4463273 207.447193,38.9985297 207.999457,38.9985297 C208.512275,38.9985297 208.934931,39.3846409 208.992694,39.8820709 L208.999421,39.9987135 L208.999421,41.9990811 C208.999421,44.6883299 206.877191,46.8817964 204.216484,46.9953796 L203.999602,47 L197.999819,47 C195.311162,47 193.118178,44.8773032 193.004619,42.2160106 L193,41.9990811 L193,35.9979784 C193,33.3087295 195.12223,31.115263 197.782937,31.0016798 L197.999819,30.9970594 L199.999747,30.9970594 Z M210.122601,29.8788411 C211.294132,31.0503716 211.293923,32.9500068 210.122134,34.1217949 L204.148537,40.0953926 C203.892332,40.3515975 203.571366,40.5334198 203.219914,40.6214434 L199.715061,41.4992574 C199.179257,41.6334533 198.636209,41.307909 198.502131,40.7721339 C198.462228,40.6126813 198.462247,40.4458425 198.502185,40.2863811 L199.379999,36.7815283 C199.468022,36.4300763 199.649845,36.1091103 199.90605,35.8529054 L205.879647,29.8793078 C207.051435,28.7075196 208.951071,28.7073107 210.122601,29.8788411 Z M207.381045,31.2157485 L207.29381,31.2934702 L201.320212,37.2670678 L200.848067,39.1531505 L202.734374,38.6812302 L208.707972,32.7076326 C209.098568,32.3170365 209.098638,31.6838248 208.708128,31.2933146 C208.345511,30.930698 207.773626,30.9048569 207.381045,31.2157485 Z" id="bianji"></path>
        </g>
    </g>
</svg>