<?xml version="1.0" encoding="UTF-8"?>
<svg width="26px" height="26px" viewBox="0 0 26 26" version="1.1" xmlns="http://www.w3.org/2000/svg" xmlns:xlink="http://www.w3.org/1999/xlink">
    <!-- Generator: Sketch 60.1 (88133) - https://sketch.com -->
    <title>biaoqing</title>
    <desc>Created with Sketch.</desc>
    <g id="页面-1" stroke="none" stroke-width="1" fill="none" fill-rule="evenodd">
        <g id="icon" transform="translate(-26.000000, -104.000000)" fill="#000000">
            <path d="M39,104 C46.1797017,104 52,109.820298 52,117 C52,124.179702 46.1797017,130 39,130 C31.8202983,130 26,124.179702 26,117 C26,109.820298 31.8202983,104 39,104 Z M45,119.684239 C45,118.106969 42.3142337,119.750476 39.0004968,119.750476 C35.6857663,119.750476 33,118.110073 33,119.684239 C33,121.26151 35.68676,124 39.0004968,124 C42.3142337,124 45,121.26151 45,119.684239 Z M44.0009229,112.001 C42.8961698,112.001 42,112.896247 42,114.001 C42,115.105753 42.8961698,116.001 44.0009229,116.001 C45.105676,116.001 46,115.105753 46,114.001 C46,112.896247 45.105676,112.001 44.0009229,112.001 Z M34,112 C32.8952469,112 32,112.895247 32,114 C32,115.105675 32.894324,116.000922 34,116 C35.1047531,116 36,115.104753 36,114 C36,112.895247 35.1047531,112 34,112 Z" id="biaoqing"></path>
        </g>
    </g>
</svg>