<?xml version="1.0" encoding="UTF-8"?>
<svg width="32px" height="28px" viewBox="0 0 32 28" version="1.1" xmlns="http://www.w3.org/2000/svg" xmlns:xlink="http://www.w3.org/1999/xlink">
    <!-- Generator: Sketch 60.1 (88133) - https://sketch.com -->
    <title>caipiaozhudanjilu</title>
    <desc>Created with Sketch.</desc>
    <g id="页面-1" stroke="none" stroke-width="1" fill="none" fill-rule="evenodd">
        <g id="icon" transform="translate(-120.000000, -325.000000)" fill="#000000" fill-rule="nonzero">
            <path d="M145.87223,325 C147.648828,325 148.519805,325.168194 149.42529,325.652452 C150.251411,326.094266 150.905734,326.748589 151.347548,327.57471 C151.803321,328.426931 151.979119,329.248585 151.998224,330.823463 L152,331.12777 L152,335.084751 C152,335.637035 151.552285,336.084751 151,336.084751 C150.487164,336.084751 150.064493,335.69871 150.006728,335.201372 L150,335.084751 L150,331.12777 L149.995367,330.643799 C149.971827,329.521321 149.855791,329.026259 149.583921,328.517907 C149.328507,328.040324 148.959676,327.671493 148.482093,327.416079 C147.973741,327.144209 147.478679,327.028173 146.356201,327.004633 L145.87223,327 L126.12777,327 C124.653102,327 124.094039,327.10796 123.517907,327.416079 C123.040324,327.671493 122.671493,328.040324 122.416079,328.517907 C122.144209,329.026259 122.028173,329.521321 122.004633,330.643799 L122,331.12777 L122,346.87223 C122,348.346898 122.10796,348.905961 122.416079,349.482093 C122.671493,349.959676 123.040324,350.328507 123.517907,350.583921 C124.026259,350.855791 124.521321,350.971827 125.643799,350.995367 L126.12777,351 L133.001224,351 C133.553508,351 134.001224,351.447715 134.001224,352 C134.001224,352.512836 133.615183,352.935507 133.117845,352.993272 L133.001224,353 L126.12777,353 C124.351172,353 123.480195,352.831806 122.57471,352.347548 C121.748589,351.905734 121.094266,351.251411 120.652452,350.42529 C120.196679,349.573069 120.020881,348.751415 120.001776,347.176537 L120,331.12777 C120,329.351172 120.168194,328.480195 120.652452,327.57471 C121.094266,326.748589 121.748589,326.094266 122.57471,325.652452 C123.426931,325.196679 124.248585,325.020881 125.823463,325.001776 L145.87223,325 Z M148.389553,337.18737 C148.920246,337.348302 149.400657,337.6318 150.112917,338.34406 L150.72045,338.951593 C151.432709,339.663852 151.716208,340.144264 151.87714,340.674957 C152.038072,341.20565 152.038163,341.748351 151.877409,342.27899 C151.716655,342.809629 151.433318,343.289945 150.721298,344.001966 L143.138984,351.581655 C142.975316,351.739915 142.891041,351.809944 142.79349,351.880081 C142.663422,351.973597 142.534447,352.042607 142.384471,352.098933 L142.269847,352.138556 C142.168686,352.170257 142.043784,352.200833 141.822849,352.246537 L138.509578,352.909115 C137.426313,353.125594 136.372368,352.422866 136.155526,351.339528 C136.103689,351.080551 136.103644,350.813891 136.155394,350.554932 L136.84371,347.120045 C136.892073,346.897549 136.923333,346.792521 136.965577,346.680039 C137.021903,346.530063 137.090913,346.401088 137.184429,346.27102 L137.257801,346.174462 C137.324369,346.091964 137.41131,345.997235 137.569746,345.836646 L145.062544,338.343212 C145.774564,337.631192 146.25488,337.347855 146.78552,337.187101 C147.316159,337.026347 147.85886,337.026438 148.389553,337.18737 Z M144.927,341.311 L138.828621,347.414449 L138.770754,347.676652 L138.116951,350.947559 L141.620392,350.243682 L141.650925,350.235338 L141.737238,350.15479 L147.755,344.137 L144.927,341.311 Z M134.005037,342 C134.557322,342 135.005037,342.447715 135.005037,343 C135.005037,343.552285 134.557322,344 134.005037,344 L127.002015,344 C126.44973,344 126.002015,343.552285 126.002015,343 C126.002015,342.447715 126.44973,342 127.002015,342 L134.005037,342 Z M147.366069,339.101533 C147.158968,339.164273 146.969876,339.280554 146.605506,339.631805 L146.341,339.896 L149.17,342.723 L149.306609,342.587277 L149.541304,342.343805 C149.809135,342.052391 149.907208,341.88253 149.962977,341.698441 C150.009127,341.546103 150.009103,341.407217 149.962902,341.254864 C149.900093,341.047741 149.783748,340.85861 149.432331,340.494079 L148.698703,339.758273 C148.247707,339.307277 148.039782,339.171396 147.809646,339.101608 C147.657293,339.055407 147.518407,339.055383 147.366069,339.101533 Z M138.00638,337 C138.558665,337 139.00638,337.447715 139.00638,338 C139.00638,338.552285 138.558665,339 138.00638,339 L127.002015,339 C126.44973,339 126.002015,338.552285 126.002015,338 C126.002015,337.447715 126.44973,337 127.002015,337 L138.00638,337 Z M144.002015,332 C144.5543,332 145.002015,332.447715 145.002015,333 C145.002015,333.552285 144.5543,334 144.002015,334 L127.002015,334 C126.44973,334 126.002015,333.552285 126.002015,333 C126.002015,332.447715 126.44973,332 127.002015,332 L144.002015,332 Z" id="caipiaozhudanjilu"></path>
        </g>
    </g>
</svg>