<?xml version="1.0" encoding="UTF-8"?>
<svg width="32px" height="28px" viewBox="0 0 32 28" version="1.1" xmlns="http://www.w3.org/2000/svg" xmlns:xlink="http://www.w3.org/1999/xlink">
    <!-- Generator: Sketch 60.1 (88133) - https://sketch.com -->
    <title>cunkuan</title>
    <desc>Created with Sketch.</desc>
    <g id="页面-1" stroke="none" stroke-width="1" fill="none" fill-rule="evenodd">
        <g id="icon" transform="translate(-28.000000, -283.000000)" fill="#000000" fill-rule="nonzero">
            <path d="M53,297 C56.8659932,297 60,300.134007 60,304 C60,307.865993 56.8659932,311 53,311 C49.1340068,311 46,307.865993 46,304 C46,300.134007 49.1340068,297 53,297 Z M39.8,306.4 C39.9298221,306.573096 40,306.78363 40,307 L40,307 L44.5122698,307.000432 C44.764095,307.712795 45.1030609,308.38399 45.5163591,309.00121 L40,309 L40,309 C40,309.552285 39.5522847,310 39,310 C38.7836298,310 38.5730962,309.929822 38.4,309.8 L37.0666667,308.8 C36.6248389,308.468629 36.5352958,307.841828 36.8666667,307.4 C36.9235209,307.324194 36.990861,307.256854 37.0666667,307.2 L38.4,306.2 C38.8418278,305.868629 39.4686292,305.958172 39.8,306.4 Z M42,283 C42.2163702,283 42.4269038,283.070178 42.6,283.2 L43.9333333,284.2 C44.3751611,284.531371 44.4647042,285.158172 44.1333333,285.6 C44.0764791,285.675806 44.009139,285.743146 43.9333333,285.8 L42.6,286.8 C42.1581722,287.131371 41.5313708,287.041828 41.2,286.6 C41.0961423,286.461523 41.0304569,286.299086 41.0083371,286.128869 L41,286 L31.3944435,286.000989 L31.0890744,286.010828 C30.7835937,286.028904 30.6402171,286.071151 30.4947532,286.148946 C30.3430957,286.230053 30.2300532,286.343096 30.1489459,286.494753 C30.0489238,286.681778 30.0076643,286.865353 30.0009892,287.394444 L30.0009892,305.605556 L30.0108282,305.910926 C30.0289037,306.216406 30.0711509,306.359783 30.1489459,306.505247 C30.2300532,306.656904 30.3430957,306.769947 30.4947532,306.851054 C30.6817782,306.951076 30.8653529,306.992336 31.3944435,306.999011 L34,306.999726 C34.5523291,306.999877 35,307.447671 35,308 C35,308.552285 34.5522847,309 34,309 L31.5638852,309 C30.6001039,309 30.0866362,308.900845 29.5515554,308.61468 C29.051361,308.347174 28.6528264,307.948639 28.3853195,307.448445 C28.1230022,306.957954 28.0178245,306.485624 28.0021166,305.667952 L28,305.436115 L28,287.563885 C28,286.600104 28.0991552,286.086636 28.3853195,285.551555 C28.6528264,285.051361 29.051361,284.652826 29.5515554,284.38532 C30.0420461,284.123002 30.5143758,284.017825 31.3320483,284.002117 L31.5638852,284 L41,284 L41,284 C41,283.447715 41.4477153,283 42,283 Z M53,299 C50.2385763,299 48,301.238576 48,304 C48,306.761424 50.2385763,309 53,309 C55.7614237,309 58,306.761424 58,304 C58,301.238576 55.7614237,299 53,299 Z M53,301 C53.5522847,301 54,301.447715 54,302 L54,303 L55,303 C55.5522847,303 56,303.447715 56,304 C56,304.552285 55.5522847,305 55,305 L54,305 L54,306 C54,306.552285 53.5522847,307 53,307 C52.4477153,307 52,306.552285 52,306 L52,305 L51,305 C50.4477153,305 50,304.552285 50,304 C50,303.447715 50.4477153,303 51,303 L52,303 L52,302 C52,301.447715 52.4477153,301 53,301 Z M44.8047732,290.006527 C44.9215706,289.989121 45.038368,290.006527 45.1551654,290.058745 C45.2719628,290.110962 45.3946001,290.177685 45.5230772,290.258912 C45.8150708,290.444575 45.9727473,290.63894 45.9961068,290.842008 C46.0194662,291.045077 45.937708,291.309066 45.7508322,291.633975 L45.7508322,291.633975 L43.6484788,295.097741 L44.9974889,295.097741 L45.1326402,295.102714 C45.6966048,295.145814 45.9785871,295.469066 45.9785871,296.072469 C45.9785871,296.710683 45.6515544,297.029791 44.9974889,297.029791 L44.9974889,297.029791 L42.5272237,297.029791 L42.5272237,297.91749 L44.9974889,297.91749 L45.1326402,297.922463 C45.6966048,297.965563 45.9785871,298.288815 45.9785871,298.892218 C45.9785871,299.530432 45.6515544,299.84954 44.9974889,299.84954 L44.9974889,299.84954 L42.5272237,299.84954 L42.5272237,301.868619 L42.5242125,302.031255 C42.5101603,302.39424 42.4469255,302.641729 42.334508,302.773724 C42.2060308,302.924575 41.9257171,303 41.4935666,303 C41.1198149,303 40.8511809,302.924575 40.6876645,302.773724 C40.5241482,302.622873 40.44239,302.321172 40.44239,301.868619 L40.44239,301.868619 L40.44239,299.84954 L38.007164,299.84954 L37.8720127,299.844655 C37.3080481,299.802325 37.0260658,299.484846 37.0260658,298.892218 C37.0260658,298.242399 37.3414188,297.91749 37.9721248,297.91749 L37.9721248,297.91749 L40.44239,297.91749 L40.44239,297.029791 L38.007164,297.029791 L37.8720127,297.024906 C37.3080481,296.982576 37.0260658,296.665097 37.0260658,296.072469 C37.0260658,295.42265 37.3414188,295.097741 37.9721248,295.097741 L37.9721248,295.097741 L39.3561741,295.097741 L38.8262058,294.238326 L38.8262058,294.238326 L38.2874778,293.365858 C37.9254058,292.779861 37.5691737,292.202566 37.2187815,291.633975 C37.0319056,291.332273 36.9647471,291.065384 37.017306,290.833305 C37.0698648,290.601227 37.2129416,290.403961 37.4465364,290.241506 C37.7151705,290.055844 37.963365,289.980418 38.1911199,290.01523 C38.4188749,290.050042 38.63787,290.241506 38.8481053,290.589623 L38.8481053,290.589623 L41.5110863,295.010711 L42.1593119,293.916318 L42.1593119,293.916318 L43.4557631,291.736234 L43.4557631,291.736234 L44.1039887,290.641841 C44.2324659,290.432971 44.3521832,290.279219 44.4631408,290.180586 C44.5740983,290.081953 44.6879758,290.023933 44.8047732,290.006527 Z M51.4361148,284 C52.3998961,284 52.9133638,284.099155 53.4484446,284.38532 C53.948639,284.652826 54.3471736,285.051361 54.6146805,285.551555 C54.8769978,286.042046 54.9821755,286.514376 54.9978834,287.332048 L55,287.563885 L55.0009121,295.223223 C54.35741,295.077134 53.6877129,295 53,295 L52.9990108,287.394444 L52.9891718,287.089074 C52.9710963,286.783594 52.9288491,286.640217 52.8510541,286.494753 C52.7699468,286.343096 52.6569043,286.230053 52.5052468,286.148946 C52.3182218,286.048924 52.1346471,286.007664 51.6055565,286.000989 L48,286.000215 C47.4476805,286.000096 47,285.552319 47,285 C47,284.447715 47.4477153,284 48,284 L51.4361148,284 Z" id="cunkuan"></path>
        </g>
    </g>
</svg>