<?xml version="1.0" encoding="UTF-8"?>
<svg width="24px" height="18px" viewBox="0 0 24 18" version="1.1" xmlns="http://www.w3.org/2000/svg" xmlns:xlink="http://www.w3.org/1999/xlink">
    <!-- Generator: Sketch 60.1 (88133) - https://sketch.com -->
    <title>fabupengyouquan</title>
    <desc>Created with Sketch.</desc>
    <g id="页面-1" stroke="none" stroke-width="1" fill="none" fill-rule="evenodd">
        <g id="icon" transform="translate(-29.000000, -76.000000)" fill="#000000">
            <path d="M46.9929175,76 C49.0606166,76 50.7618836,77.5688828 50.9712545,79.5811846 C50.3377437,79.6775234 49.7265259,79.948111 49.2139613,80.3926353 L49.0265231,80.5674845 L42.8564603,86.7421052 C41.0887781,88.5110931 39.6888798,90.6104508 38.7354378,92.9188341 L38.5507255,93.3832618 L38.314,94 L33,94 C30.790861,94 29,92.209139 29,90 L29,80 C29,77.790861 30.790861,76 33,76 L46.9929175,76 Z M49.3798455,83.0414447 L51.5004829,85.162765 L44.4316915,92.2338328 L41.3039565,93.9185402 C41.0608994,94.0494593 40.757766,93.95849 40.6268891,93.7153546 C40.5472288,93.5673664 40.5472288,93.3892429 40.6268891,93.2412547 L42.3110541,90.1125125 L49.3798455,83.0414447 Z M38.9964587,84 L33.9987123,84 C33.4464275,84 32.9987123,84.4477153 32.9987123,85 C32.9987123,85.5128358 33.3847525,85.9355072 33.8820911,85.9932723 L33.9987123,86 L38.9964587,86 C39.5487435,86 39.9964587,85.5522847 39.9964587,85 C39.9964587,84.4477153 39.5487435,84 38.9964587,84 Z M52.5608016,81.9807845 C53.1463995,82.566571 53.1463995,83.5163184 52.5608016,84.1021049 L52.207362,84.4556583 L50.0867246,82.3343379 L50.4401642,81.9807845 C51.025762,81.3949981 51.9752038,81.3949981 52.5608016,81.9807845 Z M42.995171,80 L33.9987123,80 C33.4464275,80 32.9987123,80.4477153 32.9987123,81 C32.9987123,81.5128358 33.3847525,81.9355072 33.8820911,81.9932723 L33.9987123,82 L42.995171,82 C43.5474557,82 43.995171,81.5522847 43.995171,81 C43.995171,80.4477153 43.5474557,80 42.995171,80 Z" id="fabupengyouquan"></path>
        </g>
    </g>
</svg>