<?xml version="1.0" encoding="UTF-8"?>
<svg width="20px" height="22px" viewBox="0 0 20 22" version="1.1" xmlns="http://www.w3.org/2000/svg" xmlns:xlink="http://www.w3.org/1999/xlink">
    <!-- Generator: Sketch 60.1 (88133) - https://sketch.com -->
    <title>faxian</title>
    <desc>Created with Sketch.</desc>
    <g id="页面-1" stroke="none" stroke-width="1" fill="none" fill-rule="evenodd">
        <g id="icon" transform="translate(-98.000000, -145.000000)" fill="#000000">
            <path d="M109.489936,145.39613 L116.510064,149.417754 C117.43204,149.945927 118,150.92203 118,151.978376 L118,160.021624 C118,161.07797 117.43204,162.054073 116.510064,162.582246 L109.489936,166.60387 C108.56796,167.132043 107.43204,167.132043 106.510064,166.60387 L99.4899362,162.582246 C98.5679605,162.054073 98,161.07797 98,160.021624 L98,151.978376 C98,150.92203 98.5679605,149.945927 99.4899362,149.417754 L106.510064,145.39613 C107.43204,144.867957 108.56796,144.867957 109.489936,145.39613 Z M113.105117,151.143165 C112.990848,150.891774 112.694423,150.780614 112.443032,150.894883 L112.443032,150.894883 L107.585617,153.102799 C106.485077,153.603044 105.603044,154.485077 105.102799,155.585617 L105.102799,155.585617 L102.894883,160.443032 C102.835127,160.574495 102.835127,160.725373 102.894883,160.856835 C103.009152,161.108226 103.305577,161.219386 103.556968,161.105117 L103.556968,161.105117 L108.414383,158.897201 C109.514923,158.396956 110.396956,157.514923 110.897201,156.414383 L110.897201,156.414383 L113.105117,151.556968 C113.164873,151.425505 113.164873,151.274627 113.105117,151.143165 Z M108,155 C108.552285,155 109,155.447715 109,156 C109,156.552285 108.552285,157 108,157 C107.447715,157 107,156.552285 107,156 C107,155.447715 107.447715,155 108,155 Z" id="faxian"></path>
        </g>
    </g>
</svg>