<?xml version="1.0" encoding="UTF-8"?>
<svg width="18px" height="18px" viewBox="0 0 18 18" version="1.1" xmlns="http://www.w3.org/2000/svg" xmlns:xlink="http://www.w3.org/1999/xlink">
    <!-- Generator: Sketch 60.1 (88133) - https://sketch.com -->
    <title>fenxiang_1</title>
    <desc>Created with Sketch.</desc>
    <g id="页面-1" stroke="none" stroke-width="1" fill="none" fill-rule="evenodd">
        <g id="icon" transform="translate(-94.000000, -409.000000)" fill="#000000">
            <path d="M111.366905,417.940434 C111.942641,417.357094 112.142897,416.502625 111.896529,415.708406 C111.648844,414.914188 110.996695,414.341803 110.196988,414.22404 L107.150989,413.768049 C106.767604,413.710536 106.431648,413.451731 106.249837,413.090224 L104.878346,410.215976 C104.531851,409.465576 103.811192,409 102.999629,409 C102.189382,409 101.471359,409.465576 101.110371,410.22693 L99.7507381,413.102548 C99.583419,413.464055 99.2448282,413.72286 98.849586,413.780373 L95.8035865,414.236364 C95.0038799,414.352758 94.3517304,414.926512 94.1040453,415.719361 C93.8563602,416.514949 94.0579337,417.369418 94.6336698,417.952758 L96.8483433,420.197109 C97.1302827,420.477824 97.264665,420.885888 97.1974738,421.295321 L96.6810241,424.451655 C96.5453243,425.27189 96.8602005,426.088018 97.5123501,426.579612 C97.8720204,426.860327 98.298882,427 98.7389182,427 C99.0643343,427 99.402925,426.917839 99.7164838,426.754888 L102.450242,425.258197 C102.798055,425.071967 103.214377,425.071967 103.563507,425.258197 L106.295948,426.720654 C107.003432,427.106809 107.846615,427.045188 108.500082,426.556333 C109.152231,426.066109 109.467108,425.258197 109.332725,424.428376 L108.814958,421.273412 C108.746449,420.874933 108.882149,420.454545 109.162771,420.17383 L111.366905,417.940434 Z" id="fenxiang_1"></path>
        </g>
    </g>
</svg>