<?xml version="1.0" encoding="UTF-8"?>
<svg width="24px" height="24px" viewBox="0 0 24 24" version="1.1" xmlns="http://www.w3.org/2000/svg" xmlns:xlink="http://www.w3.org/1999/xlink">
    <!-- Generator: Sketch 60.1 (88133) - https://sketch.com -->
    <title>fenxiang</title>
    <desc>Created with Sketch.</desc>
    <g id="页面-1" stroke="none" stroke-width="1" fill="none" fill-rule="evenodd">
        <g id="icon" transform="translate(-192.000000, -213.000000)" fill="#000000">
            <path d="M203,226 L203,234.671556 L202.994632,234.831078 C202.91277,236.043403 201.904747,237 200.672192,237 L200.672192,237 L194.327808,237 L194.168463,236.994633 C192.957408,236.912775 192,235.904794 192,234.671556 L192,234.671556 L192,228.32925 L192.005372,228.169724 C192.087294,226.957338 193.096026,226 194.327808,226 L194.327808,226 L203,226 Z M213.672999,226 L213.83234,226.005371 C215.043333,226.087291 216,227.096013 216,228.32925 L216,228.32925 L216,234.671556 L215.994632,234.831078 C215.912772,236.043403 214.904781,237 213.672999,237 L213.672999,237 L207.327808,237 L207.168463,236.994633 C205.957408,236.912775 205,235.904794 205,234.671556 L205,234.671556 L205,226 L213.672999,226 Z M200.672192,213 L200.831629,213.005372 C202.043333,213.087294 203,214.096026 203,215.327808 L203,215.327808 L203,224 L194.327808,224 L194.168463,223.994636 C192.957408,223.912835 192,222.90552 192,221.672192 L192,221.672192 L192,215.327808 L192.005372,215.168463 C192.087294,213.957408 193.096026,213 194.327808,213 L194.327808,213 L200.672192,213 Z M213.672999,213 L213.83234,213.005372 C215.043333,213.087294 216,214.096026 216,215.327808 L216,215.327808 L216,221.672192 L215.994632,221.831722 C215.912772,223.044074 214.904781,224 213.672999,224 L213.672999,224 L205,224 L205,215.327808 L205.005372,215.168463 C205.087294,213.957408 206.096026,213 207.327808,213 L207.327808,213 L213.672999,213 Z" id="fenxiang"></path>
        </g>
    </g>
</svg>