<?xml version="1.0" encoding="UTF-8"?>
<svg width="26px" height="26px" viewBox="0 0 26 26" version="1.1" xmlns="http://www.w3.org/2000/svg" xmlns:xlink="http://www.w3.org/1999/xlink">
    <!-- Generator: Sketch 60.1 (88133) - https://sketch.com -->
    <title>gengduo</title>
    <desc>Created with Sketch.</desc>
    <g id="页面-1" stroke="none" stroke-width="1" fill="none" fill-rule="evenodd">
        <g id="icon" transform="translate(-68.000000, -104.000000)" fill="#000000">
            <path d="M81,104 C88.1797017,104 94,109.820298 94,117 C94,124.179702 88.1797017,130 81,130 C73.8202983,130 68,124.179702 68,117 C68,109.820298 73.8202983,104 81,104 Z M81,110 C80.4477153,110 80,110.447715 80,111 L80,111 L80,116 L75,116 C74.4477153,116 74,116.447715 74,117 C74,117.552285 74.4477153,118 75,118 L75,118 L80,118 L80,123 C80,123.552285 80.4477153,124 81,124 C81.5522847,124 82,123.552285 82,123 L82,123 L82,118 L87,118 C87.5522847,118 88,117.552285 88,117 C88,116.447715 87.5522847,116 87,116 L87,116 L82,116 L82,111 C82,110.447715 81.5522847,110 81,110 Z" id="gengduo"></path>
        </g>
    </g>
</svg>