<?xml version="1.0" encoding="UTF-8"?>
<svg width="15px" height="3px" viewBox="0 0 15 3" version="1.1" xmlns="http://www.w3.org/2000/svg" xmlns:xlink="http://www.w3.org/1999/xlink">
    <!-- Generator: Sketch 60.1 (88133) - https://sketch.com -->
    <title>gongneng</title>
    <desc>Created with Sketch.</desc>
    <g id="页面-1" stroke="none" stroke-width="1" fill="none" fill-rule="evenodd">
        <g id="icon" transform="translate(-30.000000, -36.000000)" fill="#000000">
            <path d="M31.5,36 C32.3284271,36 33,36.6715729 33,37.5 C33,38.3284271 32.3284271,39 31.5,39 C30.6715729,39 30,38.3284271 30,37.5 C30,36.6715729 30.6715729,36 31.5,36 Z M37.5,36 C38.3284271,36 39,36.6715729 39,37.5 C39,38.3284271 38.3284271,39 37.5,39 C36.6715729,39 36,38.3284271 36,37.5 C36,36.6715729 36.6715729,36 37.5,36 Z M43.5,36 C44.3284271,36 45,36.6715729 45,37.5 C45,38.3284271 44.3284271,39 43.5,39 C42.6715729,39 42,38.3284271 42,37.5 C42,36.6715729 42.6715729,36 43.5,36 Z" id="gongneng"></path>
        </g>
    </g>
</svg>