<?xml version="1.0" encoding="UTF-8"?>
<svg width="16px" height="16px" viewBox="0 0 16 16" version="1.1" xmlns="http://www.w3.org/2000/svg" xmlns:xlink="http://www.w3.org/1999/xlink">
    <!-- Generator: Sketch 60.1 (88133) - https://sketch.com -->
    <title>guanbi</title>
    <desc>Created with Sketch.</desc>
    <g id="页面-1" stroke="none" stroke-width="1" fill="none" fill-rule="evenodd">
        <g id="icon" transform="translate(-219.000000, -31.000000)" fill="#000000" fill-rule="nonzero">
            <path d="M220.556888,31.2023077 L220.647769,31.2825639 L227,37.6345794 L233.352231,31.2825639 L233.443112,31.2023077 C233.821552,30.9080356 234.368748,30.9347953 234.716496,31.2825818 C235.064244,31.6303684 235.090987,32.1776129 234.79673,32.5560774 L234.716478,32.6469642 L228.36406,38.9987558 L234.717442,45.3530358 C235.094179,45.7297946 235.094187,46.3406494 234.71746,46.7174182 C234.369713,47.0652047 233.822516,47.0919644 233.444076,46.7976923 L233.353195,46.7174361 L227,40.3638969 L220.646805,46.7174361 L220.555924,46.7976923 C220.177484,47.0919644 219.630287,47.0652047 219.28254,46.7174182 C218.934792,46.3696316 218.908049,45.8223871 219.202306,45.4439226 L219.282558,45.3530358 L225.634976,38.9987558 L219.283522,32.6469642 C218.906785,32.2702054 218.906777,31.6593506 219.283504,31.2825818 C219.631252,30.9347953 220.178448,30.9080356 220.556888,31.2023077 Z" id="guanbi" transform="translate(227.000000, 39.000000) rotate(-360.000000) translate(-227.000000, -39.000000) "></path>
        </g>
    </g>
</svg>