<?xml version="1.0" encoding="UTF-8"?>
<svg width="26px" height="28px" viewBox="0 0 26 28" version="1.1" xmlns="http://www.w3.org/2000/svg" xmlns:xlink="http://www.w3.org/1999/xlink">
    <!-- Generator: Sketch 60.1 (88133) - https://sketch.com -->
    <title>hongbaosaolei</title>
    <desc>Created with Sketch.</desc>
    <g id="页面-1" stroke="none" stroke-width="1" fill="none" fill-rule="evenodd">
        <g id="icon" transform="translate(-150.000000, -211.000000)" fill="#000000">
            <path d="M172.353751,227.155318 C172.552348,227.137384 172.727965,227.282906 172.746003,227.480349 C172.825098,228.346101 172.499414,229.05416 171.800142,229.579759 L172.390217,230.005996 C172.837922,230.329383 172.938701,230.954476 172.615314,231.402181 C172.614232,231.403679 172.613146,231.405174 172.612056,231.406666 L172.493168,231.569209 C172.885541,232.283578 173.108555,233.103076 173.108555,233.974359 C173.108555,236.749944 170.845356,239 168.053558,239 C165.261761,239 162.998562,236.749944 162.998562,233.974359 C162.998562,231.198774 165.261761,228.948718 168.053558,228.948718 C168.373216,228.948718 168.685944,228.978216 168.989139,229.034624 L169.113238,228.865723 C169.437824,228.421561 170.060216,228.322985 170.506168,228.645106 L171.182512,229.132827 C171.820275,228.735735 172.088214,228.217275 172.026821,227.545292 C172.008783,227.347849 172.155154,227.173251 172.353751,227.155318 Z M166.219985,211 C168.362181,211 170.111064,212.683968 170.21509,214.80036 L170.219985,215 L170.219985,216.186659 C168.348668,218.10735 165.939921,220.073412 163.239857,221.002431 C163.25923,221.140703 163.282909,221.276815 163.282909,221.420129 C163.282909,221.732682 163.222636,222.029392 163.13725,222.315299 C165.741847,221.742657 168.078997,220.452466 169.931538,218.658367 L170.219985,218.370932 L170.219572,227.628928 C169.57222,227.523163 168.894083,227.740637 168.430022,228.242769 C168.305566,228.23481 168.180037,228.230769 168.053558,228.230769 C164.862933,228.230769 162.27642,230.802262 162.27642,233.974359 C162.27642,235.020811 162.557908,236.0019 163.049713,236.846867 L154,236.846154 C151.857805,236.846154 150.108921,235.162185 150.004895,233.045794 L150,232.846154 L150,218.371652 C151.916522,220.339155 154.396304,221.749966 157.178884,222.340505 C157.087758,222.047396 157.026768,221.742044 157.026768,221.420129 C157.026768,221.287618 157.049011,221.162308 157.064079,221.033398 C154.465617,220.163145 152.135897,218.324463 150.287775,216.479347 L150,216.188099 L150,215 C150,212.857805 151.683968,211.108921 153.80036,211.004895 L154,211 L166.219985,211 Z M168.053558,230.025641 C166.568329,230.025641 165.228383,230.843481 164.544046,232.123961 C164.450478,232.299038 164.517383,232.516377 164.693482,232.609402 C164.869582,232.702426 165.08819,232.635909 165.181758,232.460833 C165.741974,231.412601 166.838079,230.74359 168.053558,230.74359 C168.242472,230.74359 168.42918,230.759578 168.612366,230.791117 C168.808856,230.824946 168.995727,230.694008 169.029753,230.49866 C169.06378,230.303311 168.932078,230.117526 168.735588,230.083697 C168.51175,230.045159 168.283818,230.025641 168.053558,230.025641 Z M174.131893,228.997469 L175.371584,229.738024 C175.541172,229.839331 175.596525,230.058936 175.495218,230.228524 C175.494903,230.229052 175.494586,230.229578 175.494268,230.230104 C175.391406,230.400297 175.170368,230.455407 174.999647,230.353423 L173.759967,229.612874 C173.590376,229.511565 173.535022,229.291956 173.636331,229.122365 C173.636645,229.121839 173.63696,229.121314 173.637277,229.12079 C173.740135,228.950596 173.961173,228.895485 174.131893,228.997469 Z M175.993279,227.138693 C176.026502,227.308606 175.933697,227.473936 175.779886,227.538049 L175.709651,227.559198 L174.288075,227.83392 C174.093255,227.871569 173.904726,227.744404 173.866654,227.549667 C173.833434,227.379749 173.926245,227.214418 174.08006,227.150306 L174.149908,227.129234 L175.571851,226.854441 C175.766672,226.816792 175.955203,226.943955 175.993279,227.138693 Z M174.65117,224.888852 C174.791359,225.028223 174.79202,225.254852 174.652648,225.39504 C174.652158,225.395533 174.651666,225.396025 174.651172,225.396516 L173.629905,226.411853 C173.488658,226.55228 173.26052,226.552279 173.119274,226.411852 C172.999113,226.292387 172.981463,226.108815 173.066643,225.970523 L173.117804,225.905656 C173.118293,225.905164 173.118784,225.904673 173.119276,225.904184 L174.140537,224.888854 C174.281784,224.748426 174.509922,224.748426 174.65117,224.888852 Z M171.821233,224.397154 L172.120716,225.797929 C172.157101,225.968113 172.066742,226.135912 171.913286,226.20306 L171.843006,226.225566 C171.647815,226.266814 171.456064,226.142291 171.414354,225.947197 L171.114871,224.546425 C171.073288,224.351928 171.19725,224.160547 171.391747,224.118964 L171.392581,224.118787 C171.587772,224.077538 171.779522,224.202061 171.821233,224.397154 Z M160.110594,219.615385 L159.95589,219.620791 C158.831673,219.699642 157.943566,220.631171 157.943566,221.76953 C157.943566,222.907889 158.831673,223.838871 159.95589,223.917674 L160.110594,223.923077 L160.265508,223.917674 C161.339903,223.842453 162.195437,222.990763 162.270993,221.923415 L162.27642,221.76953 L162.270993,221.615642 C162.191839,220.49742 161.256655,219.615385 160.110594,219.615385 Z" id="hongbaosaolei"></path>
        </g>
    </g>
</svg>