<?xml version="1.0" encoding="UTF-8"?>
<svg width="20px" height="26px" viewBox="0 0 20 26" version="1.1" xmlns="http://www.w3.org/2000/svg" xmlns:xlink="http://www.w3.org/1999/xlink">
    <!-- Generator: Sketch 60.1 (88133) - https://sketch.com -->
    <title>hongbao</title>
    <desc>Created with Sketch.</desc>
    <g id="页面-1" stroke="none" stroke-width="1" fill="none" fill-rule="evenodd">
        <g id="icon" transform="translate(-114.000000, -212.000000)" fill="#000000">
            <path d="M114,216 L114,217.218981 L114,217.218981 C115.87083,219.170665 118.28176,221.171612 120.987225,222.09312 C120.972321,222.222798 120.950319,222.348853 120.950319,222.482153 C120.950319,222.805985 121.010646,223.113154 121.100781,223.408008 C118.348474,222.813954 115.895671,221.394745 114,219.415531 L114,234 C114,236.209139 115.790861,238 118,238 L130,238 C132.209139,238 134,236.209139 134,234 L134,219.414807 L134,219.414807 C132.124911,221.370113 129.706175,222.776282 126.994322,223.382652 C127.078779,223.095043 127.138396,222.796567 127.138396,222.482153 C127.138396,222.337987 127.114975,222.201064 127.095813,222.061969 C129.766501,221.127421 132.149042,219.149656 134,217.217532 L134,216 C134,213.790861 132.209139,212 130,212 L118,212 C115.790861,212 114,213.790861 114,216 Z M122,223.000278 C122,221.895183 122.896111,221 124.000556,221 L124.000556,221 C125.106667,221 126,221.895183 126,223.000278 L126,223.000278 C126,224.105373 125.106667,225 124.000556,225 L124.000556,225 C122.896111,225 122,224.105373 122,223.000278 L122,223.000278 Z" id="hongbao"></path>
        </g>
    </g>
</svg>