<?xml version="1.0" encoding="UTF-8"?>
<svg width="32px" height="28px" viewBox="0 0 32 28" version="1.1" xmlns="http://www.w3.org/2000/svg" xmlns:xlink="http://www.w3.org/1999/xlink">
    <!-- Generator: Sketch 60.1 (88133) - https://sketch.com -->
    <title>huodongcaijin</title>
    <desc>Created with Sketch.</desc>
    <g id="页面-1" stroke="none" stroke-width="1" fill="none" fill-rule="evenodd">
        <g id="icon" transform="translate(-120.000000, -367.000000)" fill="#000000" fill-rule="nonzero">
            <path d="M141.154202,367 C143.245883,367 145.187359,368.09528 146.281081,369.892318 L151.112235,377.83014 C152.295922,379.774995 152.295922,382.225005 151.112235,384.16986 L146.281081,392.107682 C145.187359,393.90472 143.245883,395 141.154202,395 L130.845798,395 C128.754117,395 126.812641,393.90472 125.718919,392.107682 L120.887765,384.16986 C119.704078,382.225005 119.704078,379.774995 120.887765,377.83014 L125.718919,369.892318 C126.812641,368.09528 128.754117,367 130.845798,367 L141.154202,367 Z M141.154202,369.020726 L130.845798,369.020726 C129.528814,369.020726 128.301148,369.672034 127.554557,370.753644 L127.427879,370.948938 L122.596725,378.88676 C121.849133,380.11509 121.809786,381.645672 122.478684,382.905818 L122.596725,383.11324 L127.427879,391.051062 C128.116518,392.18253 129.309275,392.896698 130.614396,392.972558 L130.845798,392.979274 L141.154202,392.979274 C142.471186,392.979274 143.698852,392.327966 144.445443,391.246356 L144.572121,391.051062 L149.403275,383.11324 C150.150867,381.88491 150.190214,380.354328 149.521316,379.094182 L149.403275,378.88676 L144.572121,370.948938 C143.883482,369.81747 142.690725,369.103302 141.385604,369.027442 L141.154202,369.020726 Z M139.67197,374.007029 C139.801745,373.988285 139.93152,374.007029 140.061295,374.063264 C140.19107,374.119498 140.327333,374.191353 140.470086,374.278828 C140.794523,374.478773 140.969719,374.688089 140.995674,374.906778 C141.021629,375.125467 140.930787,375.409763 140.723147,375.759665 L140.723147,375.759665 L138.387199,379.489874 L139.886099,379.489874 L140.026602,379.49454 C140.659673,379.538083 140.976208,379.88643 140.976208,380.539582 C140.976208,381.22689 140.612838,381.570544 139.886099,381.570544 L139.886099,381.570544 L137.14136,381.570544 L137.14136,382.526527 L139.886099,382.526527 L140.026602,382.531193 C140.659673,382.574736 140.976208,382.923083 140.976208,383.576234 C140.976208,384.263543 140.612838,384.607197 139.886099,384.607197 L139.886099,384.607197 L137.14136,384.607197 L137.14136,386.78159 L137.138014,386.956736 C137.1224,387.347643 137.052139,387.61417 136.927231,387.756318 C136.784479,387.918773 136.473019,388 135.992852,388 C135.577572,388 135.27909,387.918773 135.097405,387.756318 C134.91572,387.593863 134.824878,387.268954 134.824878,386.78159 L134.824878,386.78159 L134.824878,384.607197 L132.119071,384.607197 L131.978568,384.602615 C131.345497,384.559849 131.028962,384.217722 131.028962,383.576234 C131.028962,382.87643 131.379354,382.526527 132.080139,382.526527 L132.080139,382.526527 L134.824878,382.526527 L134.824878,381.570544 L132.119071,381.570544 L131.978568,381.565962 C131.345497,381.523196 131.028962,381.181069 131.028962,380.539582 C131.028962,379.839777 131.379354,379.489874 132.080139,379.489874 L132.080139,379.489874 L133.617971,379.489874 L133.226484,378.874421 C132.96405,378.462036 132.698732,378.045486 132.430531,377.62477 L132.030392,376.99682 C131.765074,376.58027 131.50264,376.167885 131.243091,375.759665 C131.035451,375.434756 130.96083,375.147336 131.019229,374.897406 C131.077628,374.647476 131.236602,374.435035 131.496152,374.260084 C131.794634,374.060139 132.070406,373.978912 132.323467,374.016402 C132.576528,374.053891 132.819856,374.260084 133.05345,374.634979 L133.05345,374.634979 L136.012318,379.396151 L136.732569,378.217573 L136.732569,378.217573 L137.452819,377.043682 C137.932987,376.26265 138.413154,375.478494 138.893321,374.691213 C139.036073,374.466276 139.169092,374.300697 139.292379,374.194477 C139.415665,374.088257 139.542195,374.025774 139.67197,374.007029 Z" id="huodongcaijin"></path>
        </g>
    </g>
</svg>