<?xml version="1.0" encoding="UTF-8"?>
<svg width="18px" height="18px" viewBox="0 0 18 18" version="1.1" xmlns="http://www.w3.org/2000/svg" xmlns:xlink="http://www.w3.org/1999/xlink">
    <!-- Generator: Sketch 60.1 (88133) - https://sketch.com -->
    <title>kanyikan</title>
    <desc>Created with Sketch.</desc>
    <g id="页面-1" stroke="none" stroke-width="1" fill="none" fill-rule="evenodd">
        <g id="icon" transform="translate(-128.000000, -409.000000)" fill="#000000">
            <path d="M136.999845,409 C137.809577,409 138.52914,409.467299 138.878472,410.215101 L138.878472,410.215101 L140.250717,413.09026 C140.430458,413.452681 140.767847,413.710222 141.150619,413.769178 L141.150619,413.769178 L144.197863,414.224685 C144.99625,414.341355 145.648932,414.913532 145.896748,415.709119 C146.14337,416.504086 145.940937,417.356766 145.367078,417.941355 L145.367078,417.941355 L143.164201,420.173591 C142.882347,420.454715 142.747392,420.874849 142.815466,421.272643 L142.815466,421.272643 L143.331999,424.428305 C143.466954,425.258645 143.152258,426.065403 142.500172,426.555663 C141.84749,427.046544 141.00372,427.104258 140.295503,426.719497 L140.295503,426.719497 L137.562358,425.258645 C137.213624,425.071229 136.798009,425.071229 136.449872,425.258645 L136.449872,425.258645 L133.715533,426.754249 C133.400836,426.917463 133.064044,427 132.738002,427 C132.298501,427 131.87154,426.859128 131.512058,426.579866 C130.858778,426.088364 130.544678,425.269816 130.679634,424.451888 L130.679634,424.451888 L131.197361,421.296225 C131.264241,420.88664 131.128689,420.477676 130.848029,420.197793 L130.848029,420.197793 L128.632014,417.953767 C128.05935,417.368557 127.856319,416.515256 128.103539,415.72029 C128.351355,414.925323 129.004037,414.353146 129.802424,414.236476 L129.802424,414.236476 L132.850266,413.780969 C133.113011,413.741252 133.345301,413.607826 133.525042,413.419169 C133.553108,413.390622 133.582369,413.362076 133.608046,413.329805 C133.662386,413.259059 133.71195,413.185209 133.750167,413.102051 L133.750167,413.102051 L135.11047,410.226892 C135.47055,409.467299 136.19071,409 136.999845,409 Z M139.473862,419.230014 C139.153326,419.145971 138.82535,419.337686 138.741307,419.658222 C138.535654,420.442573 137.823103,421 137,421 C136.178503,421 135.46698,420.444733 135.259812,419.662469 C135.174979,419.342141 134.846532,419.151235 134.526204,419.236068 C134.205876,419.3209 134.014969,419.649348 134.099802,419.969676 C134.445507,421.275054 135.630739,422.2 137,422.2 C138.371946,422.2 139.558886,421.271459 139.902071,419.962569 C139.986114,419.642033 139.794398,419.314057 139.473862,419.230014 Z" id="kanyikan"></path>
        </g>
    </g>
</svg>