<?xml version="1.0" encoding="UTF-8"?>
<svg width="28px" height="32px" viewBox="0 0 28 32" version="1.1" xmlns="http://www.w3.org/2000/svg" xmlns:xlink="http://www.w3.org/1999/xlink">
    <!-- Generator: Sketch 60.1 (88133) - https://sketch.com -->
    <title>lixibao</title>
    <desc>Created with Sketch.</desc>
    <g id="页面-1" stroke="none" stroke-width="1" fill="none" fill-rule="evenodd">
        <g id="icon" transform="translate(-122.000000, -281.000000)" fill="#000000" fill-rule="nonzero">
            <path d="M141,295 C145.970563,295 150,299.029437 150,304 C150,308.970563 145.970563,313 141,313 C136.029437,313 132,308.970563 132,304 C132,299.029437 136.029437,295 141,295 Z M141,297 C137.134007,297 134,300.134007 134,304 C134,307.865993 137.134007,311 141,311 C144.865993,311 148,307.865993 148,304 C148,300.134007 144.865993,297 141,297 Z M133.5,281 C139.737859,281 144.815733,283.159341 144.995097,285.852577 L145,286 L145.000326,293.750008 C144.360334,293.500049 143.691192,293.308299 142.999409,293.181268 L143.000365,292.927804 C142.893061,292.995323 142.781981,293.061396 142.667258,293.125993 C142.123652,293.042874 141.566833,293 141,293 C138.66068,293 136.491915,293.730235 134.709218,294.975191 C134.312011,294.991741 133.908369,295 133.5,295 C129.569828,295 126.077455,294.235014 124.00013,292.928116 L124,294 C124,295.30704 127.710433,296.801584 132.530334,296.981903 C132.036617,297.575788 131.604708,298.223263 131.243964,298.913804 C128.253144,298.679088 125.669026,297.978456 123.999384,296.927701 L124,298 C124,299.113172 126.691354,300.362349 130.467292,300.819824 C130.275201,301.45481 130.139453,302.114831 130.06542,302.793396 C127.577331,302.484429 125.445559,301.837397 123.999617,300.927674 L124,302.013 L124.006409,302.094658 C124.147008,303.139017 126.587758,304.278821 130.02635,304.762151 C130.074557,305.471965 130.190504,306.163437 130.367476,306.830054 C127.75035,306.536686 125.504075,305.874419 123.999854,304.927966 L124,306.007 L124.005919,306.09095 C124.155472,307.246329 127.123307,308.519663 131.144931,308.892181 C131.517856,309.641813 131.973998,310.343279 132.5012,310.984078 C126.758289,310.790598 122.175751,308.93585 122.004937,306.161035 L122,306 L122,286 C122,283.238576 127.148725,281 133.5,281 Z M141,299 C141.552285,299 142,299.447715 142,300 L142,303.493 L144.426249,304.837813 C144.909288,305.105566 145.083812,305.714203 144.816059,306.197242 C144.548306,306.680281 143.939668,306.854805 143.456629,306.587052 L140.83277,305.132623 C140.717499,305.068728 140.619798,304.98542 140.541483,304.889038 C140.22049,304.723653 140,304.387575 140,304 L140,300 C140,299.447715 140.447715,299 141,299 Z M143.001404,288.817672 C140.930446,290.135245 137.447494,291 133.5,291 C129.553136,291 126.070666,290.135521 123.999588,288.818303 L124,290 C124,291.393443 128.217211,293 133.5,293 C138.674977,293 142.827425,291.458348 142.994757,290.085564 L142.999,290.008 L143.001404,288.817672 Z M133.5,283 C130.66905,283 128.040908,283.483309 126.165724,284.298606 C124.672804,284.947702 124,285.639305 124,286 C124,286.360695 124.672804,287.052298 126.165724,287.701394 C128.040908,288.516691 130.66905,289 133.5,289 C136.33095,289 138.959092,288.516691 140.834276,287.701394 C142.327196,287.052298 143,286.360695 143,286 C143,285.639305 142.327196,284.947702 140.834276,284.298606 C138.959092,283.483309 136.33095,283 133.5,283 Z" id="lixibao"></path>
        </g>
    </g>
</svg>