<?xml version="1.0" encoding="UTF-8"?>
<svg width="32px" height="28px" viewBox="0 0 32 28" version="1.1" xmlns="http://www.w3.org/2000/svg" xmlns:xlink="http://www.w3.org/1999/xlink">
    <!-- Generator: Sketch 60.1 (88133) - https://sketch.com -->
    <title>meiriqiandao</title>
    <desc>Created with Sketch.</desc>
    <g id="页面-1" stroke="none" stroke-width="1" fill="none" fill-rule="evenodd">
        <g id="icon" transform="translate(-28.000000, -323.000000)" fill="#000000" fill-rule="nonzero">
            <path d="M51,323 C51.5522847,323 52,323.447715 52,324 L52,326 L54.8722296,326 C56.6552671,326 57.3018396,326.185651 57.9536914,326.534265 C58.6055433,326.88288 59.1171204,327.394457 59.4657346,328.046309 C59.8143488,328.69816 60,329.344733 60,331.12777 L60,345.87223 C60,347.655267 59.8143488,348.30184 59.4657346,348.953691 C59.1171204,349.605543 58.6055433,350.11712 57.9536914,350.465735 C57.3018396,350.814349 56.6552671,351 54.8722296,351 L33.1277704,351 C31.3447329,351 30.6981604,350.814349 30.0463086,350.465735 C29.3944567,350.11712 28.8828796,349.605543 28.5342654,348.953691 C28.2039993,348.336148 28.0199937,347.723342 28.0015395,346.144484 L28,331.12777 C28,329.344733 28.1856512,328.69816 28.5342654,328.046309 C28.8828796,327.394457 29.3944567,326.88288 30.0463086,326.534265 C30.6638525,326.203999 31.276658,326.019994 32.855516,326.00154 L36.0000005,326.00102 L36.0000005,326.00102 L36,324 C36,323.447715 36.4477153,323 37,323 C37.5522847,323 38,323.447715 38,324 L38,326.001 L50,326 L50,326 L50,324 C50,323.447715 50.4477153,323 51,323 Z M58,333 L30,333 L30.0009279,346.109863 L30.0086343,346.525842 C30.0341906,347.347391 30.1191023,347.676186 30.2978918,348.010494 C30.4601064,348.313809 30.6861914,348.539894 30.9895063,348.702108 L31.1452249,348.778086 C31.4896294,348.928807 31.905178,348.990962 32.8901374,348.999072 L54.8722296,349 C56.1959334,349 56.5990386,348.922157 57.0104937,348.702108 C57.3138086,348.539894 57.5398936,348.313809 57.7021082,348.010494 L57.7780863,347.854775 C57.9288074,347.510371 57.9909618,347.094822 57.9990721,346.109863 L58,333 L58,333 Z M38,343 C38.5522847,343 39,343.447715 39,344 C39,344.552285 38.5522847,345 38,345 L34,345 C33.4477153,345 33,344.552285 33,344 C33,343.447715 33.4477153,343 34,343 L38,343 Z M46,343 C46.5522847,343 47,343.447715 47,344 C47,344.552285 46.5522847,345 46,345 L42,345 C41.4477153,345 41,344.552285 41,344 C41,343.447715 41.4477153,343 42,343 L46,343 Z M54,343 C54.5522847,343 55,343.447715 55,344 C55,344.552285 54.5522847,345 54,345 L50,345 C49.4477153,345 49,344.552285 49,344 C49,343.447715 49.4477153,343 50,343 L54,343 Z M38,337 C38.5522847,337 39,337.447715 39,338 C39,338.552285 38.5522847,339 38,339 L34,339 C33.4477153,339 33,338.552285 33,338 C33,337.447715 33.4477153,337 34,337 L38,337 Z M46,337 C46.5522847,337 47,337.447715 47,338 C47,338.552285 46.5522847,339 46,339 L42,339 C41.4477153,339 41,338.552285 41,338 C41,337.447715 41.4477153,337 42,337 L46,337 Z M54,337 C54.5522847,337 55,337.447715 55,338 C55,338.552285 54.5522847,339 54,339 L50,339 C49.4477153,339 49,338.552285 49,338 C49,337.447715 49.4477153,337 50,337 L54,337 Z M55.1098626,328.000928 L32.8901374,328.000928 L32.4741579,328.008634 C31.6526086,328.034191 31.3238136,328.119102 30.9895063,328.297892 C30.6861914,328.460106 30.4601064,328.686191 30.2978918,328.989506 L30.2219137,329.145225 C30.0711926,329.489629 30.0090382,329.905178 30.0009279,330.890137 L30,331 L30,331 L57.999,331 L57.9990721,330.890137 C57.9897141,329.753646 57.9084038,329.375245 57.7021082,328.989506 C57.5398936,328.686191 57.3138086,328.460106 57.0104937,328.297892 L56.8547751,328.221914 C56.5103706,328.071193 56.094822,328.009038 55.1098626,328.000928 Z" id="meiriqiandao"></path>
        </g>
    </g>
</svg>