<?xml version="1.0" encoding="UTF-8"?>
<svg width="10px" height="14px" viewBox="0 0 10 14" version="1.1" xmlns="http://www.w3.org/2000/svg" xmlns:xlink="http://www.w3.org/1999/xlink">
    <!-- Generator: Sketch 60.1 (88133) - https://sketch.com -->
    <title>mima</title>
    <desc>Created with Sketch.</desc>
    <g id="页面-1" stroke="none" stroke-width="1" fill="none" fill-rule="evenodd">
        <g id="icon" transform="translate(-58.000000, -180.000000)" fill="#000000">
            <path d="M63,180 C65.1421954,180 66.8910789,181.683968 66.9951047,183.80036 L67,184 L67.0012949,185.80365 C67.6260387,186.251692 68,186.94766 68,187.693147 L68,190.306853 C68,191.159394 67.5109229,191.947174 66.7169994,192.373444 L64.2830006,193.680297 C63.4890771,194.106568 62.5109229,194.106568 61.7169994,193.680297 L59.2830006,192.373444 C58.4890771,191.947174 58,191.159394 58,190.306853 L58,187.693147 C58,186.947271 58.3743519,186.250965 58.999684,185.802949 L59,184 C59,181.790861 60.790861,180 63,180 Z M63,187 C62.4871642,187 62.0644928,187.38604 62.0067277,187.883379 L62,188 L62,190 C62,190.552285 62.4477153,191 63,191 C63.5128358,191 63.9355072,190.61396 63.9932723,190.116621 L64,190 L64,188 C64,187.447715 63.5522847,187 63,187 Z M63,182 C61.9456382,182 61.0818349,182.815878 61.0054857,183.850738 L61,184 L61,184.704 L61.7169994,184.319703 C62.5109229,183.893432 63.4890771,183.893432 64.2830006,184.319703 L65,184.704 L65,184 C65,182.895431 64.1045695,182 63,182 Z" id="mima"></path>
        </g>
    </g>
</svg>