<?xml version="1.0" encoding="UTF-8"?>
<svg width="18px" height="18px" viewBox="0 0 18 18" version="1.1" xmlns="http://www.w3.org/2000/svg" xmlns:xlink="http://www.w3.org/1999/xlink">
    <!-- Generator: Sketch 60.1 (88133) - https://sketch.com -->
    <title>pengyouquan</title>
    <desc>Created with Sketch.</desc>
    <g id="页面-1" stroke="none" stroke-width="1" fill="none" fill-rule="evenodd">
        <g id="icon" transform="translate(-60.000000, -409.000000)" fill="#000000">
            <path d="M66.108427,420.137269 C66.2589311,420.347449 71.5580462,425.576677 72.263006,426.272973 L72.3401995,426.349316 C71.6040876,426.645236 70.8215798,426.847231 70.0028605,426.940024 C69.6707331,426.979065 69.3312503,427 68.9878069,427 C68.1809695,427 67.4024223,426.89193 66.6612182,426.690501 C66.4750684,426.641275 66.2900503,426.585826 66.108427,426.523586 L66.108427,426.523586 Z M65.4696902,417.474219 C65.4280595,417.73482 65.4685728,425.517626 65.4722562,426.208917 L65.4725192,426.257881 C64.7409338,425.95008 64.044994,425.541564 63.4005425,425.030636 C63.1374434,424.821851 62.8816997,424.598921 62.6384037,424.356754 C62.0686384,423.78981 61.5939283,423.162325 61.2108785,422.498062 C61.1158234,422.330582 61.0235972,422.163667 60.9392923,421.991095 L60.9392923,421.991095 Z M77.2487812,421.55508 C76.939286,422.283846 76.5273802,422.977531 76.0158928,423.619727 C75.8065451,423.88283 75.5824865,424.136879 75.3403221,424.378481 C74.7688594,424.947688 74.1402504,425.417877 73.4759957,425.799234 C73.3085176,425.894291 73.1387762,425.985952 72.9667716,426.071956 L72.9667716,426.071956 L68.4335447,421.555646 C68.6891375,421.598949 76.1456884,421.560927 77.1396793,421.555665 Z M66.8869742,415.119537 C66.6629156,415.279096 60.654636,421.329887 60.654636,421.329887 C60.3570227,420.597727 60.1533331,419.817472 60.0605411,419.002138 C60.0215006,418.66944 60,418.331651 60,417.988769 C60,417.185882 60.1086345,416.408456 60.3083635,415.670072 C60.3598518,415.484486 60.4147348,415.298899 60.4769733,415.119537 L60.4769733,415.119537 Z M77.3464956,414.672376 C77.6446747,415.406234 77.8466669,416.18762 77.9400247,417.001257 C77.9784994,417.333955 78,417.671744 78,418.015192 C78,418.818645 77.8919313,419.593807 77.6910707,420.333889 C77.640714,420.518909 77.5846994,420.702232 77.5235925,420.884424 L77.5235925,420.884424 L71.1135916,420.884424 C71.3232411,420.733389 76.5710968,415.452902 77.2698791,414.749508 Z M72.5227281,409.697929 C73.2526161,410.006296 73.9502532,410.41651 74.5941389,410.92574 C74.8578039,411.133959 75.1129818,411.358586 75.3562778,411.60132 C75.926043,412.167131 76.3990557,412.794617 76.7838029,413.457748 C76.8794239,413.624097 76.9710842,413.794406 77.0559549,413.964715 L77.0559549,413.964715 L72.5227281,418.479893 C72.56544,418.220915 72.5265247,410.43818 72.5229812,409.746893 Z M69.0136076,409 C69.8198792,409 70.599558,409.10807 71.3407621,409.306104 C71.5269119,409.358725 71.7124958,409.413608 71.8935533,409.474716 L71.8935533,409.474716 L71.8935533,415.861033 C71.7409369,415.652966 66.4416809,410.423386 65.7357918,409.727034 L65.658386,409.650684 C66.3956295,409.355896 67.1787031,409.151638 67.995725,409.05941 C68.3301156,409.021501 68.6690326,409 69.0136076,409 Z M64.9915852,409.96171 L69.5236805,414.47802 C69.2503968,414.433886 60.7078782,414.479151 60.7078782,414.479151 C61.0173733,413.751517 61.4292791,413.056701 61.9407665,412.413938 C62.1489827,412.153099 62.3719097,411.897352 62.6174689,411.654053 C63.1866684,411.088241 63.8141457,410.615789 64.482361,410.233866 C64.6481418,410.138244 64.8190148,410.047714 64.9915852,409.96171 L64.9915852,409.96171 Z" id="pengyouquan"></path>
        </g>
    </g>
</svg>