<?xml version="1.0" encoding="UTF-8"?>
<svg width="16px" height="16px" viewBox="0 0 16 16" version="1.1" xmlns="http://www.w3.org/2000/svg" xmlns:xlink="http://www.w3.org/1999/xlink">
    <!-- Generator: Sketch 60.1 (88133) - https://sketch.com -->
    <title>qianbao</title>
    <desc>Created with Sketch.</desc>
    <g id="页面-1" stroke="none" stroke-width="1" fill="none" fill-rule="evenodd">
        <g id="icon" transform="translate(-28.000000, -410.000000)" fill="#000000">
            <path d="M41.4361148,410 C42.3276335,410 42.6509198,410.092826 42.9768457,410.267133 C43.3027716,410.44144 43.5585602,410.697228 43.7328673,411.023154 C43.9071744,411.34908 44,411.672366 44,412.563885 L44,414 L36,414 C33.790861,414 32,415.790861 32,418 C32,420.142195 33.6839685,421.891079 35.8003597,421.995105 L36,422 L44,422 L44,423.436115 C44,424.327634 43.9071744,424.65092 43.7328673,424.976846 C43.5585602,425.302772 43.3027716,425.55856 42.9768457,425.732867 C42.6509198,425.907174 42.3276335,426 41.4361148,426 L30.5638852,426 C29.6723665,426 29.3490802,425.907174 29.0231543,425.732867 C28.6972284,425.55856 28.4414398,425.302772 28.2671327,424.976846 C28.0928256,424.65092 28,424.327634 28,423.436115 L28,412.563885 C28,411.672366 28.0928256,411.34908 28.2671327,411.023154 C28.4414398,410.697228 28.6972284,410.44144 29.0231543,410.267133 C29.3490802,410.092826 29.6723665,410 30.5638852,410 L41.4361148,410 Z M44,415.333333 L44,420.666667 L36,420.666667 C34.5272407,420.666667 33.3333333,419.472759 33.3333333,418 C33.3333333,416.527241 34.5272407,415.333333 36,415.333333 L44,415.333333 Z M36,416.666667 C35.2636203,416.666667 34.6666667,417.26362 34.6666667,418 C34.6666667,418.73638 35.2636203,419.333333 36,419.333333 C36.7363797,419.333333 37.3333333,418.73638 37.3333333,418 C37.3333333,417.26362 36.7363797,416.666667 36,416.666667 Z" id="qianbao"></path>
        </g>
    </g>
</svg>