<?xml version="1.0" encoding="UTF-8"?>
<svg width="32px" height="28px" viewBox="0 0 32 28" version="1.1" xmlns="http://www.w3.org/2000/svg" xmlns:xlink="http://www.w3.org/1999/xlink">
    <!-- Generator: Sketch 60.1 (88133) - https://sketch.com -->
    <title>qitazhudanjilu</title>
    <desc>Created with Sketch.</desc>
    <g id="页面-1" stroke="none" stroke-width="1" fill="none" fill-rule="evenodd">
        <g id="icon" transform="translate(-166.000000, -325.000000)" fill="#000000" fill-rule="nonzero">
            <path d="M188.30781,325.128617 C188.703742,325.219851 189.054076,325.364937 189.398583,325.580345 L189.543729,325.674757 C189.832031,325.870647 190.126483,326.126186 190.752485,326.752022 L196.247008,332.245094 C196.977512,332.975404 197.203762,333.254496 197.419292,333.599062 C197.634822,333.943628 197.779999,334.294051 197.871293,334.690086 L197.907169,334.859528 C197.967068,335.173463 197.995156,335.5265 197.999421,336.265133 L198,347.87223 C198,349.655267 197.814349,350.30184 197.465735,350.953691 C197.11712,351.605543 196.605543,352.11712 195.953691,352.465735 C195.30184,352.814349 194.655267,353 192.87223,353 L171.12777,353 C169.344733,353 168.69816,352.814349 168.046309,352.465735 C167.394457,352.11712 166.88288,351.605543 166.534265,350.953691 C166.203999,350.336148 166.019994,349.723342 166.00154,348.144484 L166,330.12777 C166,328.344733 166.185651,327.69816 166.534265,327.046309 C166.88288,326.394457 167.394457,325.88288 168.046309,325.534265 C168.663852,325.203999 169.276658,325.019994 170.855516,325.00154 L186.52194,325 C187.554653,325 187.911878,325.037382 188.30781,325.128617 Z M170.890137,327.000928 L170.474158,327.008634 C169.652609,327.034191 169.323814,327.119102 168.989506,327.297892 C168.686191,327.460106 168.460106,327.686191 168.297892,327.989506 L168.221914,328.145225 C168.071193,328.489629 168.009038,328.905178 168.000928,329.890137 L168.000928,348.109863 L168.008634,348.525842 C168.034191,349.347391 168.119102,349.676186 168.297892,350.010494 C168.460106,350.313809 168.686191,350.539894 168.989506,350.702108 L169.145225,350.778086 C169.489629,350.928807 169.905178,350.990962 170.890137,350.999072 L192.87223,351 C194.195933,351 194.599039,350.922157 195.010494,350.702108 C195.313809,350.539894 195.539894,350.313809 195.702108,350.010494 L195.778086,349.854775 C195.928807,349.510371 195.990962,349.094822 195.999072,348.109863 L195.998,337 L191,337 C188.311245,337 186.118182,334.877693 186.00462,332.21689 L186,332 L186,327.001 L170.890137,327.000928 Z M192,345 C192.552285,345 193,345.447715 193,346 C193,346.552285 192.552285,347 192,347 L172,347 C171.447715,347 171,346.552285 171,346 C171,345.447715 171.447715,345 172,345 L192,345 Z M192,340 C192.552285,340 193,340.447715 193,341 C193,341.552285 192.552285,342 192,342 L172,342 C171.447715,342 171,341.552285 171,341 C171,340.447715 171.447715,340 172,340 L192,340 Z M182,335 C182.552285,335 183,335.447715 183,336 C183,336.552285 182.552285,337 182,337 L172,337 C171.447715,337 171,336.552285 171,336 C171,335.447715 171.447715,335 172,335 L182,335 Z M188.000754,327.116545 L188,332 C188,333.597681 189.24892,334.903661 190.823727,334.994907 L191,335 L195.88437,335.00034 C195.845933,334.880939 195.794954,334.773621 195.723685,334.659683 L195.657084,334.559039 C195.561732,334.423164 195.432523,334.272401 195.177619,334.008806 L194.832982,333.659494 L188.989123,327.821942 C188.659611,327.503458 188.506426,327.381287 188.338262,327.27614 C188.225322,327.205523 188.118895,327.15484 188.000754,327.116545 Z" id="qitazhudanjilu"></path>
        </g>
    </g>
</svg>