<?xml version="1.0" encoding="UTF-8"?>
<svg width="28px" height="32px" viewBox="0 0 28 32" version="1.1" xmlns="http://www.w3.org/2000/svg" xmlns:xlink="http://www.w3.org/1999/xlink">
    <!-- Generator: Sketch 60.1 (88133) - https://sketch.com -->
    <title>renwuzhongxin</title>
    <desc>Created with Sketch.</desc>
    <g id="页面-1" stroke="none" stroke-width="1" fill="none" fill-rule="evenodd">
        <g id="icon" transform="translate(-78.000000, -365.000000)" fill="#000000" fill-rule="nonzero">
            <path d="M100.87223,365 C102.655267,365 103.30184,365.185651 103.953691,365.534265 C104.605543,365.88288 105.11712,366.394457 105.465735,367.046309 C105.796001,367.663852 105.980006,368.276658 105.99846,369.855516 L106,391.87223 C106,393.655267 105.814349,394.30184 105.465735,394.953691 C105.11712,395.605543 104.605543,396.11712 103.953691,396.465735 C103.30184,396.814349 102.655267,397 100.87223,397 L83.1277704,397 C81.3447329,397 80.6981604,396.814349 80.0463086,396.465735 C79.3944567,396.11712 78.8828796,395.605543 78.5342654,394.953691 C78.1856512,394.30184 78,393.655267 78,391.87223 L78,370.12777 C78,368.344733 78.1856512,367.69816 78.5342654,367.046309 C78.8828796,366.394457 79.3944567,365.88288 80.0463086,365.534265 C80.6638525,365.203999 81.276658,365.019994 82.855516,365.00154 L100.87223,365 Z M101.109863,367.000928 L82.8901374,367.000928 L82.4741579,367.008634 C81.6526086,367.034191 81.3238136,367.119102 80.9895063,367.297892 C80.6861914,367.460106 80.4601064,367.686191 80.2978918,367.989506 L80.2219137,368.145225 C80.0711926,368.489629 80.0090382,368.905178 80.0009279,369.890137 L80,391.87223 C80,393.195933 80.0778432,393.599039 80.2978918,394.010494 C80.4601064,394.313809 80.6861914,394.539894 80.9895063,394.702108 L81.1452249,394.778086 C81.4896294,394.928807 81.905178,394.990962 82.8901374,394.999072 L100.87223,395 C102.195933,395 102.599039,394.922157 103.010494,394.702108 C103.313809,394.539894 103.539894,394.313809 103.702108,394.010494 L103.778086,393.854775 C103.928807,393.510371 103.990962,393.094822 103.999072,392.109863 L103.999072,369.890137 L103.991366,369.474158 C103.965809,368.652609 103.880898,368.323814 103.702108,367.989506 C103.539894,367.686191 103.313809,367.460106 103.010494,367.297892 L102.854775,367.221914 C102.510371,367.071193 102.094822,367.009038 101.109863,367.000928 Z M86,386 C87.6568542,386 89,387.343146 89,389 C89,390.656854 87.6568542,392 86,392 C84.3431458,392 83,390.656854 83,389 C83,387.343146 84.3431458,386 86,386 Z M100,388 C100.552285,388 101,388.447715 101,389 C101,389.552285 100.552285,390 100,390 L92,390 C91.4477153,390 91,389.552285 91,389 C91,388.447715 91.4477153,388 92,388 L100,388 Z M86,388 C85.4477153,388 85,388.447715 85,389 C85,389.552285 85.4477153,390 86,390 C86.5522847,390 87,389.552285 87,389 C87,388.447715 86.5522847,388 86,388 Z M88.8284271,378.585786 C89.2189514,378.976311 89.2189514,379.609476 88.8284271,380 L86,382.828427 C85.6094757,383.218951 84.9763107,383.218951 84.5857864,382.828427 L83.1715729,381.414214 C82.7810486,381.023689 82.7810486,380.390524 83.1715729,380 C83.5620972,379.609476 84.1952621,379.609476 84.5857864,380 L85.2928932,380.707107 L87.4142136,378.585786 C87.8047379,378.195262 88.4379028,378.195262 88.8284271,378.585786 Z M100,380 C100.552285,380 101,380.447715 101,381 C101,381.552285 100.552285,382 100,382 L92,382 C91.4477153,382 91,381.552285 91,381 C91,380.447715 91.4477153,380 92,380 L100,380 Z M95,371 C95.5522847,371 96,371.447715 96,372 C96,372.552285 95.5522847,373 95,373 L89,373 C88.4477153,373 88,372.552285 88,372 C88,371.447715 88.4477153,371 89,371 L95,371 Z" id="renwuzhongxin"></path>
        </g>
    </g>
</svg>