<?xml version="1.0" encoding="UTF-8"?>
<svg width="18px" height="18px" viewBox="0 0 18 18" version="1.1" xmlns="http://www.w3.org/2000/svg" xmlns:xlink="http://www.w3.org/1999/xlink">
    <!-- Generator: Sketch 60.1 (88133) - https://sketch.com -->
    <title>shezhi</title>
    <desc>Created with Sketch.</desc>
    <g id="页面-1" stroke="none" stroke-width="1" fill="none" fill-rule="evenodd">
        <g id="icon" transform="translate(-162.000000, -409.000000)" fill="#000000">
            <path d="M173.205804,409.364356 C173.482992,409.050953 174.011498,408.912686 174.389706,409.057537 C174.389706,409.057537 174.723564,409.190536 175.499692,409.665909 C176.27582,410.145232 176.550544,410.394111 176.550544,410.394111 C176.858531,410.673278 177.010061,411.235561 176.894258,411.642459 L176.894258,411.642459 L176.803094,411.937427 C176.631853,412.688016 176.723017,413.505762 177.113545,414.226064 C177.500376,414.943732 178.110191,415.42964 178.800082,415.652183 L178.800082,415.652183 L179.090822,415.724608 C179.485046,415.818102 179.86079,416.243436 179.932243,416.663502 C179.932243,416.663502 179.996304,417.040113 180,418.001394 C180,418.832221 179.951883,419.225875 179.939052,419.316079 L179.935939,419.336652 C179.865718,419.758035 179.485046,420.182052 179.09575,420.275546 L179.09575,420.275546 L178.819793,420.344021 C178.12867,420.562613 177.507768,421.057738 177.120936,421.77804 C176.731641,422.493075 176.641708,423.309504 176.809253,424.056143 L176.809253,424.056143 L176.894258,424.357695 C177.010061,424.768544 176.858531,425.32951 176.550544,425.606043 C176.550544,425.606043 176.280747,425.854922 175.503388,426.334245 C174.72726,426.808301 174.389706,426.9413 174.389706,426.9413 C174.011498,427.088785 173.478064,426.947885 173.205804,426.635798 L173.205804,426.635798 L173.01362,426.413255 C172.490042,425.881258 171.781671,425.55337 170.999384,425.55337 C170.222025,425.55337 169.516118,425.877308 168.990076,426.409304 L168.990076,426.409304 L168.79666,426.631847 C168.519472,426.945251 167.992198,427.083517 167.613989,426.93735 C167.613989,426.93735 167.277668,426.808301 166.502772,426.328978 L166.353919,426.236438 C165.689845,425.818894 165.449456,425.602092 165.449456,425.602092 C165.143933,425.321609 164.993635,424.760643 165.109438,424.353745 L165.109438,424.353745 L165.189515,424.064044 C165.359524,423.312138 165.268359,422.493075 164.877832,421.77409 C164.492232,421.049837 163.870098,420.558663 163.176511,420.34007 L163.176511,420.34007 L162.903018,420.271595 C162.510027,420.178101 162.134282,419.756718 162.062829,419.334018 C162.062829,419.334018 162,418.95609 162,417.997443 L162.0008,417.81366 C162.008098,416.991572 162.062829,416.663502 162.062829,416.663502 C162.134282,416.240802 162.514954,415.818102 162.903018,415.724608 L162.903018,415.724608 L163.186366,415.656133 C163.87749,415.437541 164.494696,414.947683 164.88276,414.226064 C165.270823,413.505762 165.359524,412.691966 165.193211,411.940061 L165.193211,411.940061 L165.109438,411.642459 C164.993635,411.23161 165.143933,410.673278 165.449456,410.398062 C165.449456,410.398062 165.72418,410.149182 166.499076,409.665909 C167.276436,409.190536 167.613989,409.057537 167.613989,409.057537 C167.992198,408.912686 168.524399,409.050953 168.79666,409.364356 L168.79666,409.364356 L168.99254,409.59085 C169.516118,410.121529 170.224488,410.446784 170.999384,410.446784 C171.776744,410.446784 172.481418,410.12548 173.0013,409.597434 L173.0013,409.597434 Z M170.999871,414.142849 C168.86963,414.142849 167.142729,415.869751 167.142729,417.999992 C167.142729,420.130233 168.86963,421.857135 170.999871,421.857135 C173.130113,421.857135 174.857014,420.130233 174.857014,417.999992 C174.857014,415.869751 173.130113,414.142849 170.999871,414.142849 Z" id="shezhi"></path>
        </g>
    </g>
</svg>