<?xml version="1.0" encoding="UTF-8"?>
<svg width="20px" height="22px" viewBox="0 0 20 22" version="1.1" xmlns="http://www.w3.org/2000/svg" xmlns:xlink="http://www.w3.org/1999/xlink">
    <!-- Generator: Sketch 60.1 (88133) - https://sketch.com -->
    <title>tongxunlu</title>
    <desc>Created with Sketch.</desc>
    <g id="页面-1" stroke="none" stroke-width="1" fill="none" fill-rule="evenodd">
        <g id="icon" transform="translate(-62.000000, -145.000000)" fill="#000000">
            <path d="M73.4899362,145.39613 L80.5100638,149.417754 C81.4320395,149.945927 82,150.92203 82,151.978376 L82,160.021624 C82,161.07797 81.4320395,162.054073 80.5100638,162.582246 L73.4899362,166.60387 C72.5679605,167.132043 71.4320395,167.132043 70.5100638,166.60387 L63.4899362,162.582246 C62.5679605,162.054073 62,161.07797 62,160.021624 L62,151.978376 C62,150.92203 62.5679605,149.945927 63.4899362,149.417754 L70.5100638,145.39613 C71.4320395,144.867957 72.5679605,144.867957 73.4899362,145.39613 Z M74.4005184,158.386709 C74.1010904,157.957206 73.521059,157.831377 73.0705743,158.098199 L73.0705743,158.098199 L72.0049126,158.729389 L71.8866905,158.794144 C71.2878292,159.096335 70.57799,159.07475 69.9949827,158.729389 L69.9949827,158.729389 L68.9290031,158.098175 C68.4784409,157.831377 67.89836,157.957329 67.5990107,158.386954 L67.5990107,158.386954 L67.2408987,158.900915 C67.0841854,159.125779 67,159.394704 67,159.670452 C67,160.404741 67.5844868,161 68.3054877,161 L68.3054877,161 L73.6944075,161 C73.9651649,161 74.2292236,160.914263 74.4500187,160.754662 C75.0379751,160.329658 75.1763092,159.499707 74.7589966,158.900915 L74.7589966,158.900915 Z M76.346731,157.339219 C76.0473992,156.926231 75.4852143,156.804708 75.0420325,157.057191 L75.0420325,157.057191 L74.6793865,157.26389 C74.8247894,157.34931 74.948691,157.471514 75.0365909,157.622175 L75.0365909,157.622175 L75.7478624,158.841302 L75.8364276,159.012695 C75.9691877,159.304894 76.0280402,159.627553 76.0180148,159.946775 C76.1633262,159.905424 76.3014512,159.840393 76.4263124,159.75358 C77.0396119,159.327167 77.1839088,158.494465 76.7486084,157.893688 L76.7486084,157.893688 Z M71.7331432,152.179833 C71.2794726,151.940056 70.7205274,151.940056 70.2668568,152.179833 L70.2668568,152.179833 L68.8760003,152.914938 C68.4223298,153.154715 68.1428571,153.597841 68.1428571,154.077395 L68.1428571,154.077395 L68.1428571,155.547605 C68.1428571,156.027159 68.4223298,156.470285 68.8760003,156.710062 L68.8760003,156.710062 L70.2668568,157.445167 C70.7205274,157.684944 71.2794726,157.684944 71.7331432,157.445167 L71.7331432,157.445167 L73.1239997,156.710062 C73.5776702,156.470285 73.8571429,156.027159 73.8571429,155.547605 L73.8571429,155.547605 L73.8571429,154.077395 C73.8571429,153.597841 73.5776702,153.154715 73.1239997,152.914938 L73.1239997,152.914938 Z M73.9992113,151.191822 C73.5718577,150.936059 73.0453363,150.936059 72.6179827,151.191822 L72.6179827,151.191822 L72.499,151.262 L74.0181404,152.17112 L74.1421753,152.253148 C74.5814231,152.572892 74.8468776,153.096389 74.8468776,153.659066 L74.8468776,153.659066 L74.8468776,155.540934 L74.8393886,155.704285 C74.8145671,155.974165 74.7287545,156.230913 74.592578,156.455449 L74.592578,156.455449 L75.3093857,156.024066 C75.7367393,155.768304 76,155.295636 76,154.784112 L76,154.784112 L76,153.215888 C76,152.704364 75.7367393,152.231696 75.3093857,151.975934 L75.3093857,151.975934 Z M69.9285714,153.875 C70.125816,153.875 70.2857143,154.034898 70.2857143,154.232143 L70.2857143,154.232143 L70.2857143,155.017857 L70.2784584,155.089834 C70.2451562,155.252578 70.1011604,155.375 69.9285714,155.375 C69.7313269,155.375 69.5714286,155.215102 69.5714286,155.017857 L69.5714286,155.017857 L69.5714286,154.232143 L69.5786844,154.160166 C69.6119867,153.997422 69.7559824,153.875 69.9285714,153.875 Z M72.0714286,153.875 C72.2686731,153.875 72.4285714,154.034898 72.4285714,154.232143 L72.4285714,154.232143 L72.4285714,155.017857 L72.4213156,155.089834 C72.3880133,155.252578 72.2440176,155.375 72.0714286,155.375 C71.874184,155.375 71.7142857,155.215102 71.7142857,155.017857 L71.7142857,155.017857 L71.7142857,154.232143 L71.7215416,154.160166 C71.7548438,153.997422 71.8988396,153.875 72.0714286,153.875 Z" id="tongxunlu"></path>
        </g>
    </g>
</svg>