<?xml version="1.0" encoding="UTF-8"?>
<svg width="32px" height="28px" viewBox="0 0 32 28" version="1.1" xmlns="http://www.w3.org/2000/svg" xmlns:xlink="http://www.w3.org/1999/xlink">
    <!-- Generator: Sketch 60.1 (88133) - https://sketch.com -->
    <title>tuijianshouyi</title>
    <desc>Created with Sketch.</desc>
    <g id="页面-1" stroke="none" stroke-width="1" fill="none" fill-rule="evenodd">
        <g id="icon" transform="translate(-166.000000, -283.000000)" fill="#000000" fill-rule="nonzero">
            <path d="M188,309 C188.552285,309 189,309.447715 189,310 C189,310.552285 188.552285,311 188,311 L176,311 C175.447715,311 175,310.552285 175,310 C175,309.447715 175.447715,309 176,309 L188,309 Z M188.109863,285.000928 L175.890137,285.000928 L175.474158,285.008634 C174.652609,285.034191 174.323814,285.119102 173.989506,285.297892 C173.686191,285.460106 173.460106,285.686191 173.297892,285.989506 L173.221914,286.145225 C173.071193,286.489629 173.009038,286.905178 173.000928,287.890137 L173,296 C173,300.970563 177.029437,305 182,305 C186.881803,305 190.855791,301.113186 190.996163,296.265362 L191,296 L191,288.12777 C191,286.804067 190.922157,286.400961 190.702108,285.989506 C190.539894,285.686191 190.313809,285.460106 190.010494,285.297892 L189.854775,285.221914 C189.510371,285.071193 189.094822,285.009038 188.109863,285.000928 Z M185.67197,288.006527 C185.801745,287.989121 185.93152,288.006527 186.061295,288.058745 C186.19107,288.110962 186.327333,288.177685 186.470086,288.258912 C186.794523,288.444575 186.969719,288.63894 186.995674,288.842008 C187.021629,289.045077 186.930787,289.309066 186.723147,289.633975 L186.723147,289.633975 L184.387199,293.097741 L185.886099,293.097741 L186.026602,293.102073 C186.659673,293.142506 186.976208,293.465971 186.976208,294.072469 C186.976208,294.710683 186.612838,295.029791 185.886099,295.029791 L185.886099,295.029791 L183.14136,295.029791 L183.14136,295.91749 L185.886099,295.91749 L186.026602,295.921822 C186.659673,295.962255 186.976208,296.28572 186.976208,296.892218 C186.976208,297.530432 186.612838,297.84954 185.886099,297.84954 L185.886099,297.84954 L183.14136,297.84954 L183.14136,299.868619 L183.138014,300.031255 C183.1224,300.39424 183.052139,300.641729 182.927231,300.773724 C182.784479,300.924575 182.473019,301 181.992852,301 C181.577572,301 181.27909,300.924575 181.097405,300.773724 C180.91572,300.622873 180.824878,300.321172 180.824878,299.868619 L180.824878,299.868619 L180.824878,297.84954 L178.119071,297.84954 L177.978568,297.845285 C177.345497,297.805574 177.028962,297.487885 177.028962,296.892218 C177.028962,296.242399 177.379354,295.91749 178.080139,295.91749 L178.080139,295.91749 L180.824878,295.91749 L180.824878,295.029791 L178.119071,295.029791 L177.978568,295.025536 C177.345497,294.985825 177.028962,294.668136 177.028962,294.072469 C177.028962,293.42265 177.379354,293.097741 178.080139,293.097741 L178.080139,293.097741 L179.617971,293.097741 L179.029118,292.238326 L179.029118,292.238326 L178.430531,291.365858 C178.028229,290.779861 177.632415,290.202566 177.243091,289.633975 C177.035451,289.332273 176.96083,289.065384 177.019229,288.833305 C177.077628,288.601227 177.236602,288.403961 177.496152,288.241506 C177.794634,288.055844 178.070406,287.980418 178.323467,288.01523 C178.576528,288.050042 178.819856,288.241506 179.05345,288.589623 L179.05345,288.589623 L182.012318,293.010711 L182.732569,291.916318 L182.732569,291.916318 L183.452819,290.826276 C183.932987,290.101032 184.413154,289.372887 184.893321,288.641841 C185.036073,288.432971 185.169092,288.279219 185.292379,288.180586 C185.415665,288.081953 185.542195,288.023933 185.67197,288.006527 Z M194.340382,289.000676 L193,289.000089 L193,296 C193,296.635883 192.946044,297.259165 192.842461,297.865516 L192.855014,297.790469 L192.855014,297.790469 C194.61385,297.237685 195.906124,295.631899 195.995102,293.711836 L196,293.5 L196,290.845828 C196,289.928532 195.956676,289.704182 195.835675,289.477929 C195.760614,289.337577 195.662423,289.239386 195.522071,289.164325 C195.32814,289.06061 195.135607,289.013964 194.506899,289.002753 L194.340382,289.000676 Z M171,289.000089 L169.659618,289.000676 L169.344758,289.006306 C168.832295,289.022134 168.655699,289.069253 168.477929,289.164325 C168.337577,289.239386 168.239386,289.337577 168.164325,289.477929 C168.051967,289.688021 168.006585,289.896473 168.000676,290.659618 L168,293.5 C168,295.513181 169.321993,297.217594 171.145223,297.792486 C171.049714,297.209145 171,296.610378 171,296 L171,289.000089 Z M192.966346,286.997099 L194.154172,287 C195.49145,287 195.97638,287.139238 196.465269,287.400699 C196.954157,287.66216 197.33784,288.045843 197.599301,288.534731 L197.691586,288.719552 C197.893396,289.158171 198,289.675709 198,290.845828 L198,293.5 C198,296.830522 195.495119,299.575999 192.266503,299.955281 L192.213385,300.092809 C190.589617,304.14112 186.628672,307 182,307 C177.306028,307 173.298757,304.059887 171.719293,299.920768 L171.732378,299.954887 L171.732378,299.954887 C168.504881,299.575999 166,296.830522 166,293.5 L166,290.845828 C166,289.50855 166.139238,289.02362 166.400699,288.534731 C166.66216,288.045843 167.045843,287.66216 167.534731,287.400699 L167.719552,287.308414 C168.126841,287.121019 168.602178,287.015715 169.604868,287.001628 L171.033516,286.999079 L171.031839,287.023508 C171.098623,286.033718 171.269414,285.541537 171.534265,285.046309 C171.88288,284.394457 172.394457,283.88288 173.046309,283.534265 C173.663852,283.203999 174.276658,283.019994 175.855516,283.00154 L187.87223,283 C189.655267,283 190.30184,283.185651 190.953691,283.534265 C191.605543,283.88288 192.11712,284.394457 192.465735,285.046309 C192.735283,285.550321 192.907407,286.051178 192.971616,287.07665 L192.966346,286.997099 L192.966346,286.997099 Z" id="tuijianshouyi"></path>
        </g>
    </g>
</svg>