<?xml version="1.0" encoding="UTF-8"?>
<svg width="20px" height="14px" viewBox="0 0 20 14" version="1.1" xmlns="http://www.w3.org/2000/svg" xmlns:xlink="http://www.w3.org/1999/xlink">
    <!-- Generator: Sketch 60.1 (88133) - https://sketch.com -->
    <title>UGyouxidating</title>
    <desc>Created with Sketch.</desc>
    <g id="页面-1" stroke="none" stroke-width="1" fill="none" fill-rule="evenodd">
        <g id="icon" transform="translate(-196.000000, -411.000000)" fill="#000000">
            <path d="M210.461834,411 C213.916851,411 215.284332,414.310766 215.839714,419.632711 C216.374338,424.748789 215.470979,424.975337 214.609725,424.985195 L214.408456,424.985544 L214.214975,424.983103 C213.446468,424.962832 212.723367,424.780393 211.340302,423.138437 C209.784981,421.29246 209.17262,421.749741 206.450808,421.749741 C203.727743,421.749741 202.499891,420.87456 201.110495,422.884515 C201.110495,422.884515 199.893913,425.202847 197.894662,424.985637 C195.893532,424.767816 195.561054,422.239228 196.505892,417.352926 C197.449479,412.466013 199.394883,411 201.504961,411 C203.616291,411 204.672582,413.170874 206.178439,413.170874 C207.683669,413.170874 208.61849,411 210.461834,411 Z M210.0625,414.75 C209.914567,414.75 209.790641,414.852792 209.758253,414.990847 L209.75,415.0625 L209.749,416.625 L208.1875,416.625 C208.014911,416.625 207.875,416.764911 207.875,416.9375 C207.875,417.085433 207.977792,417.209359 208.115847,417.241747 L208.1875,417.25 L209.749,417.25 L209.75,418.8125 C209.75,418.985089 209.889911,419.125 210.0625,419.125 C210.210433,419.125 210.334359,419.022208 210.366747,418.884153 L210.375,418.8125 L210.374,417.25 L211.9375,417.25 C212.110089,417.25 212.25,417.110089 212.25,416.9375 C212.25,416.789567 212.147208,416.665641 212.009153,416.633253 L211.9375,416.625 L210.374,416.625 L210.375,415.0625 C210.375,414.889911 210.235089,414.75 210.0625,414.75 Z M201.311985,414.75 C200.105799,414.75 199.125,415.73063 199.125,416.937243 C199.125,418.14437 200.105799,419.125 201.311985,419.125 C202.517658,419.125 203.5,418.14437 203.5,416.937243 C203.5,415.73063 202.517658,414.75 201.311985,414.75 Z M201.311911,415.375 C202.173554,415.375 202.875,416.075918 202.875,416.936911 C202.875,417.798493 202.173554,418.5 201.311911,418.5 C200.450269,418.5 199.75,417.798493 199.75,416.936911 C199.75,416.075918 200.450269,415.375 201.311911,415.375 Z" id="UGyouxidating"></path>
        </g>
    </g>
</svg>