<?xml version="1.0" encoding="UTF-8"?>
<svg width="30px" height="30px" viewBox="0 0 30 30" version="1.1" xmlns="http://www.w3.org/2000/svg" xmlns:xlink="http://www.w3.org/1999/xlink">
    <!-- Generator: Sketch 60.1 (88133) - https://sketch.com -->
    <title>ugzhudan</title>
    <desc>Created with Sketch.</desc>
    <g id="页面-1" stroke="none" stroke-width="1" fill="none" fill-rule="evenodd">
        <g id="icon" transform="translate(-213.000000, -324.000000)" fill="#000000" fill-rule="nonzero">
            <path d="M228.502716,324.540177 L237.974574,330.02421 C239.218544,330.744445 239.98486,332.075496 239.98486,333.515967 L239.984851,336.616928 C239.299986,336.593302 238.614655,336.710866 237.973913,336.967272 L237.974574,333.515967 C237.974574,332.851134 237.648096,332.232918 237.108661,331.8585 L236.969431,331.770088 L227.497573,326.286055 C226.927421,325.955947 226.235989,325.928438 225.645623,326.203528 L225.487287,326.286055 L216.015429,331.770088 C215.441289,332.102505 215.070647,332.69515 215.017022,333.350844 L215.010286,333.515967 L215.010286,344.484033 C215.010286,345.148866 215.336764,345.767082 215.876199,346.1415 L216.015429,346.229912 L225.487287,351.713945 C226.05744,352.044053 226.748871,352.071562 227.339237,351.796472 L227.497573,351.713945 L229.068,350.803 L229.08904,350.857508 C229.363861,351.51321 229.849267,352.024354 230.43748,352.339356 L228.502716,353.459823 C227.258747,354.180059 225.726113,354.180059 224.482144,353.459823 L215.010286,347.97579 C213.766317,347.255555 213,345.924504 213,344.484033 L213,333.515967 C213,332.075496 213.766317,330.744445 215.010286,330.02421 L224.482144,324.540177 C225.726113,323.819941 227.258747,323.819941 228.502716,324.540177 Z M241.95658,339.234216 L242.103845,339.371928 C242.499952,339.768034 242.764909,340.240168 242.898503,340.738068 C243.032097,341.235967 243.034328,341.759631 242.904982,342.258798 C242.775635,342.757965 242.514711,343.232634 242.121995,343.632544 L237.222094,348.622204 L237.102536,348.742032 L237.029652,348.809395 C237.019355,348.818236 237.009472,348.826381 236.999239,348.834575 C236.948074,348.875542 236.898707,348.906973 236.839942,348.935997 L236.763742,348.970288 C236.718807,348.988676 236.657629,349.011195 236.553249,349.048051 L232.35328,350.531022 C231.83256,350.714884 231.26162,350.441889 231.078051,349.921272 C231.002157,349.706033 231.002223,349.471261 231.078237,349.255979 L232.640661,344.839854 C232.652505,344.810668 232.662507,344.788568 232.673631,344.765713 C232.701443,344.708578 232.731365,344.660626 232.770466,344.610531 L232.822576,344.548327 C232.854095,344.513126 232.898112,344.467195 232.973997,344.389921 L237.881734,339.392282 C238.991046,338.26265 240.780378,338.205925 241.95658,339.234216 Z M237.65,342.479 L234.433592,345.756768 L233.658913,347.949108 L235.834993,347.180795 L239.063,343.893 L237.65,342.479 Z M230.284313,335.381198 C232.131151,335.497325 233.170248,336.01301 233.405629,336.93022 C233.375452,337.417365 233.142083,337.676191 232.702503,337.704731 C232.496293,337.704731 232.246829,337.602381 231.955118,337.402603 C231.427019,337.060125 230.869749,336.886918 230.284313,336.886918 C228.964569,336.972537 228.262449,337.819874 228.17393,339.424992 C228.262449,341.030109 228.964569,341.876462 230.284313,341.963065 C231.515538,341.876462 232.160322,341.288936 232.218664,340.198519 L231.074953,340.198519 C230.577031,340.169979 230.313485,339.912136 230.284313,339.424992 C230.313485,338.966387 230.577031,338.722322 231.074953,338.692798 L232.967056,338.692798 C233.66817,338.692798 234.005147,339.05299 233.976982,339.768453 C233.83012,342.091002 232.598895,343.296563 230.284313,343.381198 C227.880206,343.239483 226.590639,341.918779 226.415612,339.424992 C226.590639,336.902664 227.880206,335.553421 230.284313,335.381198 Z M224.96659,335.4245 C225.493683,335.453039 225.771312,335.739421 225.800483,336.285614 L225.800483,340.242804 C225.625456,342.192368 224.496834,343.239483 222.416627,343.381198 C220.305238,343.239483 219.162532,342.192368 218.987505,340.242804 L218.987505,336.285614 C219.016677,335.739421 219.295312,335.453039 219.82341,335.4245 C220.349497,335.453039 220.627127,335.739421 220.657304,336.285614 L220.657304,340.156201 C220.745823,341.302713 221.331258,341.905002 222.416627,341.963065 C223.471819,341.876462 224.042166,341.273189 224.130685,340.156201 L224.130685,336.285614 C224.15885,335.739421 224.438491,335.453039 224.96659,335.4245 Z M239.392104,340.716436 L239.307938,340.792802 L239.051,341.053 L240.464,342.467 L240.695791,342.232024 C240.799429,342.126487 240.876491,342.00953 240.927348,341.885079 L240.969485,341.758275 C241.012127,341.593716 241.011392,341.421372 240.967351,341.257231 C240.932823,341.128548 240.872269,341.006301 240.785351,340.894421 L240.689631,340.786141 C240.328021,340.430991 239.771224,340.410594 239.392104,340.716436 Z" id="ugzhudan"></path>
        </g>
    </g>
</svg>