<?xml version="1.0" encoding="UTF-8"?>
<svg width="20px" height="22px" viewBox="0 0 20 22" version="1.1" xmlns="http://www.w3.org/2000/svg" xmlns:xlink="http://www.w3.org/1999/xlink">
    <!-- Generator: Sketch 60.1 (88133) - https://sketch.com -->
    <title>wode</title>
    <desc>Created with Sketch.</desc>
    <g id="页面-1" stroke="none" stroke-width="1" fill="none" fill-rule="evenodd">
        <g id="icon" transform="translate(-134.000000, -145.000000)" fill="#000000">
            <path d="M145.489936,145.39613 L152.510064,149.417754 C153.43204,149.945927 154,150.92203 154,151.978376 L154,160.021624 C154,161.07797 153.43204,162.054073 152.510064,162.582246 L145.489936,166.60387 C144.56796,167.132043 143.43204,167.132043 142.510064,166.60387 L135.489936,162.582246 C134.56796,162.054073 134,161.07797 134,160.021624 L134,151.978376 C134,150.92203 134.56796,149.945927 135.489936,149.417754 L142.510064,145.39613 C143.43204,144.867957 144.56796,144.867957 145.489936,145.39613 Z M147.9424,158 L140.028511,158 C139.518405,158.000033 139.104882,158.413556 139.104882,158.923663 L139.110847,159.028467 L139.110847,159.028467 L139.128666,159.131918 L139.128666,159.131918 C139.641571,161.348112 141.627876,163 144,163 C146.283563,163 148.209577,161.469153 148.807783,159.37772 L148.863141,159.166744 L148.863141,159.166744 C148.984695,158.658233 148.671003,158.147464 148.162492,158.025911 C148.090396,158.008677 148.016527,157.999971 147.9424,158 Z M141,151 C140.447715,151 140,151.447715 140,152 L140,152 L140,154 C140,154.552285 140.447715,155 141,155 C141.552285,155 142,154.552285 142,154 L142,154 L142,152 C142,151.447715 141.552285,151 141,151 Z M147,151 C146.447715,151 146,151.447715 146,152 L146,152 L146,154 C146,154.552285 146.447715,155 147,155 C147.552285,155 148,154.552285 148,154 L148,154 L148,152 C148,151.447715 147.552285,151 147,151 Z" id="wode"></path>
        </g>
    </g>
</svg>