<?xml version="1.0" encoding="UTF-8"?>
<svg width="28px" height="22px" viewBox="0 0 28 22" version="1.1" xmlns="http://www.w3.org/2000/svg" xmlns:xlink="http://www.w3.org/1999/xlink">
    <!-- Generator: Sketch 60.1 (88133) - https://sketch.com -->
    <title>xiangce</title>
    <desc>Created with Sketch.</desc>
    <g id="页面-1" stroke="none" stroke-width="1" fill="none" fill-rule="evenodd">
        <g id="icon" transform="translate(-70.000000, -214.000000)" fill="#000000">
            <path d="M74,214 L94,214 C96.209139,214 98,215.790861 98,218 L98,232 C98,234.209139 96.209139,236 94,236 L74,236 C71.790861,236 70,234.209139 70,232 L70,218 C70,215.790861 71.790861,214 74,214 Z M72,218.485294 C72,217.11036 73.1178153,216 74.4964255,216 L93.5027166,216 C94.8821847,216 96,217.11036 96,218.485294 L96,226.1875 L90.0008579,220.5 L82.2857143,227 L77.1428571,222.125 L72,227 L72,218.485294 Z" id="xiangce"></path>
        </g>
    </g>
</svg>