<?xml version="1.0" encoding="UTF-8"?>
<svg width="16px" height="14px" viewBox="0 0 16 14" version="1.1" xmlns="http://www.w3.org/2000/svg" xmlns:xlink="http://www.w3.org/1999/xlink">
    <!-- Generator: Sketch 60.1 (88133) - https://sketch.com -->
    <title>xihuan</title>
    <desc>Created with Sketch.</desc>
    <g id="页面-1" stroke="none" stroke-width="1" fill="none" fill-rule="evenodd">
        <g id="icon" transform="translate(-79.000000, -31.000000)" fill="#000000" fill-rule="nonzero">
            <path d="M90.4101528,31 C92.1296873,31 95,32.4178826 95,35.5564455 C95,38.1628528 92.8012857,41.1140828 88.403857,44.4101355 L88.0781737,44.6519303 C87.441045,45.120493 86.5652465,45.1155282 85.9336435,44.6397732 C81.3112145,41.1579278 79,38.130152 79,35.5564455 C79,32.8732918 81.2572886,31 83.6627829,31 C84.8084811,31 85.9210038,31.4078979 87.000351,32.2236938 C88.1203949,31.4078979 89.2569955,31 90.4101528,31 Z M90.4101528,32 C89.5574186,32 88.7013712,32.2817122 87.8277919,32.8653396 L87.5890976,33.0320114 L86.9893246,33.4688624 L86.3973819,33.0214583 C85.4845756,32.331538 84.5803211,32 83.6627829,32 C81.6732524,32 80,33.5546911 80,35.5564455 C80,37.7255681 82.1421752,40.5318964 86.5353037,43.841021 C86.7830756,44.0276552 87.1190533,44.0501409 87.3856574,43.909433 L87.4820743,43.8490196 L87.8040922,43.6099592 C91.9732629,40.4849951 94,37.764602 94,35.5564455 C94,33.4654818 92.1700489,32 90.4101528,32 Z" id="xihuan"></path>
        </g>
    </g>
</svg>