<?xml version="1.0" encoding="UTF-8"?>
<svg width="18px" height="16px" viewBox="0 0 18 16" version="1.1" xmlns="http://www.w3.org/2000/svg" xmlns:xlink="http://www.w3.org/1999/xlink">
    <!-- Generator: Sketch 60.1 (88133) - https://sketch.com -->
    <title>yijian</title>
    <desc>Created with Sketch.</desc>
    <g id="页面-1" stroke="none" stroke-width="1" fill="none" fill-rule="evenodd">
        <g id="icon" transform="translate(-232.000000, -410.000000)" fill="#000000">
            <path d="M247.436115,410 C248.327634,410 248.65092,410.092826 248.976846,410.267133 C249.302772,410.44144 249.55856,410.697228 249.732867,411.023154 C249.907174,411.34908 250,411.672366 250,412.563885 L250,423.436115 C250,424.327634 249.907174,424.65092 249.732867,424.976846 C249.55856,425.302772 249.302772,425.55856 248.976846,425.732867 C248.65092,425.907174 248.327634,426 247.436115,426 L234.563885,426 C233.672366,426 233.34908,425.907174 233.023154,425.732867 C232.697228,425.55856 232.44144,425.302772 232.267133,424.976846 C232.092826,424.65092 232,424.327634 232,423.436115 L232,412.563885 C232,411.672366 232.092826,411.34908 232.267133,411.023154 C232.44144,410.697228 232.697228,410.44144 233.023154,410.267133 C233.34908,410.092826 233.672366,410 234.563885,410 L247.436115,410 Z M235.591515,413.662697 C235.28254,413.490681 234.89262,413.601709 234.720604,413.910684 C234.54147,414.232444 234.650158,414.638305 234.966119,414.827482 L234.966119,414.827482 L240.513,418.148586 L240.53046,418.15867 C240.543937,418.166173 240.557567,418.173137 240.571011,418.178876 C240.587367,418.187238 240.604055,418.194884 240.621024,418.201799 L240.621024,418.201799 L240.628243,418.202929 C240.799374,418.272448 240.999872,418.265645 241.17451,418.168419 C241.180382,418.165149 241.186203,418.161788 241.19197,418.158335 L241.19197,418.158335 L246.738851,414.837231 L246.827341,414.774278 C247.073671,414.567723 247.145587,414.210017 246.984366,413.920433 C246.81235,413.611457 246.42243,413.50043 246.113455,413.672446 L246.113455,413.672446 L246.095994,413.68253 L240.86037,416.816239 L235.608976,413.672781 C235.603209,413.669328 235.597388,413.665967 235.591515,413.662697 Z" id="yijian"></path>
        </g>
    </g>
</svg>