<?xml version="1.0" encoding="UTF-8"?>
<svg width="36px" height="24px" viewBox="0 0 36 24" version="1.1" xmlns="http://www.w3.org/2000/svg" xmlns:xlink="http://www.w3.org/1999/xlink">
    <!-- Generator: Sketch 60.1 (88133) - https://sketch.com -->
    <title>yinhangkaguanli</title>
    <desc>Created with Sketch.</desc>
    <g id="页面-1" stroke="none" stroke-width="1" fill="none" fill-rule="evenodd">
        <g id="icon" transform="translate(-74.000000, -251.000000)" fill="#000000" fill-rule="nonzero">
            <path d="M107.436115,251 C108.327634,251 108.65092,251.092826 108.976846,251.267133 C109.302772,251.44144 109.55856,251.697228 109.732867,252.023154 C109.907174,252.34908 110,252.672366 110,253.563885 L110,272.436115 C110,273.327634 109.907174,273.65092 109.732867,273.976846 C109.55856,274.302772 109.302772,274.55856 108.976846,274.732867 C108.65092,274.907174 108.327634,275 107.436115,275 L76.5638852,275 C75.6723665,275 75.3490802,274.907174 75.0231543,274.732867 C74.6972284,274.55856 74.4414398,274.302772 74.2671327,273.976846 C74.1062338,273.675991 74.014763,273.377386 74.0016426,272.632023 L74,253.563885 C74,252.672366 74.0928256,252.34908 74.2671327,252.023154 C74.4414398,251.697228 74.6972284,251.44144 75.0231543,251.267133 C75.324009,251.106234 75.6226145,251.014763 76.3679772,251.001643 L107.436115,251 Z M108,260 L76,260 L76.000802,272.564601 L76.0067661,272.776954 C76.0096228,272.838209 76.0132812,272.89019 76.0175407,272.933668 L76.022,272.977 L76.0663319,272.982459 C76.1532886,272.990978 76.2742561,272.997093 76.4353989,272.999198 L107.436115,273 C107.663135,273 107.824972,272.993108 107.933668,272.982459 L107.977,272.977 L107.982459,272.933668 C107.990978,272.846711 107.997093,272.725744 107.999198,272.564601 L108,260 Z M86,263 C86.5522847,263 87,263.447715 87,264 C87,264.552285 86.5522847,265 86,265 L80,265 C79.4477153,265 79,264.552285 79,264 C79,263.447715 79.4477153,263 80,263 L86,263 Z M107.564601,253.000802 L76.4353989,253.000802 L76.2230456,253.006766 C76.1617913,253.009623 76.1098103,253.013281 76.0663319,253.017541 L76.022,253.022 L76.0175407,253.066332 C76.0090217,253.153289 76.0029071,253.274256 76.000802,253.435399 L76,258 L76,258 L108,258 L108,253.563885 C108,253.336865 107.993108,253.175028 107.982459,253.066332 L107.977,253.022 L107.861977,253.011627 L107.564601,253.000802 Z" id="yinhangkaguanli"></path>
        </g>
    </g>
</svg>