<?xml version="1.0" encoding="UTF-8"?>
<svg width="12px" height="10px" viewBox="0 0 12 10" version="1.1" xmlns="http://www.w3.org/2000/svg" xmlns:xlink="http://www.w3.org/1999/xlink">
    <!-- Generator: Sketch 60.1 (88133) - https://sketch.com -->
    <title>youxiang</title>
    <desc>Created with Sketch.</desc>
    <g id="页面-1" stroke="none" stroke-width="1" fill="none" fill-rule="evenodd">
        <g id="icon" transform="translate(-148.000000, -182.000000)" fill="#000000">
            <path d="M159.928087,186.423775 C159.974604,186.490765 159.999538,186.57037 159.999549,186.651926 L160,190 C160,191.104569 159.104569,192 158,192 L150,192 C148.895431,192 148,191.104569 148,190 L148.000402,186.660007 C148.000428,186.439093 148.179536,186.260029 148.40045,186.260055 C148.482117,186.260065 148.561824,186.285072 148.62886,186.331716 L151.410201,188.266973 L152.135829,188.786983 C152.226229,188.850617 152.307411,188.906699 152.379358,188.955235 L152.61794,189.109634 C152.705002,189.164041 152.799606,189.221381 152.901775,189.281633 C153.106041,189.402032 153.298592,189.492594 153.479392,189.552547 C153.615019,189.597881 153.743085,189.626057 153.863607,189.637311 L154.001844,189.642934 C154.155835,189.642934 154.323302,189.612957 154.504137,189.552547 C154.684866,189.492594 154.877593,189.401926 155.081684,189.281633 L155.365395,189.109568 C155.408918,189.082371 155.450559,189.055913 155.490319,189.030192 L155.718845,188.876771 L156.85991,188.067681 C157.20468,187.828035 158.04181,187.246616 159.3713,186.323425 C159.552745,186.197307 159.802052,186.242273 159.928087,186.423775 Z M158.928545,182 C159.218632,182 159.469785,182.112361 159.681838,182.33721 C159.893915,182.562008 160,182.832293 160,183.148041 C160,183.525888 159.890678,183.887047 159.671799,184.231319 C159.453085,184.575741 159.180823,184.869976 158.854945,185.113824 C157.176437,186.362339 156.131698,187.139671 155.721054,187.445743 C155.67642,187.479293 155.581476,187.552123 155.436432,187.664635 C155.291295,187.777122 155.170832,187.868021 155.074832,187.937358 C154.978832,188.006645 154.862779,188.084325 154.726648,188.1705 C154.590588,188.256423 154.462103,188.321186 154.341617,188.36401 C154.22106,188.40716 154.109416,188.428571 154.006755,188.428571 L154.006755,188.428571 L153.993269,188.428571 C153.890608,188.428571 153.77901,188.407185 153.658454,188.36401 C153.53792,188.321186 153.409553,188.256498 153.273375,188.1705 C153.137151,188.084426 153.021097,188.00667 152.925098,187.937358 C152.829168,187.868021 152.708611,187.777122 152.563521,187.664635 C152.418454,187.552223 152.323627,187.479293 152.278993,187.445743 C151.872735,187.139671 151.287917,186.703243 150.524516,186.136435 C149.761138,185.569628 149.303562,185.228749 149.151763,185.113975 C148.875022,184.913102 148.613784,184.636835 148.368308,184.28525 C148.122808,183.933691 148,183.607137 148,183.305789 C148,182.932717 148.092622,182.621795 148.277867,182.373047 C148.463135,182.124349 148.727657,182 149.071384,182 L149.071384,182 Z" id="youxiang"></path>
        </g>
    </g>
</svg>