<?xml version="1.0" encoding="UTF-8"?>
<svg width="32px" height="28px" viewBox="0 0 32 28" version="1.1" xmlns="http://www.w3.org/2000/svg" xmlns:xlink="http://www.w3.org/1999/xlink">
    <!-- Generator: Sketch 60.1 (88133) - https://sketch.com -->
    <title>zhanneixin</title>
    <desc>Created with Sketch.</desc>
    <g id="页面-1" stroke="none" stroke-width="1" fill="none" fill-rule="evenodd">
        <g id="icon" transform="translate(-28.000000, -367.000000)" fill="#000000" fill-rule="nonzero">
            <path d="M54.8722296,367 C56.6552671,367 57.3018396,367.185651 57.9536914,367.534265 C58.6055433,367.88288 59.1171204,368.394457 59.4657346,369.046309 C59.8143488,369.69816 60,370.344733 60,372.12777 L60,389.87223 C60,391.655267 59.8143488,392.30184 59.4657346,392.953691 C59.1171204,393.605543 58.6055433,394.11712 57.9536914,394.465735 C57.3018396,394.814349 56.6552671,395 54.8722296,395 L33.1277704,395 C31.3447329,395 30.6981604,394.814349 30.0463086,394.465735 C29.3944567,394.11712 28.8828796,393.605543 28.5342654,392.953691 C28.2039993,392.336148 28.0199937,391.723342 28.0015395,390.144484 L28,372.12777 C28,370.344733 28.1856512,369.69816 28.5342654,369.046309 C28.8828796,368.394457 29.3944567,367.88288 30.0463086,367.534265 C30.6638525,367.203999 31.276658,367.019994 32.855516,367.00154 L54.8722296,367 Z M38.7145813,383.6986 L30.337,392.076 L30.3843835,392.155777 C30.5376133,392.387396 30.7367439,392.566929 30.9895063,392.702108 L31.1452249,392.778086 C31.4896294,392.928807 31.905178,392.990962 32.8901374,392.999072 L54.8722296,393 C56.1959334,393 56.5990386,392.922157 57.0104937,392.702108 C57.2907985,392.5522 57.5051466,392.347744 57.6640818,392.078196 L49.2854187,383.6986 C46.1384871,385.985314 41.8615129,385.985314 38.7145813,383.6986 Z M30,376.189 L30,389.585 L37.176,382.409 L30,376.189 Z M58,376.189 L50.823,382.409 L57.999,389.585 L58,376.189 Z M55.1098626,369.000928 L32.8901374,369.000928 L32.4741579,369.008634 C31.6526086,369.034191 31.3238136,369.119102 30.9895063,369.297892 C30.6861914,369.460106 30.4601064,369.686191 30.2978918,369.989506 L30.2219137,370.145225 C30.0711926,370.489629 30.0090382,370.905178 30.0009279,371.890137 L30,373.544 L39.4154862,381.703459 C41.977289,383.923688 45.748728,383.982115 48.3741958,381.87874 L48.5845138,381.703459 L58,373.543 L58,372.12777 C58,370.804067 57.9221568,370.400961 57.7021082,369.989506 C57.5398936,369.686191 57.3138086,369.460106 57.0104937,369.297892 L56.8547751,369.221914 C56.5103706,369.071193 56.094822,369.009038 55.1098626,369.000928 Z" id="zhanneixin"></path>
        </g>
    </g>
</svg>