<?xml version="1.0" encoding="UTF-8"?>
<svg width="18px" height="18px" viewBox="0 0 18 18" version="1.1" xmlns="http://www.w3.org/2000/svg" xmlns:xlink="http://www.w3.org/1999/xlink">
    <!-- Generator: Sketch 60.1 (88133) - https://sketch.com -->
    <title>zj_gonggao</title>
    <desc>Created with Sketch.</desc>
    <g id="页面-1" stroke="none" stroke-width="1" fill="none" fill-rule="evenodd">
        <g id="icon" transform="translate(-335.000000, -186.000000)" fill="#000000">
            <path d="M346.4,186.800225 C346.642578,186.982156 346.863484,187.190931 347.058581,187.422411 L347.2,187.600214 L349.749,191 L351,191.00017 C352.104569,191.00017 353,191.895601 353,193.00017 L353,202 C353,203.104569 352.104569,204 351,204 L337,204 C335.895431,204 335,203.104569 335,202 L335,193.00017 C335,191.895601 335.895431,191.00017 337,191.00017 L338.249,191 L340.8,187.600214 C342.125483,185.832926 344.632689,185.474759 346.4,186.800225 Z M349.500007,200.000052 L338.499993,200.000052 C338.223855,200.000052 338,200.223907 338,200.500046 C338,200.776185 338.223855,201.000039 338.499993,201.000039 L338.499993,201.000039 L349.500007,201.000039 C349.776145,201.000039 350,200.776185 350,200.500046 C350,200.223907 349.776145,200.000052 349.500007,200.000052 L349.500007,200.000052 Z M349.500007,197.000092 L338.499993,197.000092 C338.223855,197.000092 338,197.223946 338,197.500085 C338,197.776224 338.223855,198.000078 338.499993,198.000078 L338.499993,198.000078 L349.500007,198.000078 C349.776145,198.000078 350,197.776224 350,197.500085 C350,197.223946 349.776145,197.000092 349.500007,197.000092 L349.500007,197.000092 Z M342.500007,194.000131 L338.499993,194.000131 C338.223855,194.000131 338,194.223985 338,194.500124 C338,194.776263 338.223855,195.000118 338.499993,195.000118 L338.499993,195.000118 L342.500007,195.000118 C342.776145,195.000118 343,194.776263 343,194.500124 C343,194.223985 342.776145,194.000131 342.500007,194.000131 L342.500007,194.000131 Z M342.503723,188.672954 L342.4,188.800199 L340.749,191 L347.25,191 L345.6,188.800199 C345.486292,188.648589 345.351611,188.513911 345.2,188.400204 C344.360527,187.770608 343.187177,187.900751 342.503723,188.672954 Z" id="zj_gonggao"></path>
        </g>
    </g>
</svg>