<?xml version="1.0" encoding="UTF-8"?>
<svg width="18px" height="18px" viewBox="0 0 18 18" version="1.1" xmlns="http://www.w3.org/2000/svg" xmlns:xlink="http://www.w3.org/1999/xlink">
    <!-- Generator: Sketch 60.1 (88133) - https://sketch.com -->
    <title>zj_huodong</title>
    <desc>Created with Sketch.</desc>
    <g id="页面-1" stroke="none" stroke-width="1" fill="none" fill-rule="evenodd">
        <g id="icon" transform="translate(-401.000000, -186.000000)" fill="#000000">
            <path d="M409,195 L409,204 L403,204 C402.447715,204 402,203.552285 402,203 L402,196 C402,195.447715 402.447715,195 403,195 L409,195 Z M417,195 C417.552285,195 418,195.447715 418,196 L418,203 C418,203.552285 417.552285,204 417,204 L411,204 L411,195 L417,195 Z M409,190 L409,194 L402,194 C401.447715,194 401,193.552285 401,193 L401,191 C401,190.447715 401.447715,190 402,190 L409,190 Z M418,190 C418.552285,190 419,190.447715 419,191 L419,193 C419,193.552285 418.552285,194 418,194 L411,194 L411,190 L418,190 Z M415.225797,186.189133 C415.45789,186.55544 415.638755,186.939834 415.768394,187.342316 C415.893332,187.730204 415.970189,188.133338 415.998966,188.551716 C416.012814,188.753478 415.886099,188.931999 415.704939,188.984472 L415.5955,189 L411.404488,189 C411.181095,189 411,188.812587 411,188.581402 C411,188.434365 411.074547,188.298108 411.19638,188.222458 L414.679366,186.059768 C414.865529,185.944074 415.106726,186.001204 415.225797,186.189133 Z M405.24859,186.024401 L405.320634,186.059768 L408.80362,188.222458 C408.925453,188.298108 409,188.434365 409,188.581402 C409,188.783689 408.861349,188.952463 408.677031,188.991496 L408.595512,189 L404.4045,189 L404.295061,188.984472 C404.113901,188.931999 403.987186,188.753478 404.001034,188.551716 C404.029811,188.133338 404.106668,187.730204 404.231606,187.342316 C404.361245,186.939834 404.54211,186.55544 404.774203,186.189133 C404.87839,186.024695 405.07608,185.9604 405.24859,186.024401 Z" id="zj_huodong"></path>
        </g>
    </g>
</svg>