<?xml version="1.0" encoding="UTF-8"?>
<svg width="40px" height="40px" viewBox="0 0 40 40" version="1.1" xmlns="http://www.w3.org/2000/svg" xmlns:xlink="http://www.w3.org/1999/xlink">
    <!-- Generator: Sketch 60.1 (88133) - https://sketch.com -->
    <title>guanliyuan</title>
    <desc>Created with Sketch.</desc>
    <defs>
        <linearGradient x1="50%" y1="4.4086561%" x2="50%" y2="97.3832452%" id="linearGradient-1">
            <stop stop-color="#FFAB62" offset="0.0844594595%"></stop>
            <stop stop-color="#F57D2B" offset="99.9155405%"></stop>
        </linearGradient>
    </defs>
    <g id="页面-1" stroke="none" stroke-width="1" fill="none" fill-rule="evenodd">
        <g id="icon" transform="translate(-1064.000000, -191.000000)">
            <g id="guanliyuan" transform="translate(1064.000000, 191.000000)">
                <path d="M19.9996367,0 C8.95347781,0 0,8.95509374 0,20 L0,20 C0,31.0463595 8.95347781,40 19.9996367,40 L19.9996367,40 C31.0443423,40 40,31.0463595 40,20 L40,20 C40,8.95509374 31.0443423,0 19.9996367,0 Z" id="Fill-1" fill="url(#linearGradient-1)"></path>
                <path d="M25.3555361,22.2362602 C23.689628,21.4376822 21.8858643,21 19.9981619,21 C18.1141357,21 16.3164989,21.4376822 14.654267,22.2305012 C13.6813129,22.7667259 13,23.9805901 13,25.398578 L13,26.9822965 C13,28.0317099 13.5569365,28.9109136 14.316674,29.195663 C16.1467834,29.7152506 18.0442888,30 20.0018381,30 C21.9550985,30 23.8519912,29.7203697 25.6790372,29.1988624 C26.4424508,28.9166726 27,28.0349093 27,26.9861358 L27,25.4030572 C27,23.986989 26.3217505,22.7750444 25.3555361,22.2362602 M19.9535148,19 L20.0471353,19 C22.2322633,18.9737497 24,17.2565981 24,15.144412 L24,13.858149 C24,11.7273956 22.208208,10 19.9996749,10 C17.7930922,10 16,11.7273956 16,13.858149 L16,15.144412 C16,17.2565981 17.7677367,18.9737497 19.9535148,19" id="Fill-3" fill="#FFFFFF"></path>
            </g>
        </g>
    </g>
</svg>