<?xml version="1.0" encoding="UTF-8"?>
<svg width="295px" height="371px" viewBox="0 0 295 371" version="1.1" xmlns="http://www.w3.org/2000/svg" xmlns:xlink="http://www.w3.org/1999/xlink">
    <!-- Generator: Sketch 60.1 (88133) - https://sketch.com -->
    <title>hongbaobeijing</title>
    <desc>Created with Sketch.</desc>
    <g id="页面-1" stroke="none" stroke-width="1" fill="none" fill-rule="evenodd">
        <g id="icon" transform="translate(-864.000000, -359.000000)">
            <g id="hongbaobeijing" transform="translate(864.000000, 359.000000)">
                <path d="M295,350.430956 C295,361.790875 286.348735,371 275.676965,371 L19.3230348,371 C8.65126487,371 0,361.790875 0,350.430956 L0,20.5690444 C0,9.21007666 8.65126487,0 19.3230348,0 L275.676965,0 C286.348735,0 295,9.21007666 295,20.5690444 L295,350.430956 Z" id="Fill-1" fill="#E0604B"></path>
                <path d="M275.676965,0 L19.3230348,0 C8.65126487,0 0,9.23503757 0,20.6247901 L0,241.423455 C42.8166567,260.387617 93.3605614,276 147.499553,276 C201.639439,276 252.183343,260.387617 295,241.423455 L295,20.6247901 C295,9.23503757 286.348735,0 275.676965,0" id="Fill-3" fill="#CB5541"></path>
                <path d="M275.676965,0 L19.3230348,0 C8.65126487,0 0,9.21003678 0,20.5689553 L0,237.419566 C42.8166567,256.332389 93.3605614,270 147.499553,270 C201.639439,270 252.183343,256.332389 295,237.419566 L295,20.5689553 C295,9.21003678 286.348735,0 275.676965,0" id="Fill-5" fill="#E16754"></path>
            </g>
        </g>
    </g>
</svg>