<?xml version="1.0" encoding="UTF-8"?>
<svg width="40px" height="40px" viewBox="0 0 40 40" version="1.1" xmlns="http://www.w3.org/2000/svg" xmlns:xlink="http://www.w3.org/1999/xlink">
    <!-- Generator: Sketch 60.1 (88133) - https://sketch.com -->
    <title>kefu</title>
    <desc>Created with Sketch.</desc>
    <defs>
        <linearGradient x1="50%" y1="4.0518457%" x2="50%" y2="99.0311987%" id="linearGradient-1">
            <stop stop-color="#FF95F3" offset="0%"></stop>
            <stop stop-color="#DF59EF" offset="100%"></stop>
        </linearGradient>
    </defs>
    <g id="页面-1" stroke="none" stroke-width="1" fill="none" fill-rule="evenodd">
        <g id="icon" transform="translate(-1120.000000, -191.000000)">
            <g id="kefu" transform="translate(1120.000000, 191.000000)">
                <path d="M19.9996367,0 C8.95347781,0 0,8.95509374 0,20 L0,20 C0,31.0463595 8.95347781,40 19.9996367,40 L19.9996367,40 C31.0443423,40 40,31.0463595 40,20 L40,20 C40,8.95509374 31.0443423,0 19.9996367,0 Z" id="Fill-1" fill="url(#linearGradient-1)"></path>
                <path d="M26.162987,17.7330212 C25.2149351,15.2440609 22.7577922,13.4656931 19.8649351,13.4656931 C16.9844156,13.4656931 14.5344156,15.227711 13.5785714,17.7015791 C13.5292208,17.6449832 13.4733766,17.5971912 13.4175325,17.5475126 C13.9616883,14.5340973 16.6383117,12.2432225 19.8675325,12.2432225 C23.0811688,12.2432225 25.7512987,14.5120878 26.3116883,17.5041224 C26.2558442,17.5758105 26.2058442,17.6512717 26.162987,17.7330212 M27.5058442,16.9167831 C27.4935065,16.9167831 27.4831169,16.9192985 27.4714286,16.9192985 C26.6623377,13.5285774 23.5720779,11 19.8675325,11 C16.0623377,11 12.9006494,13.6681805 12.1993506,17.1991336 C11.5194805,17.3179849 11,17.8977781 11,18.5983091 L11,21.4054639 C11,22.1915176 11.6525974,22.8297932 12.4564935,22.8297932 C12.9090909,22.8297932 13.3103896,22.622275 13.5766234,22.3034516 C14.2207792,23.9522778 15.5298701,25.2810229 17.1883117,25.9828116 C17.1922078,25.9740078 17.224026,25.9161543 17.2616883,25.8677334 C17.287013,25.8356624 17.3155844,25.8079933 17.3415584,25.8079933 C17.3675325,25.8079933 17.3922078,25.8174259 17.412987,25.8312605 C17.0292208,25.5551984 15.6415584,24.1327557 15.3409091,22.1481274 C15.2103896,21.2734069 15.8850649,20.4156652 16.6727273,20.2741755 C17.9357143,20.0465344 19.1928571,19.7868222 20.4564935,19.5642119 C21.2590909,19.4214645 21.8084416,18.9957378 22.1441558,18.2851453 C22.2233766,18.1191308 22.3363636,17.7833287 22.3876623,17.2978619 C22.4012987,17.2274315 22.4623377,17.1720933 22.5415584,17.1720933 C22.5928571,17.1720933 22.6383117,17.1972471 22.6668831,17.2343488 L22.7019481,17.213597 C23.2,17.9134992 24.187013,19.463597 24.3285714,21.0979598 C24.4915584,22.9675098 24.4006494,24.2472051 22.9233766,25.557085 C22.9220779,25.5583426 22.9194805,25.5602292 22.9181818,25.5621157 C22.8980519,25.5834964 22.8850649,25.6111655 22.8850649,25.6419788 C22.8850649,25.6822247 22.9071429,25.7168111 22.9396104,25.7375629 C22.9506494,25.7425936 22.962987,25.7488821 22.9753247,25.7539128 C22.9863636,25.7551705 22.9954545,25.7589435 23.0051948,25.7589435 C23.0149351,25.7589435 23.0227273,25.7551705 23.0324675,25.7539128 C23.0538961,25.7432225 23.0733766,25.7306456 23.0948052,25.7205841 C24.5883117,24.9225824 25.7331169,23.5919508 26.2642857,21.9915456 C26.4772727,22.3003074 26.812987,22.522289 27.2038961,22.5996367 C26.5779221,25.3533399 24.0415584,27.0776272 20.8987013,27.3392258 C20.711039,26.8864589 20.2467532,26.565749 19.7025974,26.565749 C18.9915584,26.565749 18.4149351,27.110327 18.4149351,27.7825601 C18.4149351,28.4547932 18.9915584,29 19.7025974,29 C20.2753247,29 20.7558442,28.6428172 20.9227273,28.1529486 C24.5597403,27.8661962 27.475974,25.7721492 28.0850649,22.5185159 C28.6220779,22.3015651 29,21.7903158 29,21.1941727 L29,18.3543181 C29,17.5607183 28.3311688,16.9167831 27.5058442,16.9167831 M20.0850649,25.200531 C20.1766234,25.200531 20.2688312,25.1948714 20.3616883,25.1841811 C21.2551948,25.0797932 22.011039,24.476104 22.2909091,23.6441448 C22.312987,23.5818893 22.2818182,23.515232 22.2201299,23.4875629 C22.1590909,23.4605226 22.0857143,23.4837898 22.0519481,23.5397568 C22.0474026,23.5454164 21.6935065,24.1000559 20.312987,24.279905 C20.1064935,24.3069452 19.9058442,24.3207798 19.7155844,24.3207798 C18.7480519,24.3207798 18.3168831,23.9679989 18.312987,23.9648547 C18.2636364,23.9227222 18.1902597,23.9208357 18.1402597,23.9629681 C18.0902597,24.0032141 18.0772727,24.0742733 18.112987,24.127725 C18.5344156,24.7892677 19.288961,25.200531 20.0850649,25.200531" id="Fill-3" fill="#FFFFFF"></path>
            </g>
        </g>
    </g>
</svg>