<?xml version="1.0" encoding="UTF-8"?>
<svg width="44px" height="44px" viewBox="0 0 44 44" version="1.1" xmlns="http://www.w3.org/2000/svg" xmlns:xlink="http://www.w3.org/1999/xlink">
    <!-- Generator: Sketch 60.1 (88133) - https://sketch.com -->
    <title>pingtai</title>
    <desc>Created with Sketch.</desc>
    <defs>
        <linearGradient x1="50%" y1="2.80934459%" x2="50%" y2="98.9760668%" id="linearGradient-1">
            <stop stop-color="#36E6A5" offset="0.0923775338%"></stop>
            <stop stop-color="#0ACA9E" offset="100%"></stop>
        </linearGradient>
    </defs>
    <g id="页面-1" stroke="none" stroke-width="1" fill="none" fill-rule="evenodd">
        <g id="icon" transform="translate(-882.000000, -189.000000)">
            <g id="pingtai" transform="translate(882.000000, 189.000000)">
                <path d="M21.9996004,0 C9.84882559,0 0,9.85060311 0,22 L0,22 C0,34.1509955 9.84882559,44 21.9996004,44 L21.9996004,44 C34.1487765,44 44,34.1509955 44,22 L44,22 C44,9.85060311 34.1487765,0 21.9996004,0 Z" id="Fill-1" fill="url(#linearGradient-1)"></path>
                <path d="M23.6389298,10.4321413 L31.3610702,14.8193679 C32.3752435,15.3955564 33,16.4603965 33,17.6127734 L33,26.3872266 C33,27.5396035 32.3752435,28.6044436 31.3610702,29.1806321 L23.6389298,33.5678587 C22.6247565,34.1440471 21.3752435,34.1440471 20.3610702,33.5678587 L12.6389298,29.1806321 C11.6247565,28.6044436 11,27.5396035 11,26.3872266 L11,17.6127734 C11,16.4603965 11.6247565,15.3955564 12.6389298,14.8193679 L20.3610702,10.4321413 C21.3752435,9.85595289 22.6247565,9.85595289 23.6389298,10.4321413 Z M26.3616897,18.1355932 C25.7247555,18.1355932 25.157486,18.247637 24.6598811,18.4717246 C24.1622763,18.6958122 23.7422978,19.0010349 23.3999457,19.3873928 C23.0575936,19.7737507 22.7968487,20.229653 22.6177109,20.7550997 C22.4385732,21.2805464 22.3490043,21.8484925 22.3490043,22.458938 C22.3490043,23.1002921 22.442554,23.6798289 22.6296534,24.1975485 C22.8167529,24.715268 23.0874499,25.1576478 23.4417445,25.5246878 C23.7960392,25.8917278 24.2239793,26.1757008 24.725565,26.3766069 C25.2271507,26.5775131 25.7924297,26.6779661 26.4214022,26.6779661 C27.0662981,26.6779661 27.611673,26.5794448 28.0575269,26.3824023 C28.5033809,26.1853598 28.8676276,25.9187729 29.1502671,25.5826415 C29.4329067,25.2465101 29.6359294,24.8582205 29.7593354,24.4177725 C29.8827414,23.9773245 29.9444444,23.513695 29.9444444,23.0268841 C29.9444444,22.6250719 29.8887127,22.3430306 29.7772492,22.1807603 C29.6723424,22.0280353 29.4722261,21.9471809 29.1769002,21.9381971 L29.1204108,21.9373548 L27.1260107,21.9373548 C26.847352,21.9373548 26.6403484,21.9914449 26.5049999,22.0996251 C26.3696513,22.2078053 26.3019771,22.38553 26.3019771,22.632799 C26.3019771,22.8800681 26.3656705,23.0519973 26.4930573,23.1485868 C26.6113451,23.238277 26.7982821,23.2863254 27.0538681,23.2927318 L27.1140682,23.293471 L28.3919174,23.293471 C28.3919174,23.5948302 28.3401665,23.8710761 28.2366647,24.1222087 C28.1331629,24.3733413 27.9918431,24.5897017 27.8127054,24.7712899 C27.6335676,24.9528781 27.426564,25.0958306 27.1916945,25.2001472 C26.956825,25.3044638 26.7040418,25.3566221 26.4333448,25.3566221 C26.0591459,25.3566221 25.7167938,25.2870777 25.4062884,25.1479889 C25.095783,25.0089 24.8290668,24.8118575 24.6061398,24.5568613 C24.3832129,24.3018651 24.2100464,23.9927788 24.0866404,23.6296024 C23.9632344,23.266426 23.9015314,22.8568866 23.9015314,22.4009843 C23.9015314,21.9528091 23.9652248,21.5471334 24.0926116,21.1839569 C24.2199985,20.8207805 24.3911745,20.5116942 24.6061398,20.256698 C24.8211051,20.0017018 25.0758788,19.8046593 25.3704608,19.6655705 C25.6650429,19.5264816 25.9795292,19.4569372 26.3139196,19.4569372 C26.6960801,19.4569372 27.0284801,19.5168227 27.3111197,19.6365936 C27.5937592,19.7563646 27.8943125,19.9823839 28.2127796,20.3146517 C28.3083198,20.4073776 28.4118216,20.4691949 28.523285,20.5001035 C28.6347485,20.5310121 28.746212,20.5426029 28.8576755,20.5348757 C28.969139,20.5271485 29.0746312,20.5001035 29.1741522,20.4537405 C29.2736731,20.4073776 29.3592612,20.3532875 29.4309163,20.2914702 C29.5742265,20.1910172 29.6399103,20.0693144 29.6279678,19.926362 C29.6160253,19.7834096 29.5543223,19.6365936 29.4428588,19.485914 C29.3313953,19.3352345 29.1841043,19.1845549 29.0009857,19.0338753 C28.8178671,18.8831957 28.6188252,18.7421751 28.4038599,18.6108134 C28.0455844,18.4099073 27.7072131,18.2804774 27.388746,18.2225237 C27.0702789,18.1645701 26.7279268,18.1355932 26.3616897,18.1355932 Z M20.2789682,18.2515006 C19.9843862,18.2515006 19.7813634,18.3171814 19.6698999,18.4485431 C19.5695828,18.5667686 19.5144084,18.6881236 19.5043766,18.8126081 L19.5027047,18.8542189 L19.5027047,23.1427914 C19.5027047,23.4827864 19.4788197,23.7841455 19.4310496,24.0468689 C19.3832795,24.3095923 19.2937107,24.531748 19.162343,24.7133362 C19.0309753,24.8949245 18.853828,25.0340133 18.630901,25.1306028 C18.4079741,25.2271922 18.1253345,25.275487 17.7829824,25.275487 C17.4326686,25.275487 17.1440578,25.2252604 16.91715,25.1248074 C16.6902422,25.0243543 16.5111044,24.8814019 16.3797368,24.6959501 C16.2483691,24.5104984 16.1548194,24.2864108 16.0990876,24.0236874 C16.0495483,23.7901555 16.0220265,23.532202 16.0165221,23.2498269 L16.01549,23.1427914 L16.01549,18.8542189 C16.01549,18.6996757 15.9557775,18.5605869 15.8363523,18.4369524 C15.7169271,18.3133178 15.5178852,18.2515006 15.2392265,18.2515006 C14.9605678,18.2515006 14.7615259,18.3171814 14.6421007,18.4485431 C14.5335324,18.5679628 14.4743133,18.6905756 14.4644434,18.8163814 L14.462963,18.8542189 L14.462963,23.8614171 C14.462963,24.3327737 14.5604935,24.7403813 14.7555546,25.0842398 C14.9506157,25.4280983 15.203399,25.7140032 15.5139044,25.9419543 C15.8244098,26.1699055 16.176714,26.339903 16.570817,26.4519467 C16.96492,26.5639905 17.3649943,26.6200124 17.7710399,26.6200124 C18.1850471,26.6200124 18.5891022,26.5639905 18.9832052,26.4519467 C19.3773083,26.339903 19.7276221,26.1679737 20.0341466,25.936159 C20.3406712,25.7043442 20.5874832,25.4165076 20.7745826,25.0726491 C20.9492088,24.7517145 21.0423427,24.3786129 21.0539844,23.9533445 L21.0552318,23.8614171 L21.0552318,18.8542189 C21.0552318,18.6996757 20.9955192,18.5605869 20.876094,18.4369524 C20.7566689,18.3133178 20.5576269,18.2515006 20.2789682,18.2515006 Z" id="形状" fill="#FFFFFF"></path>
            </g>
        </g>
    </g>
</svg>