<?xml version="1.0" encoding="UTF-8"?>
<svg width="214px" height="83px" viewBox="0 0 214 83" version="1.1" xmlns="http://www.w3.org/2000/svg" xmlns:xlink="http://www.w3.org/1999/xlink">
    <!-- Generator: Sketch 60.1 (88133) - https://sketch.com -->
    <title>weichaihongbao</title>
    <desc>Created with Sketch.</desc>
    <g id="页面-1" stroke="none" stroke-width="1" fill="none" fill-rule="evenodd">
        <g id="icon" transform="translate(-723.000000, -250.000000)">
            <g id="weichaihongbao" transform="translate(723.000000, 250.000000)">
                <path d="M10.1277704,0.5 C8.5776195,0.5 7.94057806,0.623018378 7.28210802,0.975172007 C6.71739041,1.27718629 6.27718629,1.71739041 5.97517201,2.28210802 C5.62301838,2.94057806 5.5,3.5776195 5.5,5.1277704 L5.5,77.8722296 C5.5,79.4223805 5.62301838,80.0594219 5.97517201,80.717892 C6.27718629,81.2826096 6.71739041,81.7228137 7.28210802,82.024828 C7.94057806,82.3769816 8.5776195,82.5 10.1277704,82.5 L208.87223,82.5 C210.42238,82.5 211.059422,82.3769816 211.717892,82.024828 C212.28261,81.7228137 212.722814,81.2826096 213.024828,80.717892 C213.376982,80.0594219 213.5,79.4223805 213.5,77.8722296 L213.5,5.1277704 C213.5,3.5776195 213.376982,2.94057806 213.024828,2.28210802 C212.722814,1.71739041 212.28261,1.27718629 211.717892,0.975172007 C211.059422,0.623018378 210.42238,0.5 208.87223,0.5 L10.1277704,0.5 Z" id="矩形" stroke="#D9D9D9" fill="#FFFFFF"></path>
                <path d="M0.707106781,17.5 L5.5,22.2928932 L5.5,59.5 L213.5,59.5 L213.5,5.1277704 C213.5,3.5776195 213.376982,2.94057806 213.024828,2.28210802 C212.722814,1.71739041 212.28261,1.27718629 211.717892,0.975172007 C211.059422,0.623018378 210.42238,0.5 208.872233,0.5 L9.86135976,0.50150535 C8.49752557,0.517446243 7.90652623,0.641229496 7.28210802,0.975172007 C6.71739041,1.27718629 6.27718629,1.71739041 5.97517201,2.28210802 C5.62301838,2.94057806 5.5,3.5776195 5.5,5.1277704 L5.5,12.7071068 L0.707106781,17.5 Z" id="路径" stroke="#D48532" fill="#FA9D3B"></path>
            </g>
        </g>
    </g>
</svg>