<?xml version="1.0" encoding="UTF-8"?>
<svg width="44px" height="44px" viewBox="0 0 44 44" version="1.1" xmlns="http://www.w3.org/2000/svg" xmlns:xlink="http://www.w3.org/1999/xlink">
    <!-- Generator: Sketch 60.1 (88133) - https://sketch.com -->
    <title>xitongtongzhi</title>
    <desc>Created with Sketch.</desc>
    <defs>
        <linearGradient x1="50%" y1="4.25140608%" x2="50%" y2="97.7778719%" id="linearGradient-1">
            <stop stop-color="#FFD358" offset="0.0844594595%"></stop>
            <stop stop-color="#FFB62D" offset="100%"></stop>
        </linearGradient>
    </defs>
    <g id="页面-1" stroke="none" stroke-width="1" fill="none" fill-rule="evenodd">
        <g id="icon" transform="translate(-942.000000, -189.000000)">
            <g id="xitongtongzhi" transform="translate(942.000000, 189.000000)">
                <path d="M21.9996004,0 C9.84882559,0 0,9.85060311 0,22 L0,22 C0,34.1509955 9.84882559,44 21.9996004,44 L21.9996004,44 C34.1487765,44 44,34.1509955 44,22 L44,22 C44,9.85060311 34.1487765,0 21.9996004,0 Z" id="Fill-1" fill="url(#linearGradient-1)"></path>
                <path d="M22.1539,13.414397 C23.0224031,12.6321257 23.7241379,12.9896343 23.7241379,14.2150747 L23.7241379,14.2150747 L23.7241379,29.7861667 C23.7241379,31.0108992 23.0178252,31.3662839 22.1539,30.5875523 L22.1539,30.5875523 L17.564175,26.4468241 L13.5401542,26.4468241 C12.6893089,26.4468241 12,25.7034894 12,24.774675 L12,24.774675 L12,19.2272743 C12,18.3034155 12.684077,17.5551252 13.5401542,17.5551252 L13.5401542,17.5551252 L17.564175,17.5551252 Z M26.2100325,25.9787845 C26.4009396,25.6493907 26.8227268,25.537125 27.1521206,25.7280321 L27.1521206,25.7280321 L31.330638,28.1497789 C31.66145,28.3415079 31.7748449,28.7647063 31.5842168,29.0961538 C31.5838359,29.096816 31.583454,29.0974776 31.5830709,29.0981385 C31.3921638,29.4275324 30.9703766,29.5397981 30.6409828,29.348891 L30.6409828,29.348891 L26.4624655,26.9271442 C26.1316534,26.7354152 26.0182585,26.3122168 26.2088867,25.9807692 L26.2088867,25.9807692 Z M31.3076923,21.3076923 C31.6900433,21.3076923 32,21.617649 32,22 C32,22.382351 31.6900433,22.6923077 31.3076923,22.6923077 L26.4854111,22.6923077 C26.1030602,22.6923077 25.7931034,22.382351 25.7931034,22 C25.7931034,21.617649 26.1030602,21.3076923 26.4854111,21.3076923 L31.3076923,21.3076923 Z M31.5830709,14.9018615 C31.583454,14.9025224 31.5838359,14.903184 31.5842168,14.9038462 C31.7748449,15.2352937 31.66145,15.6584921 31.330638,15.8502211 L27.1521206,18.2719679 C26.8227268,18.462875 26.4009396,18.3506093 26.2100325,18.0212155 L26.2088867,18.0192308 C26.0182585,17.6877832 26.1316534,17.2645848 26.4624655,17.0728558 L30.6409828,14.651109 C30.9703766,14.4602019 31.3921638,14.5724676 31.5830709,14.9018615 Z" id="形状结合" fill="#FFFFFF"></path>
            </g>
        </g>
    </g>
</svg>