<?xml version="1.0" encoding="UTF-8"?>
<svg width="46px" height="46px" viewBox="0 0 46 46" version="1.1" xmlns="http://www.w3.org/2000/svg" xmlns:xlink="http://www.w3.org/1999/xlink">
    <!-- Generator: Sketch 60.1 (88133) - https://sketch.com -->
    <title>youxidating</title>
    <desc>Created with Sketch.</desc>
    <defs>
        <linearGradient x1="50%" y1="2.10323221%" x2="50%" y2="100%" id="linearGradient-1">
            <stop stop-color="#7CA5FF" offset="0.0923775338%"></stop>
            <stop stop-color="#4A77FF" offset="100%"></stop>
        </linearGradient>
        <linearGradient x1="49.9999833%" y1="100.000601%" x2="49.9999833%" y2="-0.000985980878%" id="linearGradient-2">
            <stop stop-color="#D3DEFF" offset="0%"></stop>
            <stop stop-color="#FFFFFF" offset="99.7782939%"></stop>
        </linearGradient>
    </defs>
    <g id="页面-1" stroke="none" stroke-width="1" fill="none" fill-rule="evenodd">
        <g id="icon" transform="translate(-1002.000000, -188.000000)">
            <g id="youxidating" transform="translate(1002.000000, 188.000000)">
                <circle id="椭圆形" fill="url(#linearGradient-1)" cx="23" cy="23" r="23"></circle>
                <path d="M28.35337,14 L28.5771074,14.0039315 C32.5599695,14.1452948 34.1535755,18.089791 34.8076186,24.3601052 L34.8076186,24.3601052 L34.842181,24.7032785 C35.4314092,30.7893707 34.2560142,31.98283 33.2079978,31.98283 L33.2079978,31.98283 L32.9968401,31.9821734 C32.0206348,31.9729807 31.1499282,31.8350909 29.4074589,29.7667426 L29.4074589,29.7667426 L29.2357479,29.5636475 C27.4933149,27.5117502 26.704424,26.9002236 23.5405663,26.9002236 L23.5405663,26.9002236 L23.2484904,26.9006937 C20.1844869,26.9113499 18.7487757,27.1226348 17.1323848,29.4628525 L17.1323848,29.4628525 L17.1278439,29.4713356 C17.0372009,29.6390459 15.5947865,32.2344953 13.2730496,31.98283 L13.2730496,31.98283 L13.1367851,31.9634001 C10.8579127,31.5587 10.4950566,27.3745137 11.6067527,21.6239096 L11.6067527,21.6239096 L11.6761604,21.276876 C12.8331148,15.6885551 15.1251668,14 17.6069976,14 L17.6069976,14 L17.9171721,14.0131892 C20.2466417,14.2125353 21.482825,16.6046877 23.2144594,16.6046877 C25.0201701,16.6046877 26.140935,14 28.35337,14 L28.35337,14 Z M17.999146,19 L17.8232317,19.0050983 C16.2514422,19.0964431 15,20.4037697 15,21.9997152 C15,23.6547698 16.3458582,25 17.999146,25 L17.999146,25 L18.1751801,24.9948996 C19.7480285,24.9035169 21,23.5956607 21,21.9997152 L21,21.9997152 L20.9948952,21.8236228 C20.9034337,20.2503286 19.5944858,19 17.999146,19 L17.999146,19 Z M28,19 C27.4477153,19 27,19.4477153 27,20 L27,20 L27,21 L26,21 C25.4871642,21 25.0644928,21.3860402 25.0067277,21.8833789 L25,22 C25,22.5522847 25.4477153,23 26,23 L26,23 L27,23 L27,24 C27,24.5128358 27.3860402,24.9355072 27.8833789,24.9932723 L28,25 C28.5522847,25 29,24.5522847 29,24 L29,24 L29,23 L30,23 C30.5128358,23 30.9355072,22.6139598 30.9932723,22.1166211 L31,22 C31,21.4477153 30.5522847,21 30,21 L30,21 L29,21 L29,20 C29,19.4871642 28.6139598,19.0644928 28.1166211,19.0067277 Z M17.9993919,21 L18.1159396,21.0067399 C18.6130515,21.0646062 19,21.4879632 19,22.000152 L19,22.000152 L18.9932571,22.1165298 C18.9353643,22.6129659 18.5118143,23 17.9993919,23 L17.9993919,23 L17.8829743,22.9932559 C17.3864241,22.935355 17,22.5117763 17,22.000152 C17,21.448564 17.4481605,21 17.9993919,21 L17.9993919,21 Z" id="形状结合" fill="url(#linearGradient-2)"></path>
            </g>
        </g>
    </g>
</svg>