<?xml version="1.0" encoding="UTF-8"?>
<svg width="108px" height="118px" viewBox="0 0 108 118" version="1.1" xmlns="http://www.w3.org/2000/svg" xmlns:xlink="http://www.w3.org/1999/xlink">
    <!-- Generator: Sketch 60.1 (88133) - https://sketch.com -->
    <title>形状</title>
    <desc>Created with Sketch.</desc>
    <defs>
        <linearGradient x1="50%" y1="2.10323221%" x2="50%" y2="100%" id="linearGradient-1">
            <stop stop-color="#7CA5FF" offset="0.0923775338%"></stop>
            <stop stop-color="#4A77FF" offset="100%"></stop>
        </linearGradient>
    </defs>
    <g id="页面-1" stroke="none" stroke-width="1" fill="none" fill-rule="evenodd">
        <g id="icon" transform="translate(-723.000000, -475.000000)" fill="url(#linearGradient-1)">
            <path d="M785.045655,477.124695 L822.954345,498.695226 C827.933014,501.528152 831,506.763616 831,512.429469 L831,555.570531 C831,561.236384 827.933014,566.471848 822.954345,569.304774 L785.045655,590.875305 C780.066986,593.708232 773.933014,593.708232 768.954345,590.875305 L731.045655,569.304774 C726.066986,566.471848 723,561.236384 723,555.570531 L723,512.429469 C723,506.763616 726.066986,501.528152 731.045655,498.695226 L768.954345,477.124695 C773.933014,474.291768 780.066986,474.291768 785.045655,477.124695 Z M798.411931,515 C795.285163,515 792.500386,515.550882 790.057598,516.652646 C787.614811,517.75441 785.553098,519.255088 783.872461,521.154681 C782.191823,523.054274 780.911803,525.295794 780.032399,527.87924 C779.152996,530.462687 778.713294,533.255088 778.713294,536.256445 C778.713294,539.409769 779.172538,542.259159 780.091026,544.804613 C781.009514,547.350068 782.33839,549.525102 784.077655,551.329715 C785.81692,553.134328 787.917717,554.530529 790.380046,555.518318 C792.842376,556.506106 795.617382,557 798.705066,557 C801.870918,557 804.548213,556.515604 806.73695,555.546811 C808.925688,554.578019 810.713808,553.2673 812.101311,551.614654 C813.488815,549.962008 814.485472,548.052917 815.091283,545.887381 C815.697094,543.721845 816,541.442334 816,539.048847 C816,537.07327 815.726408,535.686567 815.179223,534.888738 C814.664226,534.13784 813.681837,533.740306 812.232055,533.696136 L811.954744,533.691995 L802.164052,533.691995 C800.796092,533.691995 799.779892,533.957938 799.115454,534.489824 C798.451016,535.02171 798.118797,535.895522 798.118797,537.111262 C798.118797,538.327001 798.431473,539.17232 799.056827,539.647218 C799.637512,540.088195 800.555203,540.324433 801.809898,540.355931 L802.105426,540.359566 L808.378503,540.359566 C808.378503,541.841248 808.124454,543.199457 807.616354,544.434193 C807.108254,545.668928 806.414502,546.7327 805.535099,547.625509 C804.655696,548.518318 803.639496,549.221167 802.4865,549.734057 C801.333505,550.246947 800.092569,550.503392 798.763692,550.503392 C796.926716,550.503392 795.246079,550.161465 793.721779,549.477612 C792.19748,548.793758 790.888146,547.824966 789.793777,546.571235 C788.699409,545.317503 787.849319,543.797829 787.243507,542.012212 C786.637696,540.226594 786.33479,538.213026 786.33479,535.971506 C786.33479,533.767978 786.647467,531.773406 787.272821,529.987788 C787.898174,528.202171 788.738493,526.682497 789.793777,525.428765 C790.849061,524.175034 792.099769,523.206242 793.545899,522.522388 C794.992029,521.838535 796.53587,521.496608 798.177424,521.496608 C800.053484,521.496608 801.685266,521.791045 803.072769,522.379919 C804.460273,522.968792 805.935716,524.080054 807.4991,525.713704 C807.968115,526.169607 808.476215,526.473541 809.023399,526.625509 C809.570584,526.777476 810.117768,526.834464 810.664952,526.796472 C811.212137,526.75848 811.730008,526.625509 812.218565,526.397558 C812.707123,526.169607 813.127282,525.903664 813.479043,525.599729 C814.182566,525.105834 814.505014,524.507463 814.446387,523.804613 C814.38776,523.101764 814.084855,522.379919 813.53767,521.639077 C812.990486,520.898236 812.267421,520.157395 811.368475,519.416554 C810.469529,518.675712 809.492415,517.982361 808.43713,517.336499 C806.678323,516.348711 805.017228,515.712347 803.453844,515.427408 C801.89046,515.142469 800.209823,515 798.411931,515 Z M768.551299,515.569878 C767.105168,515.569878 766.108511,515.892809 765.561327,516.53867 C765.068861,517.119946 764.798005,517.716608 764.748758,518.328657 L764.74055,518.533243 L764.74055,539.618725 C764.74055,541.290366 764.623296,542.772049 764.388789,544.063772 C764.154281,545.355495 763.71458,546.447761 763.069684,547.34057 C762.424788,548.233379 761.555156,548.917232 760.460787,549.39213 C759.366418,549.867028 757.978915,550.104478 756.298277,550.104478 C754.578555,550.104478 753.161738,549.857531 752.047827,549.363636 C750.933916,548.869742 750.054513,548.166893 749.409617,547.255088 C748.764721,546.343284 748.305477,545.24152 748.031885,543.949796 C747.788692,542.801598 747.653585,541.533327 747.626563,540.144982 L747.621497,539.618725 L747.621497,518.533243 C747.621497,517.773406 747.328362,517.089552 746.742093,516.481682 C746.155824,515.873813 745.178709,515.569878 743.810748,515.569878 C742.442787,515.569878 741.465672,515.892809 740.879403,516.53867 C740.346432,517.125817 740.05572,517.728663 740.007268,518.347208 L740,518.533243 L740,543.151967 C740,545.469471 740.478786,547.473541 741.436359,549.164179 C742.393932,550.854817 743.634868,552.260516 745.159167,553.381275 C746.683466,554.502035 748.41296,555.337856 750.347647,555.888738 C752.282335,556.43962 754.246336,556.715061 756.23965,556.715061 C758.272049,556.715061 760.255593,556.43962 762.19028,555.888738 C764.124968,555.337856 765.84469,554.492537 767.349447,553.352782 C768.854204,552.213026 770.065827,550.797829 770.984315,549.107191 C771.84157,547.529263 772.298773,545.694847 772.355924,543.603944 L772.362047,543.151967 L772.362047,518.533243 C772.362047,517.773406 772.068912,517.089552 771.482643,516.481682 C770.896374,515.873813 769.919259,515.569878 768.551299,515.569878 Z" id="形状"></path>
        </g>
    </g>
</svg>